%TF.GenerationSoftware,KiCad,Pcbnew,8.0.7*%
%TF.CreationDate,2024-12-27T12:04:35+11:00*%
%TF.ProjectId,ESP32 sensor board,45535033-3220-4736-956e-736f7220626f,rev?*%
%TF.SameCoordinates,Original*%
%TF.FileFunction,Copper,L2,Inr*%
%TF.FilePolarity,Positive*%
%FSLAX46Y46*%
G04 Gerber Fmt 4.6, Leading zero omitted, Abs format (unit mm)*
G04 Created by KiCad (PCBNEW 8.0.7) date 2024-12-27 12:04:35*
%MOMM*%
%LPD*%
G01*
G04 APERTURE LIST*
%TA.AperFunction,ComponentPad*%
%ADD10C,0.650000*%
%TD*%
%TA.AperFunction,ComponentPad*%
%ADD11O,1.050000X2.100000*%
%TD*%
%TA.AperFunction,ComponentPad*%
%ADD12C,0.400000*%
%TD*%
%TA.AperFunction,ComponentPad*%
%ADD13R,1.508000X1.508000*%
%TD*%
%TA.AperFunction,ComponentPad*%
%ADD14C,1.508000*%
%TD*%
%TA.AperFunction,ComponentPad*%
%ADD15C,1.208000*%
%TD*%
%TA.AperFunction,ComponentPad*%
%ADD16R,1.700000X1.700000*%
%TD*%
%TA.AperFunction,ComponentPad*%
%ADD17O,1.700000X1.700000*%
%TD*%
%TA.AperFunction,ViaPad*%
%ADD18C,0.500000*%
%TD*%
%TA.AperFunction,ViaPad*%
%ADD19C,0.800000*%
%TD*%
%TA.AperFunction,Conductor*%
%ADD20C,0.254000*%
%TD*%
G04 APERTURE END LIST*
D10*
%TO.N,GND*%
%TO.C,J1*%
X145990800Y-114382500D03*
%TO.N,unconnected-(J1-SSTXP2-PadB2)*%
X145590800Y-115092500D03*
%TO.N,unconnected-(J1-SSTXN2-PadB3)*%
X144790800Y-115092500D03*
%TO.N,/VBUS*%
X144390800Y-114382500D03*
%TO.N,Net-(J1-CC2)*%
X143990800Y-115092500D03*
%TO.N,/USB_DP*%
X143590800Y-114382500D03*
%TO.N,/USB_DN*%
X142790800Y-114382500D03*
%TO.N,unconnected-(J1-SBU2-PadB8)*%
X142390800Y-115092500D03*
%TO.N,/VBUS*%
X141990800Y-114382500D03*
%TO.N,unconnected-(J1-SSRXN1-PadB10)*%
X141590800Y-115092500D03*
%TO.N,unconnected-(J1-SSRXP1-PadB11)*%
X140790800Y-115092500D03*
%TO.N,GND*%
X140390800Y-114382500D03*
X145190800Y-114382500D03*
X141190800Y-114382500D03*
D11*
X138920800Y-115532500D03*
X147460800Y-115532500D03*
X138920800Y-120262500D03*
X147460800Y-120262500D03*
%TD*%
D12*
%TO.N,GND*%
%TO.C,U3*%
X189386000Y-85004000D03*
X190486000Y-85004000D03*
X188836000Y-85554000D03*
X189936000Y-85554000D03*
X191036000Y-85554000D03*
X189386000Y-86104000D03*
X190486000Y-86104000D03*
X188836000Y-86654000D03*
X189936000Y-86654000D03*
X191036000Y-86654000D03*
X189386000Y-87204000D03*
X190486000Y-87204000D03*
%TD*%
D13*
%TO.N,3.3V*%
%TO.C,J4*%
X115375000Y-83340000D03*
D14*
%TO.N,/ESP32-C3-02/SDA*%
X115375000Y-80840000D03*
%TO.N,/ESP32-C3-02/SCL*%
X115375000Y-78340000D03*
%TO.N,GND*%
X115375000Y-75840000D03*
%TD*%
D15*
%TO.N,GND*%
%TO.C,MK1*%
X147962500Y-77850000D03*
%TO.N,Net-(C17-Pad2)*%
X147962500Y-79750000D03*
%TD*%
D16*
%TO.N,3.3V*%
%TO.C,J6*%
X114925000Y-88565000D03*
D17*
%TO.N,/ESP32-C3-02/GPIO8*%
X114925000Y-91105000D03*
%TO.N,/ESP32-C3-02/GPIO18*%
X114925000Y-93645000D03*
%TO.N,/ESP32-C3-02/GPIO19*%
X114925000Y-96185000D03*
%TO.N,GND*%
X114925000Y-98725000D03*
%TD*%
D18*
%TO.N,/+5V_USB*%
X134950000Y-107200000D03*
X134950000Y-108150000D03*
X119583300Y-106916700D03*
X134950000Y-106350000D03*
X130225000Y-121200000D03*
X133925000Y-118475000D03*
X116500000Y-106900000D03*
X113400000Y-106950000D03*
X130925000Y-121200000D03*
X131600000Y-121200000D03*
X133950000Y-117475000D03*
%TO.N,GND*%
X176050000Y-83650000D03*
X149350000Y-97350000D03*
X126800000Y-93300000D03*
X159900000Y-93125000D03*
X186700000Y-96650000D03*
X154000000Y-101850000D03*
X129500000Y-108837500D03*
X174326000Y-100300000D03*
X127000000Y-97500000D03*
X125500000Y-95500000D03*
X152200000Y-98150000D03*
D19*
X180250000Y-92925000D03*
D18*
X134062000Y-83150000D03*
X157500000Y-120750000D03*
X166500000Y-122000000D03*
X193450000Y-100100000D03*
X169100000Y-100700000D03*
X146675000Y-113050000D03*
X161000000Y-120500000D03*
X147100000Y-107800000D03*
X139700000Y-113050000D03*
X177950000Y-83000000D03*
D19*
X129150000Y-115325000D03*
D18*
X125500000Y-99500000D03*
X155750000Y-87500000D03*
X122100000Y-122175000D03*
X134575000Y-77262500D03*
X156047000Y-78587500D03*
X127000000Y-108837500D03*
X146450000Y-98150000D03*
X143200000Y-106362500D03*
X154250000Y-117000000D03*
X127000000Y-99500000D03*
X128700000Y-76900000D03*
X122100000Y-123850000D03*
X153375000Y-75750000D03*
X172750000Y-121500000D03*
X121600000Y-102725000D03*
X129025000Y-121850000D03*
X195500000Y-121500000D03*
X144457500Y-118120000D03*
X142150000Y-103025000D03*
X136725000Y-84112500D03*
D19*
X121075000Y-118025000D03*
D18*
X160250000Y-115250000D03*
X125500000Y-101500000D03*
X178450000Y-97650000D03*
X144377500Y-120090000D03*
X125500000Y-97500000D03*
X127000000Y-101500000D03*
X122100000Y-122975000D03*
X143450000Y-97650000D03*
X124475000Y-108837500D03*
%TO.N,3.3V*%
X158950000Y-79775000D03*
D19*
X173325000Y-81575000D03*
D18*
X134325000Y-75012500D03*
X120500000Y-95712500D03*
X154175000Y-74600000D03*
X182725000Y-96450000D03*
X128175000Y-89825000D03*
X153050000Y-80300000D03*
X157050000Y-76725000D03*
X150475000Y-101400000D03*
X170750000Y-87695000D03*
X161525000Y-79750000D03*
X150600000Y-110975000D03*
X146400000Y-95000000D03*
X132675000Y-89825000D03*
X148775000Y-84450000D03*
X128175000Y-88400000D03*
X128175000Y-89100000D03*
X128150000Y-83750000D03*
X158625000Y-90225000D03*
X132675000Y-88400000D03*
X136000000Y-91125000D03*
X194325000Y-94200000D03*
X132675000Y-89100000D03*
X138500000Y-91100000D03*
X131550000Y-78100000D03*
%TO.N,/ESP32-C3-02/MIC_OUT*%
X182250000Y-83750000D03*
X171725000Y-81275000D03*
%TO.N,/ESP32-C3-02/EN*%
X167329600Y-108812500D03*
X185000000Y-86325000D03*
X181525000Y-81425000D03*
X183700000Y-81450000D03*
%TO.N,Net-(U1-PROG1)*%
X128250000Y-111750000D03*
X127050000Y-114200000D03*
%TO.N,/USB_DN*%
X145050000Y-109800000D03*
%TO.N,Net-(U1-PROG3)*%
X130700000Y-111750000D03*
X127775000Y-115200000D03*
%TO.N,/CHARGING_POWER_GOOD*%
X125000000Y-114125000D03*
X132525000Y-115375000D03*
%TO.N,/CHARGED*%
X126025000Y-114225000D03*
X131400000Y-114475000D03*
%TO.N,/USB_DP*%
X141450000Y-109800000D03*
%TO.N,Net-(Q2-B)*%
X152325000Y-112300000D03*
X157425000Y-112300000D03*
%TO.N,/ESP32-C3-02/RTS*%
X155850000Y-98400000D03*
X166500000Y-106700000D03*
X166500000Y-110687500D03*
X155850000Y-106700000D03*
%TO.N,/ESP32-C3-02/BOOT*%
X189145000Y-102605000D03*
X188850000Y-112725000D03*
%TO.N,/ESP32-C3-02/DTS*%
X154950000Y-98400000D03*
X156800000Y-109050000D03*
%TO.N,Net-(Q3-B)*%
X152225000Y-110325000D03*
X166425000Y-112525000D03*
%TO.N,/ESP32-C3-02/CS*%
X172575000Y-86150000D03*
X184075000Y-88375000D03*
%TO.N,/ESP32-C3-02/CS_SD*%
X199297500Y-79904000D03*
X197700000Y-93900000D03*
%TO.N,/ESP32-C3-02/SCL*%
X172600000Y-80425000D03*
X195525000Y-80650000D03*
%TO.N,/ESP32-C3-02/SDA*%
X161500000Y-75400000D03*
X161500000Y-73150000D03*
X183000000Y-79675000D03*
X155400000Y-74675000D03*
X155400000Y-73150000D03*
X172025000Y-79675000D03*
%TO.N,/ESP32-C3-02/PHOTO_C*%
X196275000Y-81400000D03*
X163425000Y-85425000D03*
X172600000Y-82375000D03*
X163425000Y-81950000D03*
%TO.N,/ESP32-C3-02/GPIO19*%
X194860000Y-85910000D03*
%TO.N,/ESP32-C3-02/GPIO8*%
X182825000Y-85250000D03*
X172575000Y-83950000D03*
%TO.N,/ESP32-C3-02/GPIO18*%
X183775000Y-86625000D03*
X172575000Y-84975000D03*
%TO.N,/ESP32-C3-02/TX_RX*%
X195070000Y-105050000D03*
X194775000Y-90400000D03*
%TO.N,/ESP32-C3-02/RX_TX*%
X195650000Y-89100000D03*
X195680000Y-105650000D03*
%TO.N,Net-(U8-IN+)*%
X131875000Y-79302500D03*
X133293300Y-76450000D03*
%TO.N,/VBUS*%
X143200000Y-110850000D03*
X140500000Y-108150000D03*
X144450000Y-112100000D03*
X141750000Y-112000000D03*
X140500000Y-107250000D03*
X145900000Y-106900000D03*
X140500000Y-106350000D03*
%TO.N,/CHARGING*%
X132850000Y-114400000D03*
X123150000Y-114192500D03*
%TD*%
D20*
%TO.N,/USB_DP*%
X143590800Y-112270800D02*
X141450000Y-110130000D01*
X141450000Y-110130000D02*
X141450000Y-109800000D01*
X143590800Y-114382500D02*
X143590800Y-112270800D01*
%TD*%
%TA.AperFunction,Conductor*%
%TO.N,GND*%
G36*
X155026923Y-72470185D02*
G01*
X155072678Y-72522989D01*
X155082622Y-72592147D01*
X155053597Y-72655703D01*
X155035374Y-72672873D01*
X154971718Y-72721718D01*
X154875463Y-72847160D01*
X154814956Y-72993237D01*
X154814955Y-72993239D01*
X154794318Y-73149998D01*
X154794318Y-73150001D01*
X154814955Y-73306760D01*
X154814956Y-73306762D01*
X154875464Y-73452841D01*
X154971718Y-73578282D01*
X155097159Y-73674536D01*
X155243238Y-73735044D01*
X155321619Y-73745363D01*
X155399999Y-73755682D01*
X155400000Y-73755682D01*
X155400001Y-73755682D01*
X155452254Y-73748802D01*
X155556762Y-73735044D01*
X155702841Y-73674536D01*
X155828282Y-73578282D01*
X155924536Y-73452841D01*
X155985044Y-73306762D01*
X155998802Y-73202254D01*
X156005682Y-73150001D01*
X156005682Y-73149998D01*
X155985044Y-72993239D01*
X155985044Y-72993238D01*
X155924536Y-72847159D01*
X155828282Y-72721718D01*
X155764628Y-72672874D01*
X155723427Y-72616448D01*
X155719272Y-72546702D01*
X155753485Y-72485781D01*
X155815202Y-72453029D01*
X155840116Y-72450500D01*
X161059884Y-72450500D01*
X161126923Y-72470185D01*
X161172678Y-72522989D01*
X161182622Y-72592147D01*
X161153597Y-72655703D01*
X161135374Y-72672873D01*
X161071718Y-72721718D01*
X160975463Y-72847160D01*
X160914956Y-72993237D01*
X160914955Y-72993239D01*
X160894318Y-73149998D01*
X160894318Y-73150001D01*
X160914955Y-73306760D01*
X160914956Y-73306762D01*
X160975464Y-73452841D01*
X161071718Y-73578282D01*
X161197159Y-73674536D01*
X161343238Y-73735044D01*
X161421619Y-73745363D01*
X161499999Y-73755682D01*
X161500000Y-73755682D01*
X161500001Y-73755682D01*
X161552254Y-73748802D01*
X161656762Y-73735044D01*
X161802841Y-73674536D01*
X161928282Y-73578282D01*
X162024536Y-73452841D01*
X162085044Y-73306762D01*
X162098802Y-73202254D01*
X162105682Y-73150001D01*
X162105682Y-73149998D01*
X162085044Y-72993239D01*
X162085044Y-72993238D01*
X162024536Y-72847159D01*
X161928282Y-72721718D01*
X161864628Y-72672874D01*
X161823427Y-72616448D01*
X161819272Y-72546702D01*
X161853485Y-72485781D01*
X161915202Y-72453029D01*
X161940116Y-72450500D01*
X163953012Y-72450500D01*
X163986803Y-72450500D01*
X163998955Y-72451097D01*
X164016526Y-72452827D01*
X164136718Y-72464664D01*
X164160549Y-72469403D01*
X164287170Y-72507813D01*
X164309614Y-72517109D01*
X164426312Y-72579485D01*
X164446512Y-72592982D01*
X164475105Y-72616448D01*
X164548789Y-72676918D01*
X164565978Y-72694107D01*
X164649911Y-72796380D01*
X164663416Y-72816592D01*
X164725781Y-72933268D01*
X164735083Y-72955725D01*
X164773492Y-73082339D01*
X164778235Y-73106181D01*
X164791796Y-73243869D01*
X164792393Y-73256023D01*
X164792393Y-73301473D01*
X164792470Y-73302255D01*
X164799491Y-77979382D01*
X164799491Y-77979660D01*
X164799416Y-78079762D01*
X164799417Y-78079772D01*
X164828787Y-78267006D01*
X164828791Y-78267021D01*
X164886818Y-78447433D01*
X164886821Y-78447441D01*
X164926819Y-78526815D01*
X164972112Y-78616698D01*
X165001809Y-78658088D01*
X165082601Y-78770692D01*
X165082603Y-78770694D01*
X165215622Y-78905707D01*
X165367957Y-79018476D01*
X165535927Y-79106276D01*
X165715474Y-79166986D01*
X165902260Y-79199139D01*
X165945852Y-79199754D01*
X165952903Y-79200500D01*
X165960118Y-79200500D01*
X165997594Y-79200500D01*
X165999437Y-79200513D01*
X166000575Y-79200530D01*
X166043868Y-79201175D01*
X166051288Y-79200500D01*
X171385988Y-79200500D01*
X171453027Y-79220185D01*
X171498782Y-79272989D01*
X171508726Y-79342147D01*
X171500549Y-79371952D01*
X171439957Y-79518234D01*
X171439955Y-79518239D01*
X171419318Y-79674998D01*
X171419318Y-79675001D01*
X171439955Y-79831760D01*
X171439956Y-79831762D01*
X171483595Y-79937117D01*
X171500464Y-79977841D01*
X171596718Y-80103282D01*
X171722159Y-80199536D01*
X171868238Y-80260044D01*
X171890579Y-80262985D01*
X171954471Y-80291248D01*
X171992944Y-80349572D01*
X171997331Y-80402106D01*
X171994318Y-80424995D01*
X171994318Y-80425002D01*
X172010707Y-80549492D01*
X171999941Y-80618527D01*
X171953561Y-80670783D01*
X171886292Y-80689668D01*
X171871584Y-80688616D01*
X171814608Y-80681115D01*
X171725001Y-80669318D01*
X171724999Y-80669318D01*
X171568239Y-80689955D01*
X171568237Y-80689956D01*
X171422160Y-80750463D01*
X171296718Y-80846718D01*
X171200463Y-80972160D01*
X171139956Y-81118237D01*
X171139955Y-81118239D01*
X171119318Y-81274998D01*
X171119318Y-81275001D01*
X171139955Y-81431760D01*
X171139956Y-81431762D01*
X171200464Y-81577841D01*
X171296718Y-81703282D01*
X171422159Y-81799536D01*
X171568238Y-81860044D01*
X171646619Y-81870363D01*
X171724999Y-81880682D01*
X171725000Y-81880682D01*
X171725001Y-81880682D01*
X171764190Y-81875522D01*
X171881762Y-81860044D01*
X171976767Y-81820691D01*
X172046232Y-81813223D01*
X172108711Y-81844497D01*
X172144364Y-81904586D01*
X172141871Y-81974411D01*
X172122592Y-82010739D01*
X172075464Y-82072157D01*
X172014956Y-82218237D01*
X172014955Y-82218239D01*
X171994318Y-82374998D01*
X171994318Y-82375001D01*
X172014955Y-82531760D01*
X172014956Y-82531761D01*
X172014956Y-82531762D01*
X172075464Y-82677841D01*
X172171718Y-82803282D01*
X172297159Y-82899536D01*
X172443238Y-82960044D01*
X172521619Y-82970363D01*
X172599999Y-82980682D01*
X172600000Y-82980682D01*
X172600001Y-82980682D01*
X172652254Y-82973802D01*
X172756762Y-82960044D01*
X172902841Y-82899536D01*
X173028282Y-82803282D01*
X173124536Y-82677841D01*
X173185044Y-82531762D01*
X173197380Y-82438063D01*
X173225647Y-82374167D01*
X173283971Y-82335696D01*
X173320319Y-82330249D01*
X173325003Y-82330249D01*
X173493056Y-82311314D01*
X173534529Y-82296802D01*
X173652690Y-82255456D01*
X173652692Y-82255454D01*
X173652694Y-82255454D01*
X173652697Y-82255452D01*
X173795884Y-82165481D01*
X173795885Y-82165480D01*
X173795890Y-82165477D01*
X173915477Y-82045890D01*
X173938001Y-82010044D01*
X174005452Y-81902697D01*
X174005454Y-81902694D01*
X174005454Y-81902692D01*
X174005456Y-81902690D01*
X174061313Y-81743059D01*
X174061313Y-81743058D01*
X174061314Y-81743056D01*
X174080249Y-81575002D01*
X174080249Y-81574997D01*
X174063348Y-81424998D01*
X180919318Y-81424998D01*
X180919318Y-81425001D01*
X180939955Y-81581760D01*
X180939956Y-81581762D01*
X180996506Y-81718287D01*
X181000464Y-81727841D01*
X181096718Y-81853282D01*
X181222159Y-81949536D01*
X181368238Y-82010044D01*
X181446619Y-82020363D01*
X181524999Y-82030682D01*
X181525000Y-82030682D01*
X181525001Y-82030682D01*
X181577254Y-82023802D01*
X181681762Y-82010044D01*
X181827841Y-81949536D01*
X181953282Y-81853282D01*
X182049536Y-81727841D01*
X182110044Y-81581762D01*
X182127391Y-81449998D01*
X183094318Y-81449998D01*
X183094318Y-81450001D01*
X183114955Y-81606760D01*
X183114956Y-81606762D01*
X183154935Y-81703281D01*
X183175464Y-81752841D01*
X183271718Y-81878282D01*
X183397159Y-81974536D01*
X183543238Y-82035044D01*
X183621619Y-82045363D01*
X183699999Y-82055682D01*
X183700000Y-82055682D01*
X183700001Y-82055682D01*
X183774378Y-82045890D01*
X183856762Y-82035044D01*
X184002841Y-81974536D01*
X184128282Y-81878282D01*
X184224536Y-81752841D01*
X184285044Y-81606762D01*
X184305682Y-81450000D01*
X184302390Y-81424998D01*
X184291769Y-81344318D01*
X184285044Y-81293238D01*
X184224536Y-81147159D01*
X184128282Y-81021718D01*
X184002841Y-80925464D01*
X183942483Y-80900463D01*
X183856762Y-80864956D01*
X183856760Y-80864955D01*
X183700001Y-80844318D01*
X183699999Y-80844318D01*
X183543239Y-80864955D01*
X183543237Y-80864956D01*
X183397160Y-80925463D01*
X183271718Y-81021718D01*
X183175463Y-81147160D01*
X183114956Y-81293237D01*
X183114955Y-81293239D01*
X183094318Y-81449998D01*
X182127391Y-81449998D01*
X182130682Y-81425000D01*
X182127390Y-81399998D01*
X182110044Y-81268239D01*
X182110044Y-81268238D01*
X182049536Y-81122159D01*
X181953282Y-80996718D01*
X181827841Y-80900464D01*
X181813551Y-80894545D01*
X181681762Y-80839956D01*
X181681760Y-80839955D01*
X181525001Y-80819318D01*
X181524999Y-80819318D01*
X181368239Y-80839955D01*
X181368237Y-80839956D01*
X181222160Y-80900463D01*
X181096718Y-80996718D01*
X181000463Y-81122160D01*
X180939956Y-81268237D01*
X180939955Y-81268239D01*
X180919318Y-81424998D01*
X174063348Y-81424998D01*
X174061314Y-81406943D01*
X174012779Y-81268238D01*
X174005456Y-81247310D01*
X174005455Y-81247309D01*
X174005454Y-81247305D01*
X174005452Y-81247302D01*
X173915481Y-81104115D01*
X173915476Y-81104109D01*
X173795890Y-80984523D01*
X173795884Y-80984518D01*
X173652697Y-80894547D01*
X173652694Y-80894545D01*
X173493056Y-80838685D01*
X173325003Y-80819751D01*
X173325001Y-80819751D01*
X173325000Y-80819751D01*
X173302494Y-80822286D01*
X173283675Y-80824407D01*
X173214853Y-80812351D01*
X173163474Y-80765001D01*
X173145851Y-80697390D01*
X173155231Y-80653735D01*
X173156779Y-80649998D01*
X194919318Y-80649998D01*
X194919318Y-80650001D01*
X194939955Y-80806760D01*
X194939956Y-80806762D01*
X194976316Y-80894544D01*
X195000464Y-80952841D01*
X195096718Y-81078282D01*
X195222159Y-81174536D01*
X195368238Y-81235044D01*
X195525000Y-81255682D01*
X195530975Y-81254895D01*
X195600010Y-81265657D01*
X195652268Y-81312034D01*
X195671157Y-81379302D01*
X195670106Y-81394015D01*
X195669318Y-81400001D01*
X195689955Y-81556760D01*
X195689956Y-81556762D01*
X195739174Y-81675586D01*
X195750464Y-81702841D01*
X195846718Y-81828282D01*
X195972159Y-81924536D01*
X196118238Y-81985044D01*
X196196619Y-81995363D01*
X196274999Y-82005682D01*
X196275000Y-82005682D01*
X196275001Y-82005682D01*
X196327254Y-81998802D01*
X196431762Y-81985044D01*
X196577841Y-81924536D01*
X196703282Y-81828282D01*
X196799536Y-81702841D01*
X196860044Y-81556762D01*
X196874100Y-81449998D01*
X196880682Y-81400001D01*
X196880682Y-81399998D01*
X196864226Y-81275001D01*
X196860044Y-81243238D01*
X196799536Y-81097159D01*
X196703282Y-80971718D01*
X196577841Y-80875464D01*
X196552472Y-80864956D01*
X196431762Y-80814956D01*
X196431760Y-80814955D01*
X196275001Y-80794318D01*
X196275000Y-80794318D01*
X196269015Y-80795106D01*
X196199980Y-80784338D01*
X196147725Y-80737956D01*
X196128842Y-80670687D01*
X196129894Y-80655982D01*
X196130682Y-80650000D01*
X196128862Y-80636179D01*
X196110044Y-80493239D01*
X196110044Y-80493238D01*
X196049536Y-80347159D01*
X195953282Y-80221718D01*
X195827841Y-80125464D01*
X195819864Y-80122160D01*
X195681762Y-80064956D01*
X195681760Y-80064955D01*
X195525001Y-80044318D01*
X195524999Y-80044318D01*
X195368239Y-80064955D01*
X195368237Y-80064956D01*
X195222160Y-80125463D01*
X195096718Y-80221718D01*
X195000463Y-80347160D01*
X194939956Y-80493237D01*
X194939955Y-80493239D01*
X194919318Y-80649998D01*
X173156779Y-80649998D01*
X173185044Y-80581762D01*
X173200226Y-80466443D01*
X173205682Y-80425001D01*
X173205682Y-80424998D01*
X173189226Y-80300001D01*
X173185044Y-80268238D01*
X173124536Y-80122159D01*
X173028282Y-79996718D01*
X172902841Y-79900464D01*
X172871649Y-79887544D01*
X172833442Y-79871718D01*
X172756762Y-79839956D01*
X172749164Y-79838955D01*
X172734418Y-79837014D01*
X172670522Y-79808745D01*
X172632053Y-79750420D01*
X172627668Y-79697890D01*
X172630682Y-79675000D01*
X172610044Y-79518238D01*
X172585615Y-79459262D01*
X172549451Y-79371952D01*
X172541982Y-79302483D01*
X172573257Y-79240004D01*
X172633346Y-79204352D01*
X172664012Y-79200500D01*
X182360988Y-79200500D01*
X182428027Y-79220185D01*
X182473782Y-79272989D01*
X182483726Y-79342147D01*
X182475549Y-79371952D01*
X182414957Y-79518234D01*
X182414955Y-79518239D01*
X182394318Y-79674998D01*
X182394318Y-79675001D01*
X182414955Y-79831760D01*
X182414956Y-79831762D01*
X182458595Y-79937117D01*
X182475464Y-79977841D01*
X182571718Y-80103282D01*
X182697159Y-80199536D01*
X182843238Y-80260044D01*
X182905478Y-80268238D01*
X182999999Y-80280682D01*
X183000000Y-80280682D01*
X183000001Y-80280682D01*
X183094514Y-80268239D01*
X183156762Y-80260044D01*
X183302841Y-80199536D01*
X183428282Y-80103282D01*
X183524536Y-79977841D01*
X183585044Y-79831762D01*
X183605682Y-79675000D01*
X183585044Y-79518238D01*
X183560615Y-79459262D01*
X183524451Y-79371952D01*
X183516982Y-79302483D01*
X183548257Y-79240004D01*
X183608346Y-79204352D01*
X183639012Y-79200500D01*
X198862597Y-79200500D01*
X198929636Y-79220185D01*
X198975391Y-79272989D01*
X198985335Y-79342147D01*
X198956310Y-79405703D01*
X198938087Y-79422872D01*
X198906437Y-79447159D01*
X198869218Y-79475718D01*
X198772963Y-79601160D01*
X198712456Y-79747237D01*
X198712455Y-79747239D01*
X198691818Y-79903998D01*
X198691818Y-79904001D01*
X198712455Y-80060760D01*
X198712456Y-80060762D01*
X198737887Y-80122159D01*
X198772964Y-80206841D01*
X198869218Y-80332282D01*
X198994659Y-80428536D01*
X199140738Y-80489044D01*
X199219119Y-80499363D01*
X199297499Y-80509682D01*
X199297500Y-80509682D01*
X199297501Y-80509682D01*
X199349754Y-80502802D01*
X199454262Y-80489044D01*
X199600341Y-80428536D01*
X199600345Y-80428532D01*
X199607381Y-80424472D01*
X199608073Y-80425672D01*
X199665180Y-80403593D01*
X199733625Y-80417630D01*
X199783616Y-80466443D01*
X199799500Y-80527163D01*
X199799500Y-123993907D01*
X199798903Y-124006061D01*
X199785335Y-124143819D01*
X199780593Y-124167661D01*
X199742186Y-124294271D01*
X199732883Y-124316728D01*
X199670517Y-124433406D01*
X199657012Y-124453618D01*
X199573079Y-124555891D01*
X199555891Y-124573079D01*
X199453618Y-124657012D01*
X199433406Y-124670517D01*
X199316728Y-124732883D01*
X199294271Y-124742186D01*
X199167661Y-124780593D01*
X199143819Y-124785335D01*
X199006062Y-124798903D01*
X198993908Y-124799500D01*
X111506092Y-124799500D01*
X111493938Y-124798903D01*
X111356180Y-124785335D01*
X111332340Y-124780593D01*
X111205728Y-124742186D01*
X111183271Y-124732883D01*
X111066593Y-124670517D01*
X111046381Y-124657012D01*
X110944108Y-124573079D01*
X110926920Y-124555891D01*
X110842986Y-124453616D01*
X110829482Y-124433406D01*
X110767116Y-124316728D01*
X110757815Y-124294277D01*
X110719404Y-124167652D01*
X110714665Y-124143824D01*
X110701097Y-124006060D01*
X110700500Y-123993907D01*
X110700500Y-121199998D01*
X129619318Y-121199998D01*
X129619318Y-121200001D01*
X129639955Y-121356760D01*
X129639956Y-121356762D01*
X129700464Y-121502841D01*
X129796718Y-121628282D01*
X129922159Y-121724536D01*
X130068238Y-121785044D01*
X130146619Y-121795363D01*
X130224999Y-121805682D01*
X130225000Y-121805682D01*
X130225001Y-121805682D01*
X130277254Y-121798802D01*
X130381762Y-121785044D01*
X130461048Y-121752202D01*
X130527548Y-121724658D01*
X130597017Y-121717189D01*
X130622452Y-121724658D01*
X130717104Y-121763863D01*
X130768238Y-121785044D01*
X130846619Y-121795363D01*
X130924999Y-121805682D01*
X130925000Y-121805682D01*
X130925001Y-121805682D01*
X130977254Y-121798802D01*
X131081762Y-121785044D01*
X131215048Y-121729834D01*
X131284516Y-121722366D01*
X131309949Y-121729833D01*
X131443238Y-121785044D01*
X131521619Y-121795363D01*
X131599999Y-121805682D01*
X131600000Y-121805682D01*
X131600001Y-121805682D01*
X131652254Y-121798802D01*
X131756762Y-121785044D01*
X131902841Y-121724536D01*
X132028282Y-121628282D01*
X132124536Y-121502841D01*
X132185044Y-121356762D01*
X132205682Y-121200000D01*
X132185044Y-121043238D01*
X132124536Y-120897159D01*
X132028282Y-120771718D01*
X131902841Y-120675464D01*
X131902546Y-120675342D01*
X131756762Y-120614956D01*
X131756760Y-120614955D01*
X131600001Y-120594318D01*
X131599999Y-120594318D01*
X131443239Y-120614955D01*
X131443234Y-120614957D01*
X131309952Y-120670164D01*
X131240483Y-120677633D01*
X131215048Y-120670164D01*
X131081765Y-120614957D01*
X131081760Y-120614955D01*
X130925001Y-120594318D01*
X130924999Y-120594318D01*
X130768239Y-120614955D01*
X130768234Y-120614957D01*
X130622452Y-120675342D01*
X130552983Y-120682811D01*
X130527548Y-120675342D01*
X130381765Y-120614957D01*
X130381760Y-120614955D01*
X130225001Y-120594318D01*
X130224999Y-120594318D01*
X130068239Y-120614955D01*
X130068237Y-120614956D01*
X129922160Y-120675463D01*
X129796718Y-120771718D01*
X129700463Y-120897160D01*
X129639956Y-121043237D01*
X129639955Y-121043239D01*
X129619318Y-121199998D01*
X110700500Y-121199998D01*
X110700500Y-119646390D01*
X137995800Y-119646390D01*
X137995800Y-120062500D01*
X138595800Y-120062500D01*
X138595800Y-120462500D01*
X137995800Y-120462500D01*
X137995800Y-120878609D01*
X138031345Y-121057305D01*
X138031348Y-121057317D01*
X138101071Y-121225645D01*
X138101078Y-121225658D01*
X138202304Y-121377152D01*
X138202307Y-121377156D01*
X138331143Y-121505992D01*
X138331147Y-121505995D01*
X138482641Y-121607221D01*
X138482654Y-121607228D01*
X138650983Y-121676951D01*
X138650995Y-121676954D01*
X138720799Y-121690839D01*
X138720800Y-121690839D01*
X138720800Y-120822118D01*
X138721246Y-120822564D01*
X138795355Y-120865351D01*
X138878013Y-120887500D01*
X138963587Y-120887500D01*
X139046245Y-120865351D01*
X139120354Y-120822564D01*
X139120800Y-120822118D01*
X139120800Y-121690839D01*
X139190604Y-121676954D01*
X139190616Y-121676951D01*
X139358945Y-121607228D01*
X139358958Y-121607221D01*
X139510452Y-121505995D01*
X139510456Y-121505992D01*
X139639292Y-121377156D01*
X139639295Y-121377152D01*
X139740521Y-121225658D01*
X139740528Y-121225645D01*
X139810251Y-121057317D01*
X139810254Y-121057305D01*
X139845799Y-120878609D01*
X139845800Y-120878606D01*
X139845800Y-120462500D01*
X139245800Y-120462500D01*
X139245800Y-120062500D01*
X139845800Y-120062500D01*
X139845800Y-119646394D01*
X139845799Y-119646390D01*
X146535800Y-119646390D01*
X146535800Y-120062500D01*
X147135800Y-120062500D01*
X147135800Y-120462500D01*
X146535800Y-120462500D01*
X146535800Y-120878609D01*
X146571345Y-121057305D01*
X146571348Y-121057317D01*
X146641071Y-121225645D01*
X146641078Y-121225658D01*
X146742304Y-121377152D01*
X146742307Y-121377156D01*
X146871143Y-121505992D01*
X146871147Y-121505995D01*
X147022641Y-121607221D01*
X147022654Y-121607228D01*
X147190983Y-121676951D01*
X147190995Y-121676954D01*
X147260799Y-121690839D01*
X147260800Y-121690839D01*
X147260800Y-120822118D01*
X147261246Y-120822564D01*
X147335355Y-120865351D01*
X147418013Y-120887500D01*
X147503587Y-120887500D01*
X147586245Y-120865351D01*
X147660354Y-120822564D01*
X147660800Y-120822118D01*
X147660800Y-121690839D01*
X147730604Y-121676954D01*
X147730616Y-121676951D01*
X147898945Y-121607228D01*
X147898958Y-121607221D01*
X148050452Y-121505995D01*
X148050456Y-121505992D01*
X148179292Y-121377156D01*
X148179295Y-121377152D01*
X148280521Y-121225658D01*
X148280528Y-121225645D01*
X148350251Y-121057317D01*
X148350254Y-121057305D01*
X148385799Y-120878609D01*
X148385800Y-120878606D01*
X148385800Y-120462500D01*
X147785800Y-120462500D01*
X147785800Y-120062500D01*
X148385800Y-120062500D01*
X148385800Y-119646394D01*
X148385799Y-119646390D01*
X148350254Y-119467694D01*
X148350251Y-119467682D01*
X148280528Y-119299354D01*
X148280521Y-119299341D01*
X148179295Y-119147847D01*
X148179292Y-119147843D01*
X148050456Y-119019007D01*
X148050452Y-119019004D01*
X147898958Y-118917778D01*
X147898945Y-118917771D01*
X147730617Y-118848048D01*
X147730607Y-118848045D01*
X147660800Y-118834159D01*
X147660800Y-119702882D01*
X147660354Y-119702436D01*
X147586245Y-119659649D01*
X147503587Y-119637500D01*
X147418013Y-119637500D01*
X147335355Y-119659649D01*
X147261246Y-119702436D01*
X147260800Y-119702882D01*
X147260800Y-118834160D01*
X147260799Y-118834159D01*
X147190992Y-118848045D01*
X147190982Y-118848048D01*
X147022654Y-118917771D01*
X147022641Y-118917778D01*
X146871147Y-119019004D01*
X146871143Y-119019007D01*
X146742307Y-119147843D01*
X146742304Y-119147847D01*
X146641078Y-119299341D01*
X146641071Y-119299354D01*
X146571348Y-119467682D01*
X146571345Y-119467694D01*
X146535800Y-119646390D01*
X139845799Y-119646390D01*
X139810254Y-119467694D01*
X139810251Y-119467682D01*
X139740528Y-119299354D01*
X139740521Y-119299341D01*
X139639295Y-119147847D01*
X139639292Y-119147843D01*
X139510456Y-119019007D01*
X139510452Y-119019004D01*
X139358958Y-118917778D01*
X139358945Y-118917771D01*
X139190617Y-118848048D01*
X139190607Y-118848045D01*
X139120800Y-118834159D01*
X139120800Y-119702882D01*
X139120354Y-119702436D01*
X139046245Y-119659649D01*
X138963587Y-119637500D01*
X138878013Y-119637500D01*
X138795355Y-119659649D01*
X138721246Y-119702436D01*
X138720800Y-119702882D01*
X138720800Y-118834160D01*
X138720799Y-118834159D01*
X138650992Y-118848045D01*
X138650982Y-118848048D01*
X138482654Y-118917771D01*
X138482641Y-118917778D01*
X138331147Y-119019004D01*
X138331143Y-119019007D01*
X138202307Y-119147843D01*
X138202304Y-119147847D01*
X138101078Y-119299341D01*
X138101071Y-119299354D01*
X138031348Y-119467682D01*
X138031345Y-119467694D01*
X137995800Y-119646390D01*
X110700500Y-119646390D01*
X110700500Y-118474998D01*
X133319318Y-118474998D01*
X133319318Y-118475001D01*
X133339955Y-118631760D01*
X133339956Y-118631762D01*
X133400464Y-118777841D01*
X133496718Y-118903282D01*
X133622159Y-118999536D01*
X133768238Y-119060044D01*
X133846619Y-119070363D01*
X133924999Y-119080682D01*
X133925000Y-119080682D01*
X133925001Y-119080682D01*
X133977254Y-119073802D01*
X134081762Y-119060044D01*
X134227841Y-118999536D01*
X134353282Y-118903282D01*
X134449536Y-118777841D01*
X134510044Y-118631762D01*
X134530682Y-118475000D01*
X134510044Y-118318238D01*
X134449536Y-118172159D01*
X134368058Y-118065974D01*
X134342865Y-118000807D01*
X134356903Y-117932363D01*
X134373528Y-117909878D01*
X134373334Y-117909729D01*
X134378279Y-117903284D01*
X134378282Y-117903282D01*
X134474536Y-117777841D01*
X134535044Y-117631762D01*
X134555682Y-117475000D01*
X134535044Y-117318238D01*
X134474536Y-117172159D01*
X134378282Y-117046718D01*
X134252841Y-116950464D01*
X134244367Y-116946954D01*
X134106762Y-116889956D01*
X134106760Y-116889955D01*
X133950001Y-116869318D01*
X133949999Y-116869318D01*
X133793239Y-116889955D01*
X133793237Y-116889956D01*
X133647160Y-116950463D01*
X133521718Y-117046718D01*
X133425463Y-117172160D01*
X133364956Y-117318237D01*
X133364955Y-117318239D01*
X133344318Y-117474998D01*
X133344318Y-117475001D01*
X133364955Y-117631760D01*
X133364956Y-117631762D01*
X133425464Y-117777842D01*
X133506940Y-117884023D01*
X133532134Y-117949192D01*
X133518096Y-118017637D01*
X133501472Y-118040122D01*
X133501666Y-118040271D01*
X133496720Y-118046716D01*
X133496718Y-118046718D01*
X133418728Y-118148356D01*
X133400463Y-118172160D01*
X133339956Y-118318237D01*
X133339955Y-118318239D01*
X133319318Y-118474998D01*
X110700500Y-118474998D01*
X110700500Y-114192498D01*
X122544318Y-114192498D01*
X122544318Y-114192501D01*
X122564955Y-114349260D01*
X122564956Y-114349262D01*
X122617037Y-114474998D01*
X122625464Y-114495341D01*
X122721718Y-114620782D01*
X122847159Y-114717036D01*
X122993238Y-114777544D01*
X123052523Y-114785349D01*
X123149999Y-114798182D01*
X123150000Y-114798182D01*
X123150001Y-114798182D01*
X123234351Y-114787077D01*
X123306762Y-114777544D01*
X123452841Y-114717036D01*
X123578282Y-114620782D01*
X123674536Y-114495341D01*
X123735044Y-114349262D01*
X123752757Y-114214721D01*
X123755682Y-114192501D01*
X123755682Y-114192498D01*
X123746795Y-114124998D01*
X124394318Y-114124998D01*
X124394318Y-114125001D01*
X124414955Y-114281760D01*
X124414956Y-114281762D01*
X124474058Y-114424448D01*
X124475464Y-114427841D01*
X124571718Y-114553282D01*
X124697159Y-114649536D01*
X124843238Y-114710044D01*
X124896348Y-114717036D01*
X124999999Y-114730682D01*
X125000000Y-114730682D01*
X125000001Y-114730682D01*
X125052254Y-114723802D01*
X125156762Y-114710044D01*
X125302841Y-114649536D01*
X125387626Y-114584478D01*
X125452793Y-114559284D01*
X125521238Y-114573322D01*
X125561484Y-114607365D01*
X125596718Y-114653282D01*
X125722159Y-114749536D01*
X125868238Y-114810044D01*
X125946619Y-114820363D01*
X126024999Y-114830682D01*
X126025000Y-114830682D01*
X126025001Y-114830682D01*
X126077254Y-114823802D01*
X126181762Y-114810044D01*
X126327841Y-114749536D01*
X126453282Y-114653282D01*
X126453286Y-114653276D01*
X126453288Y-114653275D01*
X126459034Y-114647531D01*
X126460261Y-114648758D01*
X126508699Y-114613378D01*
X126578444Y-114609211D01*
X126626149Y-114631682D01*
X126747159Y-114724536D01*
X126893238Y-114785044D01*
X127050000Y-114805682D01*
X127089167Y-114800525D01*
X127158199Y-114811290D01*
X127210456Y-114857669D01*
X127229342Y-114924937D01*
X127219912Y-114970916D01*
X127189957Y-115043234D01*
X127189955Y-115043239D01*
X127169318Y-115199998D01*
X127169318Y-115200001D01*
X127189955Y-115356760D01*
X127189956Y-115356762D01*
X127250464Y-115502841D01*
X127346718Y-115628282D01*
X127472159Y-115724536D01*
X127618238Y-115785044D01*
X127696619Y-115795363D01*
X127774999Y-115805682D01*
X127775000Y-115805682D01*
X127775001Y-115805682D01*
X127827254Y-115798802D01*
X127931762Y-115785044D01*
X128077841Y-115724536D01*
X128203282Y-115628282D01*
X128299536Y-115502841D01*
X128352490Y-115374998D01*
X131919318Y-115374998D01*
X131919318Y-115375001D01*
X131939955Y-115531760D01*
X131939956Y-115531762D01*
X131979935Y-115628281D01*
X132000464Y-115677841D01*
X132096718Y-115803282D01*
X132222159Y-115899536D01*
X132368238Y-115960044D01*
X132446619Y-115970363D01*
X132524999Y-115980682D01*
X132525000Y-115980682D01*
X132525001Y-115980682D01*
X132577254Y-115973802D01*
X132681762Y-115960044D01*
X132827841Y-115899536D01*
X132953282Y-115803282D01*
X133049536Y-115677841D01*
X133110044Y-115531762D01*
X133130682Y-115375000D01*
X133110044Y-115218238D01*
X133059923Y-115097237D01*
X133052455Y-115027771D01*
X133083730Y-114965292D01*
X133127033Y-114935226D01*
X133138230Y-114930588D01*
X133152841Y-114924536D01*
X133163457Y-114916390D01*
X137995800Y-114916390D01*
X137995800Y-115332500D01*
X138595800Y-115332500D01*
X138595800Y-115732500D01*
X137995800Y-115732500D01*
X137995800Y-116148609D01*
X138031345Y-116327305D01*
X138031348Y-116327317D01*
X138101071Y-116495645D01*
X138101078Y-116495658D01*
X138202304Y-116647152D01*
X138202307Y-116647156D01*
X138331143Y-116775992D01*
X138331147Y-116775995D01*
X138482641Y-116877221D01*
X138482654Y-116877228D01*
X138650983Y-116946951D01*
X138650995Y-116946954D01*
X138720799Y-116960839D01*
X138720800Y-116960839D01*
X138720800Y-116092118D01*
X138721246Y-116092564D01*
X138795355Y-116135351D01*
X138878013Y-116157500D01*
X138963587Y-116157500D01*
X139046245Y-116135351D01*
X139120354Y-116092564D01*
X139120800Y-116092118D01*
X139120800Y-116960839D01*
X139190604Y-116946954D01*
X139190616Y-116946951D01*
X139358945Y-116877228D01*
X139358958Y-116877221D01*
X139510452Y-116775995D01*
X139510456Y-116775992D01*
X139639292Y-116647156D01*
X139639295Y-116647152D01*
X139740521Y-116495658D01*
X139740528Y-116495645D01*
X139810251Y-116327317D01*
X139810254Y-116327305D01*
X139845799Y-116148609D01*
X139845800Y-116148606D01*
X139845800Y-115732500D01*
X139245800Y-115732500D01*
X139245800Y-115332500D01*
X139845800Y-115332500D01*
X139845800Y-115120655D01*
X139865485Y-115053616D01*
X139918289Y-115007861D01*
X139987447Y-114997917D01*
X140035773Y-115015662D01*
X140056392Y-115028618D01*
X140102683Y-115080953D01*
X140113515Y-115118664D01*
X140130111Y-115255342D01*
X140130112Y-115255345D01*
X140188282Y-115408726D01*
X140281468Y-115543729D01*
X140281470Y-115543731D01*
X140281472Y-115543733D01*
X140404251Y-115652506D01*
X140404252Y-115652506D01*
X140404254Y-115652508D01*
X140549505Y-115728742D01*
X140549507Y-115728742D01*
X140549508Y-115728743D01*
X140708778Y-115768000D01*
X140708779Y-115768000D01*
X140872822Y-115768000D01*
X141016848Y-115732500D01*
X141032095Y-115728742D01*
X141133175Y-115675690D01*
X141201682Y-115661965D01*
X141248424Y-115675690D01*
X141252522Y-115677841D01*
X141349505Y-115728742D01*
X141508778Y-115768000D01*
X141508779Y-115768000D01*
X141672822Y-115768000D01*
X141816848Y-115732500D01*
X141832095Y-115728742D01*
X141933175Y-115675690D01*
X142001682Y-115661965D01*
X142048424Y-115675690D01*
X142052522Y-115677841D01*
X142149505Y-115728742D01*
X142308778Y-115768000D01*
X142308779Y-115768000D01*
X142472822Y-115768000D01*
X142632091Y-115728743D01*
X142632091Y-115728742D01*
X142632095Y-115728742D01*
X142777346Y-115652508D01*
X142900132Y-115543729D01*
X142993318Y-115408726D01*
X143051488Y-115255345D01*
X143067704Y-115121793D01*
X143095326Y-115057616D01*
X143153260Y-115018559D01*
X143223113Y-115017024D01*
X143282706Y-115053498D01*
X143313121Y-115116401D01*
X143313896Y-115121794D01*
X143330111Y-115255342D01*
X143330112Y-115255345D01*
X143388282Y-115408726D01*
X143481468Y-115543729D01*
X143481470Y-115543731D01*
X143481472Y-115543733D01*
X143604251Y-115652506D01*
X143604252Y-115652506D01*
X143604254Y-115652508D01*
X143749505Y-115728742D01*
X143749507Y-115728742D01*
X143749508Y-115728743D01*
X143908778Y-115768000D01*
X143908779Y-115768000D01*
X144072822Y-115768000D01*
X144216848Y-115732500D01*
X144232095Y-115728742D01*
X144333175Y-115675690D01*
X144401682Y-115661965D01*
X144448424Y-115675690D01*
X144452522Y-115677841D01*
X144549505Y-115728742D01*
X144708778Y-115768000D01*
X144708779Y-115768000D01*
X144872822Y-115768000D01*
X145016848Y-115732500D01*
X145032095Y-115728742D01*
X145133175Y-115675690D01*
X145201682Y-115661965D01*
X145248424Y-115675690D01*
X145252522Y-115677841D01*
X145349505Y-115728742D01*
X145508778Y-115768000D01*
X145508779Y-115768000D01*
X145672822Y-115768000D01*
X145832091Y-115728743D01*
X145832091Y-115728742D01*
X145832095Y-115728742D01*
X145977346Y-115652508D01*
X146100132Y-115543729D01*
X146193318Y-115408726D01*
X146251488Y-115255345D01*
X146268084Y-115118661D01*
X146295704Y-115054487D01*
X146325211Y-115028615D01*
X146345832Y-115015659D01*
X146413069Y-114996661D01*
X146479904Y-115017031D01*
X146525116Y-115070301D01*
X146535800Y-115120655D01*
X146535800Y-115332500D01*
X147135800Y-115332500D01*
X147135800Y-115732500D01*
X146535800Y-115732500D01*
X146535800Y-116148609D01*
X146571345Y-116327305D01*
X146571348Y-116327317D01*
X146641071Y-116495645D01*
X146641078Y-116495658D01*
X146742304Y-116647152D01*
X146742307Y-116647156D01*
X146871143Y-116775992D01*
X146871147Y-116775995D01*
X147022641Y-116877221D01*
X147022654Y-116877228D01*
X147190983Y-116946951D01*
X147190995Y-116946954D01*
X147260799Y-116960839D01*
X147260800Y-116960839D01*
X147260800Y-116092118D01*
X147261246Y-116092564D01*
X147335355Y-116135351D01*
X147418013Y-116157500D01*
X147503587Y-116157500D01*
X147586245Y-116135351D01*
X147660354Y-116092564D01*
X147660800Y-116092118D01*
X147660800Y-116960839D01*
X147730604Y-116946954D01*
X147730616Y-116946951D01*
X147898945Y-116877228D01*
X147898958Y-116877221D01*
X148050452Y-116775995D01*
X148050456Y-116775992D01*
X148179292Y-116647156D01*
X148179295Y-116647152D01*
X148280521Y-116495658D01*
X148280528Y-116495645D01*
X148350251Y-116327317D01*
X148350254Y-116327305D01*
X148385799Y-116148609D01*
X148385800Y-116148606D01*
X148385800Y-115732500D01*
X147785800Y-115732500D01*
X147785800Y-115332500D01*
X148385800Y-115332500D01*
X148385800Y-114916394D01*
X148385799Y-114916390D01*
X148350254Y-114737694D01*
X148350251Y-114737682D01*
X148280528Y-114569354D01*
X148280521Y-114569341D01*
X148179295Y-114417847D01*
X148179292Y-114417843D01*
X148050456Y-114289007D01*
X148050452Y-114289004D01*
X147898958Y-114187778D01*
X147898945Y-114187771D01*
X147730617Y-114118048D01*
X147730607Y-114118045D01*
X147660800Y-114104159D01*
X147660800Y-114972882D01*
X147660354Y-114972436D01*
X147586245Y-114929649D01*
X147503587Y-114907500D01*
X147418013Y-114907500D01*
X147335355Y-114929649D01*
X147261246Y-114972436D01*
X147260800Y-114972882D01*
X147260800Y-114104160D01*
X147260799Y-114104159D01*
X147190992Y-114118045D01*
X147190982Y-114118048D01*
X147022654Y-114187771D01*
X147022636Y-114187781D01*
X146886728Y-114278592D01*
X146820051Y-114299470D01*
X146752671Y-114280985D01*
X146705981Y-114229006D01*
X146700796Y-114216444D01*
X146648133Y-114065941D01*
X146648133Y-114065940D01*
X146625777Y-114030363D01*
X146219901Y-114436239D01*
X146209792Y-114441758D01*
X146215800Y-114427255D01*
X146215800Y-114337745D01*
X146181546Y-114255048D01*
X146118252Y-114191754D01*
X146035555Y-114157500D01*
X145946045Y-114157500D01*
X145930205Y-114164060D01*
X145937059Y-114153397D01*
X146342934Y-113747521D01*
X146342935Y-113747521D01*
X146307353Y-113725164D01*
X146153150Y-113671205D01*
X146153139Y-113671203D01*
X145990804Y-113652913D01*
X145990796Y-113652913D01*
X145828460Y-113671203D01*
X145828454Y-113671204D01*
X145674247Y-113725163D01*
X145674242Y-113725165D01*
X145656770Y-113736144D01*
X145589533Y-113755143D01*
X145524830Y-113736144D01*
X145507357Y-113725165D01*
X145507352Y-113725163D01*
X145353145Y-113671204D01*
X145353139Y-113671203D01*
X145190804Y-113652913D01*
X145190796Y-113652913D01*
X145028460Y-113671203D01*
X145028454Y-113671204D01*
X144874247Y-113725163D01*
X144874242Y-113725165D01*
X144806159Y-113767944D01*
X144738922Y-113786943D01*
X144682564Y-113772746D01*
X144632094Y-113746257D01*
X144472822Y-113707000D01*
X144472821Y-113707000D01*
X144308779Y-113707000D01*
X144308778Y-113707000D01*
X144221975Y-113728395D01*
X144152173Y-113725326D01*
X144095111Y-113685006D01*
X144068905Y-113620237D01*
X144068300Y-113607998D01*
X144068300Y-112777450D01*
X144087985Y-112710411D01*
X144140789Y-112664656D01*
X144209947Y-112654712D01*
X144239747Y-112662887D01*
X144293238Y-112685044D01*
X144371619Y-112695363D01*
X144449999Y-112705682D01*
X144450000Y-112705682D01*
X144450001Y-112705682D01*
X144502254Y-112698802D01*
X144606762Y-112685044D01*
X144752841Y-112624536D01*
X144878282Y-112528282D01*
X144974536Y-112402841D01*
X145017135Y-112299998D01*
X151719318Y-112299998D01*
X151719318Y-112300001D01*
X151739955Y-112456760D01*
X151739956Y-112456762D01*
X151786130Y-112568237D01*
X151800464Y-112602841D01*
X151896718Y-112728282D01*
X152022159Y-112824536D01*
X152168238Y-112885044D01*
X152246619Y-112895363D01*
X152324999Y-112905682D01*
X152325000Y-112905682D01*
X152325001Y-112905682D01*
X152377254Y-112898802D01*
X152481762Y-112885044D01*
X152627841Y-112824536D01*
X152753282Y-112728282D01*
X152849536Y-112602841D01*
X152910044Y-112456762D01*
X152930682Y-112300000D01*
X152930682Y-112299998D01*
X156819318Y-112299998D01*
X156819318Y-112300001D01*
X156839955Y-112456760D01*
X156839956Y-112456762D01*
X156886130Y-112568237D01*
X156900464Y-112602841D01*
X156996718Y-112728282D01*
X157122159Y-112824536D01*
X157268238Y-112885044D01*
X157346619Y-112895363D01*
X157424999Y-112905682D01*
X157425000Y-112905682D01*
X157425001Y-112905682D01*
X157477254Y-112898802D01*
X157581762Y-112885044D01*
X157727841Y-112824536D01*
X157853282Y-112728282D01*
X157949536Y-112602841D01*
X157981780Y-112524998D01*
X165819318Y-112524998D01*
X165819318Y-112525001D01*
X165839955Y-112681760D01*
X165839956Y-112681762D01*
X165900464Y-112827841D01*
X165996718Y-112953282D01*
X166122159Y-113049536D01*
X166268238Y-113110044D01*
X166346619Y-113120363D01*
X166424999Y-113130682D01*
X166425000Y-113130682D01*
X166425001Y-113130682D01*
X166477254Y-113123802D01*
X166581762Y-113110044D01*
X166727841Y-113049536D01*
X166853282Y-112953282D01*
X166949536Y-112827841D01*
X166992135Y-112724998D01*
X188244318Y-112724998D01*
X188244318Y-112725001D01*
X188264955Y-112881760D01*
X188264956Y-112881762D01*
X188325464Y-113027841D01*
X188421718Y-113153282D01*
X188547159Y-113249536D01*
X188693238Y-113310044D01*
X188771619Y-113320363D01*
X188849999Y-113330682D01*
X188850000Y-113330682D01*
X188850001Y-113330682D01*
X188902254Y-113323802D01*
X189006762Y-113310044D01*
X189152841Y-113249536D01*
X189278282Y-113153282D01*
X189374536Y-113027841D01*
X189435044Y-112881762D01*
X189455682Y-112725000D01*
X189453761Y-112710411D01*
X189439599Y-112602839D01*
X189435044Y-112568238D01*
X189374536Y-112422159D01*
X189278282Y-112296718D01*
X189152841Y-112200464D01*
X189006762Y-112139956D01*
X189006760Y-112139955D01*
X188850001Y-112119318D01*
X188849999Y-112119318D01*
X188693239Y-112139955D01*
X188693237Y-112139956D01*
X188547160Y-112200463D01*
X188421718Y-112296718D01*
X188325463Y-112422160D01*
X188264956Y-112568237D01*
X188264955Y-112568239D01*
X188244318Y-112724998D01*
X166992135Y-112724998D01*
X167010044Y-112681762D01*
X167030682Y-112525000D01*
X167010044Y-112368238D01*
X166949536Y-112222159D01*
X166853282Y-112096718D01*
X166727841Y-112000464D01*
X166726723Y-112000001D01*
X166581762Y-111939956D01*
X166581760Y-111939955D01*
X166425001Y-111919318D01*
X166424999Y-111919318D01*
X166268239Y-111939955D01*
X166268237Y-111939956D01*
X166122160Y-112000463D01*
X165996718Y-112096718D01*
X165900463Y-112222160D01*
X165839956Y-112368237D01*
X165839955Y-112368239D01*
X165819318Y-112524998D01*
X157981780Y-112524998D01*
X158010044Y-112456762D01*
X158030682Y-112300000D01*
X158024989Y-112256760D01*
X158010044Y-112143239D01*
X158010044Y-112143238D01*
X157949536Y-111997159D01*
X157853282Y-111871718D01*
X157727841Y-111775464D01*
X157720545Y-111772442D01*
X157581762Y-111714956D01*
X157581760Y-111714955D01*
X157425001Y-111694318D01*
X157424999Y-111694318D01*
X157268239Y-111714955D01*
X157268237Y-111714956D01*
X157122160Y-111775463D01*
X156996718Y-111871718D01*
X156900463Y-111997160D01*
X156839956Y-112143237D01*
X156839955Y-112143239D01*
X156819318Y-112299998D01*
X152930682Y-112299998D01*
X152924989Y-112256760D01*
X152910044Y-112143239D01*
X152910044Y-112143238D01*
X152849536Y-111997159D01*
X152753282Y-111871718D01*
X152627841Y-111775464D01*
X152620545Y-111772442D01*
X152481762Y-111714956D01*
X152481760Y-111714955D01*
X152325001Y-111694318D01*
X152324999Y-111694318D01*
X152168239Y-111714955D01*
X152168237Y-111714956D01*
X152022160Y-111775463D01*
X151896718Y-111871718D01*
X151800463Y-111997160D01*
X151739956Y-112143237D01*
X151739955Y-112143239D01*
X151719318Y-112299998D01*
X145017135Y-112299998D01*
X145035044Y-112256762D01*
X145055682Y-112100000D01*
X145049473Y-112052841D01*
X145035044Y-111943239D01*
X145035044Y-111943238D01*
X144974536Y-111797159D01*
X144878282Y-111671718D01*
X144752841Y-111575464D01*
X144743797Y-111571718D01*
X144606762Y-111514956D01*
X144606760Y-111514955D01*
X144450001Y-111494318D01*
X144449999Y-111494318D01*
X144293239Y-111514955D01*
X144293237Y-111514956D01*
X144147160Y-111575463D01*
X144021715Y-111671720D01*
X143953785Y-111760248D01*
X143897357Y-111801451D01*
X143827611Y-111805605D01*
X143767729Y-111772442D01*
X143527557Y-111532270D01*
X143494072Y-111470947D01*
X143499056Y-111401255D01*
X143539752Y-111346213D01*
X143628282Y-111278282D01*
X143724536Y-111152841D01*
X143785044Y-111006762D01*
X143789226Y-110974998D01*
X149994318Y-110974998D01*
X149994318Y-110975001D01*
X150014955Y-111131760D01*
X150014956Y-111131762D01*
X150075464Y-111277841D01*
X150171718Y-111403282D01*
X150297159Y-111499536D01*
X150443238Y-111560044D01*
X150521619Y-111570363D01*
X150599999Y-111580682D01*
X150600000Y-111580682D01*
X150600001Y-111580682D01*
X150652254Y-111573802D01*
X150756762Y-111560044D01*
X150902841Y-111499536D01*
X151028282Y-111403282D01*
X151124536Y-111277841D01*
X151185044Y-111131762D01*
X151198802Y-111027254D01*
X151205682Y-110975001D01*
X151205682Y-110974998D01*
X151189226Y-110850001D01*
X151185044Y-110818238D01*
X151124536Y-110672159D01*
X151028282Y-110546718D01*
X150902841Y-110450464D01*
X150756762Y-110389956D01*
X150756760Y-110389955D01*
X150600001Y-110369318D01*
X150599999Y-110369318D01*
X150443239Y-110389955D01*
X150443237Y-110389956D01*
X150297160Y-110450463D01*
X150171718Y-110546718D01*
X150075463Y-110672160D01*
X150014956Y-110818237D01*
X150014955Y-110818239D01*
X149994318Y-110974998D01*
X143789226Y-110974998D01*
X143805682Y-110850000D01*
X143804926Y-110844260D01*
X143785044Y-110693239D01*
X143785044Y-110693238D01*
X143724536Y-110547159D01*
X143628282Y-110421718D01*
X143502841Y-110325464D01*
X143501723Y-110325001D01*
X143356762Y-110264956D01*
X143356760Y-110264955D01*
X143200001Y-110244318D01*
X143199999Y-110244318D01*
X143043239Y-110264955D01*
X143043237Y-110264956D01*
X142897160Y-110325463D01*
X142771715Y-110421720D01*
X142703785Y-110510248D01*
X142647357Y-110551451D01*
X142577611Y-110555605D01*
X142517729Y-110522442D01*
X142068127Y-110072840D01*
X142034642Y-110011517D01*
X142035752Y-109965052D01*
X142033983Y-109964820D01*
X142055682Y-109800001D01*
X142055682Y-109799998D01*
X144444318Y-109799998D01*
X144444318Y-109800001D01*
X144464955Y-109956760D01*
X144464956Y-109956762D01*
X144525304Y-110102456D01*
X144525464Y-110102841D01*
X144621718Y-110228282D01*
X144747159Y-110324536D01*
X144893238Y-110385044D01*
X144930541Y-110389955D01*
X145049999Y-110405682D01*
X145050000Y-110405682D01*
X145050001Y-110405682D01*
X145102254Y-110398802D01*
X145206762Y-110385044D01*
X145351726Y-110324998D01*
X151619318Y-110324998D01*
X151619318Y-110325001D01*
X151639955Y-110481760D01*
X151639956Y-110481762D01*
X151660242Y-110530738D01*
X151700464Y-110627841D01*
X151796718Y-110753282D01*
X151922159Y-110849536D01*
X152068238Y-110910044D01*
X152146619Y-110920363D01*
X152224999Y-110930682D01*
X152225000Y-110930682D01*
X152225001Y-110930682D01*
X152277254Y-110923802D01*
X152381762Y-110910044D01*
X152527841Y-110849536D01*
X152653282Y-110753282D01*
X152703760Y-110687498D01*
X165894318Y-110687498D01*
X165894318Y-110687501D01*
X165914955Y-110844260D01*
X165914956Y-110844262D01*
X165969109Y-110975000D01*
X165975464Y-110990341D01*
X166071718Y-111115782D01*
X166197159Y-111212036D01*
X166343238Y-111272544D01*
X166421619Y-111282863D01*
X166499999Y-111293182D01*
X166500000Y-111293182D01*
X166500001Y-111293182D01*
X166552254Y-111286302D01*
X166656762Y-111272544D01*
X166802841Y-111212036D01*
X166928282Y-111115782D01*
X167024536Y-110990341D01*
X167085044Y-110844262D01*
X167098802Y-110739754D01*
X167105682Y-110687501D01*
X167105682Y-110687498D01*
X167085044Y-110530739D01*
X167085044Y-110530738D01*
X167024536Y-110384659D01*
X166928282Y-110259218D01*
X166802841Y-110162964D01*
X166656762Y-110102456D01*
X166656760Y-110102455D01*
X166500001Y-110081818D01*
X166499999Y-110081818D01*
X166343239Y-110102455D01*
X166343237Y-110102456D01*
X166197160Y-110162963D01*
X166071718Y-110259218D01*
X165975463Y-110384660D01*
X165914956Y-110530737D01*
X165914955Y-110530739D01*
X165894318Y-110687498D01*
X152703760Y-110687498D01*
X152749536Y-110627841D01*
X152810044Y-110481762D01*
X152830682Y-110325000D01*
X152829274Y-110314308D01*
X152810044Y-110168239D01*
X152810044Y-110168238D01*
X152749536Y-110022159D01*
X152653282Y-109896718D01*
X152527841Y-109800464D01*
X152526723Y-109800001D01*
X152381762Y-109739956D01*
X152381760Y-109739955D01*
X152225001Y-109719318D01*
X152224999Y-109719318D01*
X152068239Y-109739955D01*
X152068237Y-109739956D01*
X151922160Y-109800463D01*
X151796718Y-109896718D01*
X151700463Y-110022160D01*
X151639956Y-110168237D01*
X151639955Y-110168239D01*
X151619318Y-110324998D01*
X145351726Y-110324998D01*
X145352841Y-110324536D01*
X145478282Y-110228282D01*
X145574536Y-110102841D01*
X145635044Y-109956762D01*
X145655682Y-109800000D01*
X145635044Y-109643238D01*
X145574536Y-109497159D01*
X145478282Y-109371718D01*
X145352841Y-109275464D01*
X145269111Y-109240782D01*
X145206762Y-109214956D01*
X145206760Y-109214955D01*
X145050001Y-109194318D01*
X145049999Y-109194318D01*
X144893239Y-109214955D01*
X144893237Y-109214956D01*
X144747160Y-109275463D01*
X144621718Y-109371718D01*
X144525463Y-109497160D01*
X144464956Y-109643237D01*
X144464955Y-109643239D01*
X144444318Y-109799998D01*
X142055682Y-109799998D01*
X142035044Y-109643239D01*
X142035044Y-109643238D01*
X141974536Y-109497159D01*
X141878282Y-109371718D01*
X141752841Y-109275464D01*
X141669111Y-109240782D01*
X141606762Y-109214956D01*
X141606760Y-109214955D01*
X141450001Y-109194318D01*
X141449999Y-109194318D01*
X141293239Y-109214955D01*
X141293237Y-109214956D01*
X141147160Y-109275463D01*
X141021718Y-109371718D01*
X140925463Y-109497160D01*
X140864956Y-109643237D01*
X140864955Y-109643239D01*
X140844318Y-109799998D01*
X140844318Y-109800001D01*
X140864955Y-109956760D01*
X140864957Y-109956765D01*
X140925461Y-110102836D01*
X140925461Y-110102837D01*
X140925463Y-110102839D01*
X140925464Y-110102841D01*
X140947709Y-110131832D01*
X140969804Y-110185171D01*
X140970397Y-110185013D01*
X140971603Y-110189516D01*
X140972272Y-110191130D01*
X140972499Y-110192861D01*
X141005041Y-110314309D01*
X141005042Y-110314310D01*
X141067902Y-110423188D01*
X141067906Y-110423193D01*
X141827606Y-111182893D01*
X141861091Y-111244216D01*
X141856107Y-111313908D01*
X141814235Y-111369841D01*
X141756111Y-111393513D01*
X141593238Y-111414956D01*
X141593237Y-111414956D01*
X141447160Y-111475463D01*
X141321718Y-111571718D01*
X141225463Y-111697160D01*
X141164956Y-111843237D01*
X141164955Y-111843239D01*
X141144318Y-111999998D01*
X141144318Y-112000001D01*
X141164955Y-112156760D01*
X141164956Y-112156762D01*
X141224287Y-112300001D01*
X141225464Y-112302841D01*
X141321718Y-112428282D01*
X141447159Y-112524536D01*
X141593238Y-112585044D01*
X141671619Y-112595363D01*
X141749999Y-112605682D01*
X141750000Y-112605682D01*
X141750001Y-112605682D01*
X141802254Y-112598802D01*
X141906762Y-112585044D01*
X142052841Y-112524536D01*
X142178282Y-112428282D01*
X142274536Y-112302841D01*
X142335044Y-112156762D01*
X142355682Y-112000000D01*
X142355681Y-111999998D01*
X142356486Y-111993889D01*
X142384752Y-111929992D01*
X142443077Y-111891521D01*
X142512941Y-111890689D01*
X142567106Y-111922393D01*
X143076981Y-112432268D01*
X143110466Y-112493591D01*
X143113300Y-112519949D01*
X143113300Y-113607998D01*
X143093615Y-113675037D01*
X143040811Y-113720792D01*
X142971653Y-113730736D01*
X142959625Y-113728395D01*
X142872822Y-113707000D01*
X142872821Y-113707000D01*
X142708779Y-113707000D01*
X142708778Y-113707000D01*
X142549507Y-113746257D01*
X142549505Y-113746257D01*
X142549505Y-113746258D01*
X142547099Y-113747521D01*
X142448425Y-113799309D01*
X142379917Y-113813033D01*
X142333175Y-113799309D01*
X142308712Y-113786470D01*
X142232095Y-113746258D01*
X142232092Y-113746257D01*
X142072822Y-113707000D01*
X142072821Y-113707000D01*
X141908779Y-113707000D01*
X141908778Y-113707000D01*
X141749505Y-113746257D01*
X141749504Y-113746258D01*
X141699034Y-113772746D01*
X141630525Y-113786470D01*
X141575438Y-113767943D01*
X141507356Y-113725164D01*
X141353145Y-113671204D01*
X141353139Y-113671203D01*
X141190804Y-113652913D01*
X141190796Y-113652913D01*
X141028460Y-113671203D01*
X141028454Y-113671204D01*
X140874247Y-113725163D01*
X140874242Y-113725165D01*
X140856770Y-113736144D01*
X140789533Y-113755143D01*
X140724830Y-113736144D01*
X140707357Y-113725165D01*
X140707352Y-113725163D01*
X140553145Y-113671204D01*
X140553139Y-113671203D01*
X140390804Y-113652913D01*
X140390796Y-113652913D01*
X140228460Y-113671203D01*
X140228455Y-113671204D01*
X140074242Y-113725165D01*
X140038663Y-113747520D01*
X140038663Y-113747521D01*
X140444540Y-114153398D01*
X140450060Y-114163508D01*
X140435555Y-114157500D01*
X140346045Y-114157500D01*
X140263348Y-114191754D01*
X140200054Y-114255048D01*
X140165800Y-114337745D01*
X140165800Y-114427255D01*
X140172359Y-114443092D01*
X140161698Y-114436240D01*
X139755821Y-114030363D01*
X139755820Y-114030363D01*
X139733463Y-114065945D01*
X139680801Y-114216445D01*
X139640079Y-114273221D01*
X139575127Y-114298968D01*
X139506565Y-114285512D01*
X139494869Y-114278592D01*
X139358958Y-114187778D01*
X139358945Y-114187771D01*
X139190617Y-114118048D01*
X139190607Y-114118045D01*
X139120800Y-114104159D01*
X139120800Y-114972882D01*
X139120354Y-114972436D01*
X139046245Y-114929649D01*
X138963587Y-114907500D01*
X138878013Y-114907500D01*
X138795355Y-114929649D01*
X138721246Y-114972436D01*
X138720800Y-114972882D01*
X138720800Y-114104160D01*
X138720799Y-114104159D01*
X138650992Y-114118045D01*
X138650982Y-114118048D01*
X138482654Y-114187771D01*
X138482641Y-114187778D01*
X138331147Y-114289004D01*
X138331143Y-114289007D01*
X138202307Y-114417843D01*
X138202304Y-114417847D01*
X138101078Y-114569341D01*
X138101071Y-114569354D01*
X138031348Y-114737682D01*
X138031345Y-114737694D01*
X137995800Y-114916390D01*
X133163457Y-114916390D01*
X133278282Y-114828282D01*
X133374536Y-114702841D01*
X133435044Y-114556762D01*
X133455682Y-114400000D01*
X133435044Y-114243238D01*
X133374536Y-114097159D01*
X133278282Y-113971718D01*
X133152841Y-113875464D01*
X133138003Y-113869318D01*
X133006762Y-113814956D01*
X133006760Y-113814955D01*
X132850001Y-113794318D01*
X132849999Y-113794318D01*
X132693239Y-113814955D01*
X132693237Y-113814956D01*
X132547160Y-113875463D01*
X132421718Y-113971718D01*
X132325463Y-114097160D01*
X132264956Y-114243237D01*
X132264955Y-114243239D01*
X132243257Y-114408058D01*
X132240797Y-114407734D01*
X132235889Y-114424448D01*
X132248659Y-114444318D01*
X132252621Y-114463068D01*
X132264955Y-114556760D01*
X132264956Y-114556762D01*
X132303384Y-114649536D01*
X132315075Y-114677759D01*
X132322544Y-114747229D01*
X132291269Y-114809708D01*
X132247970Y-114839772D01*
X132222157Y-114850464D01*
X132107100Y-114938751D01*
X132041931Y-114963945D01*
X132003130Y-114955986D01*
X132017166Y-115016997D01*
X132002944Y-115064390D01*
X132003574Y-115064651D01*
X132001007Y-115070847D01*
X132000777Y-115071615D01*
X132000466Y-115072152D01*
X131939956Y-115218237D01*
X131939955Y-115218239D01*
X131919318Y-115374998D01*
X128352490Y-115374998D01*
X128360044Y-115356762D01*
X128380682Y-115200000D01*
X128360044Y-115043238D01*
X128299536Y-114897159D01*
X128203282Y-114771718D01*
X128077841Y-114675464D01*
X128015245Y-114649536D01*
X127931762Y-114614956D01*
X127931760Y-114614955D01*
X127775001Y-114594318D01*
X127774999Y-114594318D01*
X127735833Y-114599474D01*
X127666797Y-114588708D01*
X127614542Y-114542328D01*
X127595657Y-114475059D01*
X127595670Y-114474998D01*
X130794318Y-114474998D01*
X130794318Y-114475001D01*
X130814955Y-114631760D01*
X130814956Y-114631762D01*
X130875340Y-114777543D01*
X130875464Y-114777841D01*
X130971718Y-114903282D01*
X131097159Y-114999536D01*
X131243238Y-115060044D01*
X131278232Y-115064651D01*
X131399999Y-115080682D01*
X131400000Y-115080682D01*
X131400001Y-115080682D01*
X131468871Y-115071615D01*
X131556762Y-115060044D01*
X131702841Y-114999536D01*
X131817900Y-114911248D01*
X131883067Y-114886054D01*
X131921867Y-114894011D01*
X131907833Y-114833001D01*
X131922056Y-114785610D01*
X131921426Y-114785349D01*
X131924001Y-114779129D01*
X131924231Y-114778367D01*
X131924525Y-114777854D01*
X131924536Y-114777841D01*
X131985044Y-114631762D01*
X132005682Y-114475000D01*
X132005682Y-114474998D01*
X132006743Y-114466942D01*
X132009201Y-114467265D01*
X132014110Y-114450550D01*
X132001341Y-114430681D01*
X131997379Y-114411932D01*
X131993504Y-114382500D01*
X131985044Y-114318238D01*
X131924536Y-114172159D01*
X131828282Y-114046718D01*
X131702841Y-113950464D01*
X131556762Y-113889956D01*
X131556760Y-113889955D01*
X131400001Y-113869318D01*
X131399999Y-113869318D01*
X131243239Y-113889955D01*
X131243237Y-113889956D01*
X131097160Y-113950463D01*
X130971718Y-114046718D01*
X130875463Y-114172160D01*
X130814956Y-114318237D01*
X130814955Y-114318239D01*
X130794318Y-114474998D01*
X127595670Y-114474998D01*
X127605085Y-114429087D01*
X127635044Y-114356762D01*
X127655682Y-114200000D01*
X127654694Y-114192498D01*
X127635044Y-114043239D01*
X127635044Y-114043238D01*
X127574536Y-113897159D01*
X127478282Y-113771718D01*
X127352841Y-113675464D01*
X127351810Y-113675037D01*
X127206762Y-113614956D01*
X127206760Y-113614955D01*
X127050001Y-113594318D01*
X127049999Y-113594318D01*
X126893239Y-113614955D01*
X126893237Y-113614956D01*
X126747160Y-113675463D01*
X126682387Y-113725165D01*
X126626637Y-113767944D01*
X126621713Y-113771722D01*
X126615971Y-113777465D01*
X126614749Y-113776243D01*
X126566261Y-113811636D01*
X126496514Y-113815778D01*
X126448847Y-113793315D01*
X126439926Y-113786470D01*
X126422041Y-113772746D01*
X126327842Y-113700464D01*
X126181762Y-113639956D01*
X126181760Y-113639955D01*
X126025001Y-113619318D01*
X126024999Y-113619318D01*
X125868239Y-113639955D01*
X125868237Y-113639956D01*
X125722157Y-113700464D01*
X125637374Y-113765521D01*
X125572205Y-113790715D01*
X125503760Y-113776676D01*
X125463512Y-113742631D01*
X125458534Y-113736144D01*
X125436172Y-113707000D01*
X125428283Y-113696719D01*
X125428282Y-113696718D01*
X125302841Y-113600464D01*
X125288003Y-113594318D01*
X125156762Y-113539956D01*
X125156760Y-113539955D01*
X125000001Y-113519318D01*
X124999999Y-113519318D01*
X124843239Y-113539955D01*
X124843237Y-113539956D01*
X124697160Y-113600463D01*
X124571718Y-113696718D01*
X124475463Y-113822160D01*
X124414956Y-113968237D01*
X124414955Y-113968239D01*
X124394318Y-114124998D01*
X123746795Y-114124998D01*
X123739020Y-114065940D01*
X123735044Y-114035738D01*
X123674536Y-113889659D01*
X123578282Y-113764218D01*
X123452841Y-113667964D01*
X123385221Y-113639955D01*
X123306762Y-113607456D01*
X123306760Y-113607455D01*
X123150001Y-113586818D01*
X123149999Y-113586818D01*
X122993239Y-113607455D01*
X122993237Y-113607456D01*
X122847160Y-113667963D01*
X122721718Y-113764218D01*
X122625463Y-113889660D01*
X122564956Y-114035737D01*
X122564955Y-114035739D01*
X122544318Y-114192498D01*
X110700500Y-114192498D01*
X110700500Y-111749998D01*
X127644318Y-111749998D01*
X127644318Y-111750001D01*
X127664955Y-111906760D01*
X127664956Y-111906762D01*
X127703576Y-112000000D01*
X127725464Y-112052841D01*
X127821718Y-112178282D01*
X127947159Y-112274536D01*
X128093238Y-112335044D01*
X128171619Y-112345363D01*
X128249999Y-112355682D01*
X128250000Y-112355682D01*
X128250001Y-112355682D01*
X128302254Y-112348802D01*
X128406762Y-112335044D01*
X128552841Y-112274536D01*
X128678282Y-112178282D01*
X128774536Y-112052841D01*
X128835044Y-111906762D01*
X128852330Y-111775463D01*
X128855682Y-111750001D01*
X128855682Y-111749998D01*
X130094318Y-111749998D01*
X130094318Y-111750001D01*
X130114955Y-111906760D01*
X130114956Y-111906762D01*
X130153576Y-112000000D01*
X130175464Y-112052841D01*
X130271718Y-112178282D01*
X130397159Y-112274536D01*
X130543238Y-112335044D01*
X130621619Y-112345363D01*
X130699999Y-112355682D01*
X130700000Y-112355682D01*
X130700001Y-112355682D01*
X130752254Y-112348802D01*
X130856762Y-112335044D01*
X131002841Y-112274536D01*
X131128282Y-112178282D01*
X131224536Y-112052841D01*
X131285044Y-111906762D01*
X131302330Y-111775463D01*
X131305682Y-111750001D01*
X131305682Y-111749998D01*
X131285044Y-111593239D01*
X131285044Y-111593238D01*
X131224536Y-111447159D01*
X131128282Y-111321718D01*
X131002841Y-111225464D01*
X130856762Y-111164956D01*
X130856760Y-111164955D01*
X130700001Y-111144318D01*
X130699999Y-111144318D01*
X130543239Y-111164955D01*
X130543237Y-111164956D01*
X130397160Y-111225463D01*
X130271718Y-111321718D01*
X130175463Y-111447160D01*
X130114956Y-111593237D01*
X130114955Y-111593239D01*
X130094318Y-111749998D01*
X128855682Y-111749998D01*
X128835044Y-111593239D01*
X128835044Y-111593238D01*
X128774536Y-111447159D01*
X128678282Y-111321718D01*
X128552841Y-111225464D01*
X128406762Y-111164956D01*
X128406760Y-111164955D01*
X128250001Y-111144318D01*
X128249999Y-111144318D01*
X128093239Y-111164955D01*
X128093237Y-111164956D01*
X127947160Y-111225463D01*
X127821718Y-111321718D01*
X127725463Y-111447160D01*
X127664956Y-111593237D01*
X127664955Y-111593239D01*
X127644318Y-111749998D01*
X110700500Y-111749998D01*
X110700500Y-109049998D01*
X156194318Y-109049998D01*
X156194318Y-109050001D01*
X156214955Y-109206760D01*
X156214956Y-109206762D01*
X156275464Y-109352841D01*
X156371718Y-109478282D01*
X156497159Y-109574536D01*
X156643238Y-109635044D01*
X156705478Y-109643238D01*
X156799999Y-109655682D01*
X156800000Y-109655682D01*
X156800001Y-109655682D01*
X156894514Y-109643239D01*
X156956762Y-109635044D01*
X157102841Y-109574536D01*
X157228282Y-109478282D01*
X157324536Y-109352841D01*
X157385044Y-109206762D01*
X157405682Y-109050000D01*
X157385044Y-108893238D01*
X157351600Y-108812498D01*
X166723918Y-108812498D01*
X166723918Y-108812501D01*
X166744555Y-108969260D01*
X166744556Y-108969262D01*
X166805064Y-109115341D01*
X166901318Y-109240782D01*
X167026759Y-109337036D01*
X167172838Y-109397544D01*
X167251219Y-109407863D01*
X167329599Y-109418182D01*
X167329600Y-109418182D01*
X167329601Y-109418182D01*
X167381854Y-109411302D01*
X167486362Y-109397544D01*
X167632441Y-109337036D01*
X167757882Y-109240782D01*
X167854136Y-109115341D01*
X167914644Y-108969262D01*
X167935282Y-108812500D01*
X167914644Y-108655738D01*
X167854136Y-108509659D01*
X167757882Y-108384218D01*
X167632441Y-108287964D01*
X167486362Y-108227456D01*
X167486360Y-108227455D01*
X167329601Y-108206818D01*
X167329599Y-108206818D01*
X167172839Y-108227455D01*
X167172837Y-108227456D01*
X167026760Y-108287963D01*
X166901318Y-108384218D01*
X166805063Y-108509660D01*
X166744556Y-108655737D01*
X166744555Y-108655739D01*
X166723918Y-108812498D01*
X157351600Y-108812498D01*
X157324536Y-108747159D01*
X157228282Y-108621718D01*
X157102841Y-108525464D01*
X157064684Y-108509659D01*
X156956762Y-108464956D01*
X156956760Y-108464955D01*
X156800001Y-108444318D01*
X156799999Y-108444318D01*
X156643239Y-108464955D01*
X156643237Y-108464956D01*
X156497160Y-108525463D01*
X156371718Y-108621718D01*
X156275463Y-108747160D01*
X156214956Y-108893237D01*
X156214955Y-108893239D01*
X156194318Y-109049998D01*
X110700500Y-109049998D01*
X110700500Y-106949998D01*
X112794318Y-106949998D01*
X112794318Y-106950001D01*
X112814955Y-107106760D01*
X112814956Y-107106762D01*
X112874287Y-107250001D01*
X112875464Y-107252841D01*
X112971718Y-107378282D01*
X113097159Y-107474536D01*
X113243238Y-107535044D01*
X113321619Y-107545363D01*
X113399999Y-107555682D01*
X113400000Y-107555682D01*
X113400001Y-107555682D01*
X113452254Y-107548802D01*
X113556762Y-107535044D01*
X113702841Y-107474536D01*
X113828282Y-107378282D01*
X113924536Y-107252841D01*
X113985044Y-107106762D01*
X114005682Y-106950000D01*
X113999099Y-106900000D01*
X113999099Y-106899998D01*
X115894318Y-106899998D01*
X115894318Y-106900001D01*
X115914955Y-107056760D01*
X115914956Y-107056762D01*
X115974287Y-107200001D01*
X115975464Y-107202841D01*
X116071718Y-107328282D01*
X116197159Y-107424536D01*
X116343238Y-107485044D01*
X116421619Y-107495363D01*
X116499999Y-107505682D01*
X116500000Y-107505682D01*
X116500001Y-107505682D01*
X116552254Y-107498802D01*
X116656762Y-107485044D01*
X116802841Y-107424536D01*
X116928282Y-107328282D01*
X117024536Y-107202841D01*
X117085044Y-107056762D01*
X117103483Y-106916701D01*
X117103483Y-106916698D01*
X118977618Y-106916698D01*
X118977618Y-106916701D01*
X118998255Y-107073460D01*
X118998256Y-107073462D01*
X119051846Y-107202841D01*
X119058764Y-107219541D01*
X119155018Y-107344982D01*
X119280459Y-107441236D01*
X119426538Y-107501744D01*
X119504919Y-107512063D01*
X119583299Y-107522382D01*
X119583300Y-107522382D01*
X119583301Y-107522382D01*
X119635554Y-107515502D01*
X119740062Y-107501744D01*
X119886141Y-107441236D01*
X120011582Y-107344982D01*
X120107836Y-107219541D01*
X120168344Y-107073462D01*
X120188982Y-106916700D01*
X120186783Y-106900000D01*
X120168344Y-106759939D01*
X120168344Y-106759938D01*
X120107836Y-106613859D01*
X120011582Y-106488418D01*
X119886141Y-106392164D01*
X119845821Y-106375463D01*
X119784343Y-106349998D01*
X134344318Y-106349998D01*
X134344318Y-106350001D01*
X134364955Y-106506760D01*
X134364956Y-106506762D01*
X134425464Y-106652841D01*
X134461277Y-106699515D01*
X134486470Y-106764684D01*
X134472431Y-106833129D01*
X134461277Y-106850485D01*
X134425464Y-106897158D01*
X134364956Y-107043237D01*
X134364955Y-107043239D01*
X134344318Y-107199998D01*
X134344318Y-107200001D01*
X134364955Y-107356760D01*
X134364956Y-107356762D01*
X134425464Y-107502842D01*
X134499643Y-107599514D01*
X134524837Y-107664683D01*
X134510798Y-107733128D01*
X134499643Y-107750486D01*
X134425464Y-107847157D01*
X134364956Y-107993237D01*
X134364955Y-107993239D01*
X134344318Y-108149998D01*
X134344318Y-108150001D01*
X134364955Y-108306760D01*
X134364956Y-108306762D01*
X134421933Y-108444318D01*
X134425464Y-108452841D01*
X134521718Y-108578282D01*
X134647159Y-108674536D01*
X134793238Y-108735044D01*
X134871619Y-108745363D01*
X134949999Y-108755682D01*
X134950000Y-108755682D01*
X134950001Y-108755682D01*
X135014739Y-108747159D01*
X135106762Y-108735044D01*
X135252841Y-108674536D01*
X135378282Y-108578282D01*
X135474536Y-108452841D01*
X135535044Y-108306762D01*
X135555682Y-108150000D01*
X135535044Y-107993238D01*
X135474536Y-107847159D01*
X135400354Y-107750483D01*
X135375162Y-107685318D01*
X135389200Y-107616873D01*
X135400349Y-107599522D01*
X135474536Y-107502841D01*
X135535044Y-107356762D01*
X135555682Y-107200000D01*
X135535044Y-107043238D01*
X135496424Y-106950001D01*
X135474538Y-106897163D01*
X135474535Y-106897157D01*
X135438723Y-106850487D01*
X135413528Y-106785318D01*
X135427566Y-106716873D01*
X135438723Y-106699513D01*
X135474535Y-106652842D01*
X135474534Y-106652842D01*
X135474536Y-106652841D01*
X135535044Y-106506762D01*
X135555682Y-106350000D01*
X135555682Y-106349998D01*
X139894318Y-106349998D01*
X139894318Y-106350001D01*
X139914955Y-106506760D01*
X139914956Y-106506762D01*
X139975464Y-106652842D01*
X140030460Y-106724514D01*
X140055654Y-106789683D01*
X140041615Y-106858128D01*
X140030460Y-106875486D01*
X139975464Y-106947157D01*
X139914956Y-107093237D01*
X139914955Y-107093239D01*
X139894318Y-107249998D01*
X139894318Y-107250001D01*
X139914955Y-107406760D01*
X139914956Y-107406762D01*
X139975464Y-107552842D01*
X140030460Y-107624514D01*
X140055654Y-107689683D01*
X140041615Y-107758128D01*
X140030460Y-107775486D01*
X139975464Y-107847157D01*
X139914956Y-107993237D01*
X139914955Y-107993239D01*
X139894318Y-108149998D01*
X139894318Y-108150001D01*
X139914955Y-108306760D01*
X139914956Y-108306762D01*
X139971933Y-108444318D01*
X139975464Y-108452841D01*
X140071718Y-108578282D01*
X140197159Y-108674536D01*
X140343238Y-108735044D01*
X140421619Y-108745363D01*
X140499999Y-108755682D01*
X140500000Y-108755682D01*
X140500001Y-108755682D01*
X140564739Y-108747159D01*
X140656762Y-108735044D01*
X140802841Y-108674536D01*
X140928282Y-108578282D01*
X141024536Y-108452841D01*
X141085044Y-108306762D01*
X141105682Y-108150000D01*
X141085044Y-107993238D01*
X141024536Y-107847159D01*
X141024535Y-107847158D01*
X141024535Y-107847157D01*
X140969540Y-107775487D01*
X140944345Y-107710318D01*
X140958383Y-107641873D01*
X140969538Y-107624515D01*
X141024536Y-107552841D01*
X141085044Y-107406762D01*
X141105682Y-107250000D01*
X141099473Y-107202841D01*
X141085044Y-107093239D01*
X141085044Y-107093238D01*
X141024536Y-106947159D01*
X141024535Y-106947158D01*
X141024535Y-106947157D01*
X140988348Y-106899998D01*
X145294318Y-106899998D01*
X145294318Y-106900001D01*
X145314955Y-107056760D01*
X145314956Y-107056762D01*
X145374287Y-107200001D01*
X145375464Y-107202841D01*
X145471718Y-107328282D01*
X145597159Y-107424536D01*
X145743238Y-107485044D01*
X145821619Y-107495363D01*
X145899999Y-107505682D01*
X145900000Y-107505682D01*
X145900001Y-107505682D01*
X145952254Y-107498802D01*
X146056762Y-107485044D01*
X146202841Y-107424536D01*
X146328282Y-107328282D01*
X146424536Y-107202841D01*
X146485044Y-107056762D01*
X146503483Y-106916701D01*
X146505682Y-106900001D01*
X146505682Y-106899998D01*
X146489658Y-106778282D01*
X146485044Y-106743238D01*
X146467133Y-106699998D01*
X155244318Y-106699998D01*
X155244318Y-106700001D01*
X155264955Y-106856760D01*
X155264956Y-106856762D01*
X155303576Y-106950000D01*
X155325464Y-107002841D01*
X155421718Y-107128282D01*
X155547159Y-107224536D01*
X155693238Y-107285044D01*
X155771619Y-107295363D01*
X155849999Y-107305682D01*
X155850000Y-107305682D01*
X155850001Y-107305682D01*
X155902254Y-107298802D01*
X156006762Y-107285044D01*
X156152841Y-107224536D01*
X156278282Y-107128282D01*
X156374536Y-107002841D01*
X156435044Y-106856762D01*
X156455682Y-106700000D01*
X156455682Y-106699998D01*
X165894318Y-106699998D01*
X165894318Y-106700001D01*
X165914955Y-106856760D01*
X165914956Y-106856762D01*
X165953576Y-106950000D01*
X165975464Y-107002841D01*
X166071718Y-107128282D01*
X166197159Y-107224536D01*
X166343238Y-107285044D01*
X166421619Y-107295363D01*
X166499999Y-107305682D01*
X166500000Y-107305682D01*
X166500001Y-107305682D01*
X166552254Y-107298802D01*
X166656762Y-107285044D01*
X166802841Y-107224536D01*
X166928282Y-107128282D01*
X167024536Y-107002841D01*
X167085044Y-106856762D01*
X167105682Y-106700000D01*
X167099473Y-106652841D01*
X167085044Y-106543239D01*
X167085044Y-106543238D01*
X167024536Y-106397159D01*
X166928282Y-106271718D01*
X166802841Y-106175464D01*
X166656762Y-106114956D01*
X166656760Y-106114955D01*
X166500001Y-106094318D01*
X166499999Y-106094318D01*
X166343239Y-106114955D01*
X166343237Y-106114956D01*
X166197160Y-106175463D01*
X166071718Y-106271718D01*
X165975463Y-106397160D01*
X165914956Y-106543237D01*
X165914955Y-106543239D01*
X165894318Y-106699998D01*
X156455682Y-106699998D01*
X156449473Y-106652841D01*
X156435044Y-106543239D01*
X156435044Y-106543238D01*
X156374536Y-106397159D01*
X156278282Y-106271718D01*
X156152841Y-106175464D01*
X156006762Y-106114956D01*
X156006760Y-106114955D01*
X155850001Y-106094318D01*
X155849999Y-106094318D01*
X155693239Y-106114955D01*
X155693237Y-106114956D01*
X155547160Y-106175463D01*
X155421718Y-106271718D01*
X155325463Y-106397160D01*
X155264956Y-106543237D01*
X155264955Y-106543239D01*
X155244318Y-106699998D01*
X146467133Y-106699998D01*
X146424536Y-106597159D01*
X146328282Y-106471718D01*
X146202841Y-106375464D01*
X146177472Y-106364956D01*
X146056762Y-106314956D01*
X146056760Y-106314955D01*
X145900001Y-106294318D01*
X145899999Y-106294318D01*
X145743239Y-106314955D01*
X145743237Y-106314956D01*
X145597160Y-106375463D01*
X145471718Y-106471718D01*
X145375463Y-106597160D01*
X145314956Y-106743237D01*
X145314955Y-106743239D01*
X145294318Y-106899998D01*
X140988348Y-106899998D01*
X140969540Y-106875487D01*
X140944345Y-106810318D01*
X140958383Y-106741873D01*
X140969538Y-106724515D01*
X141024536Y-106652841D01*
X141085044Y-106506762D01*
X141105682Y-106350000D01*
X141101068Y-106314956D01*
X141085044Y-106193239D01*
X141085044Y-106193238D01*
X141024536Y-106047159D01*
X140928282Y-105921718D01*
X140802841Y-105825464D01*
X140757690Y-105806762D01*
X140656762Y-105764956D01*
X140656760Y-105764955D01*
X140500001Y-105744318D01*
X140499999Y-105744318D01*
X140343239Y-105764955D01*
X140343237Y-105764956D01*
X140197160Y-105825463D01*
X140071718Y-105921718D01*
X139975463Y-106047160D01*
X139914956Y-106193237D01*
X139914955Y-106193239D01*
X139894318Y-106349998D01*
X135555682Y-106349998D01*
X135551068Y-106314956D01*
X135535044Y-106193239D01*
X135535044Y-106193238D01*
X135474536Y-106047159D01*
X135378282Y-105921718D01*
X135252841Y-105825464D01*
X135207690Y-105806762D01*
X135106762Y-105764956D01*
X135106760Y-105764955D01*
X134950001Y-105744318D01*
X134949999Y-105744318D01*
X134793239Y-105764955D01*
X134793237Y-105764956D01*
X134647160Y-105825463D01*
X134521718Y-105921718D01*
X134425463Y-106047160D01*
X134364956Y-106193237D01*
X134364955Y-106193239D01*
X134344318Y-106349998D01*
X119784343Y-106349998D01*
X119740062Y-106331656D01*
X119740060Y-106331655D01*
X119583301Y-106311018D01*
X119583299Y-106311018D01*
X119426539Y-106331655D01*
X119426537Y-106331656D01*
X119280460Y-106392163D01*
X119155018Y-106488418D01*
X119058763Y-106613860D01*
X118998256Y-106759937D01*
X118998255Y-106759939D01*
X118977618Y-106916698D01*
X117103483Y-106916698D01*
X117105682Y-106900001D01*
X117105682Y-106899998D01*
X117089658Y-106778282D01*
X117085044Y-106743238D01*
X117024536Y-106597159D01*
X116928282Y-106471718D01*
X116802841Y-106375464D01*
X116777472Y-106364956D01*
X116656762Y-106314956D01*
X116656760Y-106314955D01*
X116500001Y-106294318D01*
X116499999Y-106294318D01*
X116343239Y-106314955D01*
X116343237Y-106314956D01*
X116197160Y-106375463D01*
X116071718Y-106471718D01*
X115975463Y-106597160D01*
X115914956Y-106743237D01*
X115914955Y-106743239D01*
X115894318Y-106899998D01*
X113999099Y-106899998D01*
X113985044Y-106793239D01*
X113985044Y-106793238D01*
X113924536Y-106647159D01*
X113828282Y-106521718D01*
X113702841Y-106425464D01*
X113622445Y-106392163D01*
X113556762Y-106364956D01*
X113556760Y-106364955D01*
X113400001Y-106344318D01*
X113399999Y-106344318D01*
X113243239Y-106364955D01*
X113243237Y-106364956D01*
X113097160Y-106425463D01*
X112971718Y-106521718D01*
X112875463Y-106647160D01*
X112814956Y-106793237D01*
X112814955Y-106793239D01*
X112794318Y-106949998D01*
X110700500Y-106949998D01*
X110700500Y-105049998D01*
X194464318Y-105049998D01*
X194464318Y-105050001D01*
X194484955Y-105206760D01*
X194484956Y-105206762D01*
X194545464Y-105352841D01*
X194641718Y-105478282D01*
X194767159Y-105574536D01*
X194913238Y-105635044D01*
X194980820Y-105643941D01*
X195044717Y-105672207D01*
X195083188Y-105730532D01*
X195087574Y-105750693D01*
X195094956Y-105806762D01*
X195155464Y-105952841D01*
X195251718Y-106078282D01*
X195377159Y-106174536D01*
X195523238Y-106235044D01*
X195601619Y-106245363D01*
X195679999Y-106255682D01*
X195680000Y-106255682D01*
X195680001Y-106255682D01*
X195732254Y-106248802D01*
X195836762Y-106235044D01*
X195982841Y-106174536D01*
X196108282Y-106078282D01*
X196204536Y-105952841D01*
X196265044Y-105806762D01*
X196285682Y-105650000D01*
X196284884Y-105643941D01*
X196265044Y-105493239D01*
X196265044Y-105493238D01*
X196204536Y-105347159D01*
X196108282Y-105221718D01*
X195982841Y-105125464D01*
X195836762Y-105064956D01*
X195821318Y-105062922D01*
X195769178Y-105056058D01*
X195705281Y-105027791D01*
X195666811Y-104969466D01*
X195662425Y-104949304D01*
X195655044Y-104893239D01*
X195655044Y-104893238D01*
X195594536Y-104747159D01*
X195498282Y-104621718D01*
X195372841Y-104525464D01*
X195226762Y-104464956D01*
X195226760Y-104464955D01*
X195070001Y-104444318D01*
X195069999Y-104444318D01*
X194913239Y-104464955D01*
X194913237Y-104464956D01*
X194767160Y-104525463D01*
X194641718Y-104621718D01*
X194545463Y-104747160D01*
X194484956Y-104893237D01*
X194484955Y-104893239D01*
X194464318Y-105049998D01*
X110700500Y-105049998D01*
X110700500Y-102604998D01*
X188539318Y-102604998D01*
X188539318Y-102605001D01*
X188559955Y-102761760D01*
X188559956Y-102761762D01*
X188620464Y-102907841D01*
X188716718Y-103033282D01*
X188842159Y-103129536D01*
X188988238Y-103190044D01*
X189066619Y-103200363D01*
X189144999Y-103210682D01*
X189145000Y-103210682D01*
X189145001Y-103210682D01*
X189197254Y-103203802D01*
X189301762Y-103190044D01*
X189447841Y-103129536D01*
X189573282Y-103033282D01*
X189669536Y-102907841D01*
X189730044Y-102761762D01*
X189743802Y-102657254D01*
X189750682Y-102605001D01*
X189750682Y-102604998D01*
X189730044Y-102448239D01*
X189730044Y-102448238D01*
X189669536Y-102302159D01*
X189573282Y-102176718D01*
X189447841Y-102080464D01*
X189416142Y-102067334D01*
X189301762Y-102019956D01*
X189301760Y-102019955D01*
X189145001Y-101999318D01*
X189144999Y-101999318D01*
X188988239Y-102019955D01*
X188988237Y-102019956D01*
X188842160Y-102080463D01*
X188716718Y-102176718D01*
X188620463Y-102302160D01*
X188559956Y-102448237D01*
X188559955Y-102448239D01*
X188539318Y-102604998D01*
X110700500Y-102604998D01*
X110700500Y-101399998D01*
X149869318Y-101399998D01*
X149869318Y-101400001D01*
X149889955Y-101556760D01*
X149889956Y-101556762D01*
X149917649Y-101623620D01*
X149950464Y-101702841D01*
X150046718Y-101828282D01*
X150172159Y-101924536D01*
X150318238Y-101985044D01*
X150396619Y-101995363D01*
X150474999Y-102005682D01*
X150475000Y-102005682D01*
X150475001Y-102005682D01*
X150527254Y-101998802D01*
X150631762Y-101985044D01*
X150777841Y-101924536D01*
X150903282Y-101828282D01*
X150999536Y-101702841D01*
X151032353Y-101623615D01*
X171800500Y-101623615D01*
X171800500Y-101776384D01*
X171830300Y-101926197D01*
X171830302Y-101926205D01*
X171888759Y-102067334D01*
X171888764Y-102067343D01*
X171973629Y-102194351D01*
X171973632Y-102194355D01*
X172081644Y-102302367D01*
X172081648Y-102302370D01*
X172208656Y-102387235D01*
X172208662Y-102387238D01*
X172208663Y-102387239D01*
X172349795Y-102445698D01*
X172499615Y-102475499D01*
X172499619Y-102475500D01*
X172499620Y-102475500D01*
X172652381Y-102475500D01*
X172652382Y-102475499D01*
X172802205Y-102445698D01*
X172943337Y-102387239D01*
X173070352Y-102302370D01*
X173178370Y-102194352D01*
X173263239Y-102067337D01*
X173321698Y-101926205D01*
X173351500Y-101776380D01*
X173351500Y-101623620D01*
X173346601Y-101598992D01*
X192550500Y-101598992D01*
X192550500Y-101801007D01*
X192589907Y-101999119D01*
X192589909Y-101999127D01*
X192667212Y-102185752D01*
X192667217Y-102185762D01*
X192779441Y-102353718D01*
X192922281Y-102496558D01*
X193090237Y-102608782D01*
X193090241Y-102608784D01*
X193090244Y-102608786D01*
X193276873Y-102686091D01*
X193474992Y-102725499D01*
X193474996Y-102725500D01*
X193474997Y-102725500D01*
X193677004Y-102725500D01*
X193677005Y-102725499D01*
X193875127Y-102686091D01*
X194061756Y-102608786D01*
X194229718Y-102496558D01*
X194372558Y-102353718D01*
X194484786Y-102185756D01*
X194562091Y-101999127D01*
X194601500Y-101801003D01*
X194601500Y-101598997D01*
X194562091Y-101400873D01*
X194484786Y-101214244D01*
X194484784Y-101214241D01*
X194484782Y-101214237D01*
X194372558Y-101046281D01*
X194229718Y-100903441D01*
X194061762Y-100791217D01*
X194061752Y-100791212D01*
X193875127Y-100713909D01*
X193875119Y-100713907D01*
X193677007Y-100674500D01*
X193677003Y-100674500D01*
X193474997Y-100674500D01*
X193474992Y-100674500D01*
X193276880Y-100713907D01*
X193276872Y-100713909D01*
X193090247Y-100791212D01*
X193090237Y-100791217D01*
X192922281Y-100903441D01*
X192779441Y-101046281D01*
X192667217Y-101214237D01*
X192667212Y-101214247D01*
X192589909Y-101400872D01*
X192589907Y-101400880D01*
X192550500Y-101598992D01*
X173346601Y-101598992D01*
X173321698Y-101473795D01*
X173263239Y-101332663D01*
X173263238Y-101332662D01*
X173263235Y-101332656D01*
X173178370Y-101205648D01*
X173178367Y-101205644D01*
X173070355Y-101097632D01*
X173070351Y-101097629D01*
X172943343Y-101012764D01*
X172943334Y-101012759D01*
X172802205Y-100954302D01*
X172802197Y-100954300D01*
X172652384Y-100924500D01*
X172652380Y-100924500D01*
X172499620Y-100924500D01*
X172499615Y-100924500D01*
X172349802Y-100954300D01*
X172349794Y-100954302D01*
X172208665Y-101012759D01*
X172208656Y-101012764D01*
X172081648Y-101097629D01*
X172081644Y-101097632D01*
X171973632Y-101205644D01*
X171973629Y-101205648D01*
X171888764Y-101332656D01*
X171888759Y-101332665D01*
X171830302Y-101473794D01*
X171830300Y-101473802D01*
X171800500Y-101623615D01*
X151032353Y-101623615D01*
X151060044Y-101556762D01*
X151080682Y-101400000D01*
X151060044Y-101243238D01*
X150999536Y-101097159D01*
X150903282Y-100971718D01*
X150777841Y-100875464D01*
X150631762Y-100814956D01*
X150631760Y-100814955D01*
X150475001Y-100794318D01*
X150474999Y-100794318D01*
X150318239Y-100814955D01*
X150318237Y-100814956D01*
X150172160Y-100875463D01*
X150046718Y-100971718D01*
X149950463Y-101097160D01*
X149889956Y-101243237D01*
X149889955Y-101243239D01*
X149869318Y-101399998D01*
X110700500Y-101399998D01*
X110700500Y-98525000D01*
X113687723Y-98525000D01*
X114463120Y-98525000D01*
X114459075Y-98532007D01*
X114425000Y-98659174D01*
X114425000Y-98790826D01*
X114459075Y-98917993D01*
X114463120Y-98925000D01*
X113687723Y-98925000D01*
X113689288Y-98942887D01*
X113689288Y-98942891D01*
X113745894Y-99154150D01*
X113745898Y-99154159D01*
X113838333Y-99352387D01*
X113963787Y-99531554D01*
X114118445Y-99686212D01*
X114297612Y-99811666D01*
X114495840Y-99904101D01*
X114495849Y-99904105D01*
X114707110Y-99960711D01*
X114725000Y-99962276D01*
X114725000Y-99186879D01*
X114732007Y-99190925D01*
X114859174Y-99225000D01*
X114990826Y-99225000D01*
X115117993Y-99190925D01*
X115125000Y-99186879D01*
X115125000Y-99962276D01*
X115142887Y-99960711D01*
X115142891Y-99960711D01*
X115354150Y-99904105D01*
X115354159Y-99904101D01*
X115552387Y-99811666D01*
X115731554Y-99686212D01*
X115886212Y-99531554D01*
X116011666Y-99352387D01*
X116104101Y-99154159D01*
X116104105Y-99154150D01*
X116160711Y-98942891D01*
X116160711Y-98942887D01*
X116162277Y-98925000D01*
X115386880Y-98925000D01*
X115390925Y-98917993D01*
X115425000Y-98790826D01*
X115425000Y-98659174D01*
X115390925Y-98532007D01*
X115386880Y-98525000D01*
X116162276Y-98525000D01*
X116160711Y-98507112D01*
X116160711Y-98507108D01*
X116132011Y-98399998D01*
X154344318Y-98399998D01*
X154344318Y-98400001D01*
X154364955Y-98556760D01*
X154364956Y-98556762D01*
X154407376Y-98659174D01*
X154425464Y-98702841D01*
X154521718Y-98828282D01*
X154647159Y-98924536D01*
X154793238Y-98985044D01*
X154871619Y-98995363D01*
X154949999Y-99005682D01*
X154950000Y-99005682D01*
X154950001Y-99005682D01*
X155002254Y-98998802D01*
X155106762Y-98985044D01*
X155252841Y-98924536D01*
X155324513Y-98869539D01*
X155389682Y-98844345D01*
X155458127Y-98858383D01*
X155475487Y-98869540D01*
X155547157Y-98924535D01*
X155547158Y-98924535D01*
X155547159Y-98924536D01*
X155693238Y-98985044D01*
X155771619Y-98995363D01*
X155849999Y-99005682D01*
X155850000Y-99005682D01*
X155850001Y-99005682D01*
X155902254Y-98998802D01*
X156006762Y-98985044D01*
X156152841Y-98924536D01*
X156278282Y-98828282D01*
X156374536Y-98702841D01*
X156435044Y-98556762D01*
X156455682Y-98400000D01*
X156435044Y-98243238D01*
X156374536Y-98097159D01*
X156278282Y-97971718D01*
X156152841Y-97875464D01*
X156006762Y-97814956D01*
X156006760Y-97814955D01*
X155850001Y-97794318D01*
X155849999Y-97794318D01*
X155693239Y-97814955D01*
X155693237Y-97814956D01*
X155547157Y-97875464D01*
X155475486Y-97930460D01*
X155410317Y-97955654D01*
X155341872Y-97941615D01*
X155324514Y-97930460D01*
X155252842Y-97875464D01*
X155106762Y-97814956D01*
X155106760Y-97814955D01*
X154950001Y-97794318D01*
X154949999Y-97794318D01*
X154793239Y-97814955D01*
X154793237Y-97814956D01*
X154647160Y-97875463D01*
X154521718Y-97971718D01*
X154425463Y-98097160D01*
X154364956Y-98243237D01*
X154364955Y-98243239D01*
X154344318Y-98399998D01*
X116132011Y-98399998D01*
X116104105Y-98295849D01*
X116104101Y-98295840D01*
X116011666Y-98097612D01*
X116011664Y-98097608D01*
X115886216Y-97918450D01*
X115886211Y-97918444D01*
X115731554Y-97763787D01*
X115552387Y-97638333D01*
X115354159Y-97545898D01*
X115349064Y-97544043D01*
X115349530Y-97542761D01*
X115295417Y-97509775D01*
X115264891Y-97446926D01*
X115273189Y-97377551D01*
X115317677Y-97323675D01*
X115342376Y-97310744D01*
X115462401Y-97264247D01*
X115651562Y-97147124D01*
X115815981Y-96997236D01*
X115950058Y-96819689D01*
X116049229Y-96620528D01*
X116097749Y-96449998D01*
X182119318Y-96449998D01*
X182119318Y-96450001D01*
X182139955Y-96606760D01*
X182139956Y-96606762D01*
X182200464Y-96752841D01*
X182296718Y-96878282D01*
X182422159Y-96974536D01*
X182568238Y-97035044D01*
X182646619Y-97045363D01*
X182724999Y-97055682D01*
X182725000Y-97055682D01*
X182725001Y-97055682D01*
X182777254Y-97048802D01*
X182881762Y-97035044D01*
X183027841Y-96974536D01*
X183153282Y-96878282D01*
X183249536Y-96752841D01*
X183310044Y-96606762D01*
X183330682Y-96450000D01*
X183310044Y-96293238D01*
X183249536Y-96147159D01*
X183153282Y-96021718D01*
X183027841Y-95925464D01*
X182881762Y-95864956D01*
X182881760Y-95864955D01*
X182725001Y-95844318D01*
X182724999Y-95844318D01*
X182568239Y-95864955D01*
X182568237Y-95864956D01*
X182422160Y-95925463D01*
X182296718Y-96021718D01*
X182200463Y-96147160D01*
X182139956Y-96293237D01*
X182139955Y-96293239D01*
X182119318Y-96449998D01*
X116097749Y-96449998D01*
X116110115Y-96406536D01*
X116130643Y-96185000D01*
X116110115Y-95963464D01*
X116049229Y-95749472D01*
X116030820Y-95712501D01*
X116030819Y-95712498D01*
X119894318Y-95712498D01*
X119894318Y-95712501D01*
X119914955Y-95869260D01*
X119914956Y-95869262D01*
X119975464Y-96015341D01*
X120071718Y-96140782D01*
X120197159Y-96237036D01*
X120343238Y-96297544D01*
X120421619Y-96307863D01*
X120499999Y-96318182D01*
X120500000Y-96318182D01*
X120500001Y-96318182D01*
X120552254Y-96311302D01*
X120656762Y-96297544D01*
X120802841Y-96237036D01*
X120928282Y-96140782D01*
X121024536Y-96015341D01*
X121085044Y-95869262D01*
X121105682Y-95712500D01*
X121085044Y-95555738D01*
X121024536Y-95409659D01*
X120928282Y-95284218D01*
X120802841Y-95187964D01*
X120656762Y-95127456D01*
X120656760Y-95127455D01*
X120500001Y-95106818D01*
X120499999Y-95106818D01*
X120343239Y-95127455D01*
X120343237Y-95127456D01*
X120197160Y-95187963D01*
X120071718Y-95284218D01*
X119975463Y-95409660D01*
X119914956Y-95555737D01*
X119914955Y-95555739D01*
X119894318Y-95712498D01*
X116030819Y-95712498D01*
X115950061Y-95550316D01*
X115950056Y-95550308D01*
X115815979Y-95372761D01*
X115651562Y-95222876D01*
X115651560Y-95222874D01*
X115462404Y-95105754D01*
X115462395Y-95105750D01*
X115368956Y-95069552D01*
X115268475Y-95030625D01*
X115228618Y-94999998D01*
X145794318Y-94999998D01*
X145794318Y-95000001D01*
X145814955Y-95156760D01*
X145814956Y-95156762D01*
X145842340Y-95222874D01*
X145875464Y-95302841D01*
X145971718Y-95428282D01*
X146097159Y-95524536D01*
X146243238Y-95585044D01*
X146321619Y-95595363D01*
X146399999Y-95605682D01*
X146400000Y-95605682D01*
X146400001Y-95605682D01*
X146452254Y-95598802D01*
X146556762Y-95585044D01*
X146702841Y-95524536D01*
X146828282Y-95428282D01*
X146924536Y-95302841D01*
X146985044Y-95156762D01*
X147005682Y-95000000D01*
X147004109Y-94988054D01*
X146985044Y-94843239D01*
X146985044Y-94843238D01*
X146924536Y-94697159D01*
X146828282Y-94571718D01*
X146702841Y-94475464D01*
X146556762Y-94414956D01*
X146556760Y-94414955D01*
X146400001Y-94394318D01*
X146399999Y-94394318D01*
X146243239Y-94414955D01*
X146243237Y-94414956D01*
X146097160Y-94475463D01*
X145971718Y-94571718D01*
X145875463Y-94697160D01*
X145814956Y-94843237D01*
X145814955Y-94843239D01*
X145794318Y-94999998D01*
X115228618Y-94999998D01*
X115213075Y-94988054D01*
X115189484Y-94922288D01*
X115205195Y-94854207D01*
X115255219Y-94805428D01*
X115268466Y-94799377D01*
X115462401Y-94724247D01*
X115651562Y-94607124D01*
X115815981Y-94457236D01*
X115950058Y-94279689D01*
X115989740Y-94199998D01*
X193719318Y-94199998D01*
X193719318Y-94200001D01*
X193739955Y-94356760D01*
X193739956Y-94356762D01*
X193781574Y-94457238D01*
X193800464Y-94502841D01*
X193896718Y-94628282D01*
X194022159Y-94724536D01*
X194168238Y-94785044D01*
X194246619Y-94795363D01*
X194324999Y-94805682D01*
X194325000Y-94805682D01*
X194325001Y-94805682D01*
X194377254Y-94798802D01*
X194481762Y-94785044D01*
X194627841Y-94724536D01*
X194753282Y-94628282D01*
X194849536Y-94502841D01*
X194910044Y-94356762D01*
X194930682Y-94200000D01*
X194910044Y-94043238D01*
X194850712Y-93899998D01*
X197094318Y-93899998D01*
X197094318Y-93900001D01*
X197114955Y-94056760D01*
X197114956Y-94056762D01*
X197174287Y-94200001D01*
X197175464Y-94202841D01*
X197271718Y-94328282D01*
X197397159Y-94424536D01*
X197543238Y-94485044D01*
X197621619Y-94495363D01*
X197699999Y-94505682D01*
X197700000Y-94505682D01*
X197700001Y-94505682D01*
X197752254Y-94498802D01*
X197856762Y-94485044D01*
X198002841Y-94424536D01*
X198128282Y-94328282D01*
X198224536Y-94202841D01*
X198285044Y-94056762D01*
X198305682Y-93900000D01*
X198301276Y-93866536D01*
X198285044Y-93743239D01*
X198285044Y-93743238D01*
X198224536Y-93597159D01*
X198128282Y-93471718D01*
X198002841Y-93375464D01*
X197856762Y-93314956D01*
X197856760Y-93314955D01*
X197700001Y-93294318D01*
X197699999Y-93294318D01*
X197543239Y-93314955D01*
X197543237Y-93314956D01*
X197397160Y-93375463D01*
X197271718Y-93471718D01*
X197175463Y-93597160D01*
X197114956Y-93743237D01*
X197114955Y-93743239D01*
X197094318Y-93899998D01*
X194850712Y-93899998D01*
X194849536Y-93897159D01*
X194753282Y-93771718D01*
X194627841Y-93675464D01*
X194481762Y-93614956D01*
X194481760Y-93614955D01*
X194325001Y-93594318D01*
X194324999Y-93594318D01*
X194168239Y-93614955D01*
X194168237Y-93614956D01*
X194022160Y-93675463D01*
X193896718Y-93771718D01*
X193800463Y-93897160D01*
X193739956Y-94043237D01*
X193739955Y-94043239D01*
X193719318Y-94199998D01*
X115989740Y-94199998D01*
X116049229Y-94080528D01*
X116110115Y-93866536D01*
X116130643Y-93645000D01*
X116110115Y-93423464D01*
X116049229Y-93209472D01*
X116049224Y-93209461D01*
X115950061Y-93010316D01*
X115950056Y-93010308D01*
X115815979Y-92832761D01*
X115651562Y-92682876D01*
X115651560Y-92682874D01*
X115462404Y-92565754D01*
X115462395Y-92565750D01*
X115368956Y-92529552D01*
X115268475Y-92490625D01*
X115213075Y-92448054D01*
X115189484Y-92382288D01*
X115205195Y-92314207D01*
X115255219Y-92265428D01*
X115268466Y-92259377D01*
X115462401Y-92184247D01*
X115651562Y-92067124D01*
X115815981Y-91917236D01*
X115950058Y-91739689D01*
X116049229Y-91540528D01*
X116110115Y-91326536D01*
X116128790Y-91124998D01*
X135394318Y-91124998D01*
X135394318Y-91125001D01*
X135414955Y-91281760D01*
X135414956Y-91281762D01*
X135475464Y-91427841D01*
X135571718Y-91553282D01*
X135697159Y-91649536D01*
X135843238Y-91710044D01*
X135921619Y-91720363D01*
X135999999Y-91730682D01*
X136000000Y-91730682D01*
X136000001Y-91730682D01*
X136052254Y-91723802D01*
X136156762Y-91710044D01*
X136302841Y-91649536D01*
X136428282Y-91553282D01*
X136524536Y-91427841D01*
X136585044Y-91281762D01*
X136605682Y-91125000D01*
X136602390Y-91099998D01*
X137894318Y-91099998D01*
X137894318Y-91100001D01*
X137914955Y-91256760D01*
X137914956Y-91256762D01*
X137925310Y-91281760D01*
X137975464Y-91402841D01*
X138071718Y-91528282D01*
X138197159Y-91624536D01*
X138343238Y-91685044D01*
X138421619Y-91695363D01*
X138499999Y-91705682D01*
X138500000Y-91705682D01*
X138500001Y-91705682D01*
X138552254Y-91698802D01*
X138656762Y-91685044D01*
X138802841Y-91624536D01*
X138928282Y-91528282D01*
X139024536Y-91402841D01*
X139085044Y-91256762D01*
X139105682Y-91100000D01*
X139085044Y-90943238D01*
X139024536Y-90797159D01*
X138928282Y-90671718D01*
X138802841Y-90575464D01*
X138757690Y-90556762D01*
X138656762Y-90514956D01*
X138656760Y-90514955D01*
X138500001Y-90494318D01*
X138499999Y-90494318D01*
X138343239Y-90514955D01*
X138343237Y-90514956D01*
X138197160Y-90575463D01*
X138071718Y-90671718D01*
X137975463Y-90797160D01*
X137914956Y-90943237D01*
X137914955Y-90943239D01*
X137894318Y-91099998D01*
X136602390Y-91099998D01*
X136589974Y-91005682D01*
X136585044Y-90968238D01*
X136524536Y-90822159D01*
X136428282Y-90696718D01*
X136302841Y-90600464D01*
X136242483Y-90575463D01*
X136156762Y-90539956D01*
X136156760Y-90539955D01*
X136000001Y-90519318D01*
X135999999Y-90519318D01*
X135843239Y-90539955D01*
X135843237Y-90539956D01*
X135697160Y-90600463D01*
X135571718Y-90696718D01*
X135475463Y-90822160D01*
X135414956Y-90968237D01*
X135414955Y-90968239D01*
X135394318Y-91124998D01*
X116128790Y-91124998D01*
X116130643Y-91105000D01*
X116110115Y-90883464D01*
X116049229Y-90669472D01*
X116049224Y-90669461D01*
X115950061Y-90470316D01*
X115950056Y-90470308D01*
X115815979Y-90292761D01*
X115651562Y-90142876D01*
X115651560Y-90142874D01*
X115462404Y-90025754D01*
X115462398Y-90025751D01*
X115409159Y-90005127D01*
X115353758Y-89962554D01*
X115330167Y-89896787D01*
X115345878Y-89828707D01*
X115395902Y-89779928D01*
X115453953Y-89765500D01*
X115808261Y-89765500D01*
X115830971Y-89762191D01*
X115876393Y-89755573D01*
X115981483Y-89704198D01*
X116064198Y-89621483D01*
X116115573Y-89516393D01*
X116125500Y-89448260D01*
X116125500Y-88399998D01*
X127569318Y-88399998D01*
X127569318Y-88400001D01*
X127589955Y-88556760D01*
X127589957Y-88556765D01*
X127650342Y-88702548D01*
X127657811Y-88772017D01*
X127650342Y-88797452D01*
X127589957Y-88943234D01*
X127589955Y-88943239D01*
X127569318Y-89099998D01*
X127569318Y-89100001D01*
X127589955Y-89256760D01*
X127589956Y-89256762D01*
X127653574Y-89410349D01*
X127651692Y-89411128D01*
X127665584Y-89468408D01*
X127652175Y-89514071D01*
X127653574Y-89514651D01*
X127589956Y-89668237D01*
X127589955Y-89668239D01*
X127569318Y-89824998D01*
X127569318Y-89825001D01*
X127589955Y-89981760D01*
X127589956Y-89981762D01*
X127625775Y-90068238D01*
X127650464Y-90127841D01*
X127746718Y-90253282D01*
X127872159Y-90349536D01*
X128018238Y-90410044D01*
X128096619Y-90420363D01*
X128174999Y-90430682D01*
X128175000Y-90430682D01*
X128175001Y-90430682D01*
X128227254Y-90423802D01*
X128331762Y-90410044D01*
X128477841Y-90349536D01*
X128603282Y-90253282D01*
X128699536Y-90127841D01*
X128760044Y-89981762D01*
X128780682Y-89825000D01*
X128760044Y-89668238D01*
X128739781Y-89619318D01*
X128696426Y-89514649D01*
X128698312Y-89513867D01*
X128684413Y-89456623D01*
X128697829Y-89410932D01*
X128696426Y-89410351D01*
X128728054Y-89333992D01*
X128760044Y-89256762D01*
X128780682Y-89100000D01*
X128760044Y-88943238D01*
X128738863Y-88892104D01*
X128699658Y-88797452D01*
X128692189Y-88727983D01*
X128699658Y-88702548D01*
X128752297Y-88575464D01*
X128760044Y-88556762D01*
X128780682Y-88400000D01*
X128780682Y-88399998D01*
X132069318Y-88399998D01*
X132069318Y-88400001D01*
X132089955Y-88556760D01*
X132089957Y-88556765D01*
X132150342Y-88702548D01*
X132157811Y-88772017D01*
X132150342Y-88797452D01*
X132089957Y-88943234D01*
X132089955Y-88943239D01*
X132069318Y-89099998D01*
X132069318Y-89100001D01*
X132089955Y-89256760D01*
X132089956Y-89256762D01*
X132153574Y-89410349D01*
X132151692Y-89411128D01*
X132165584Y-89468408D01*
X132152175Y-89514071D01*
X132153574Y-89514651D01*
X132089956Y-89668237D01*
X132089955Y-89668239D01*
X132069318Y-89824998D01*
X132069318Y-89825001D01*
X132089955Y-89981760D01*
X132089956Y-89981762D01*
X132125775Y-90068238D01*
X132150464Y-90127841D01*
X132246718Y-90253282D01*
X132372159Y-90349536D01*
X132518238Y-90410044D01*
X132596619Y-90420363D01*
X132674999Y-90430682D01*
X132675000Y-90430682D01*
X132675001Y-90430682D01*
X132727254Y-90423802D01*
X132831762Y-90410044D01*
X132977841Y-90349536D01*
X133103282Y-90253282D01*
X133124985Y-90224998D01*
X158019318Y-90224998D01*
X158019318Y-90225001D01*
X158039955Y-90381760D01*
X158039956Y-90381762D01*
X158096933Y-90519318D01*
X158100464Y-90527841D01*
X158196718Y-90653282D01*
X158322159Y-90749536D01*
X158468238Y-90810044D01*
X158546619Y-90820363D01*
X158624999Y-90830682D01*
X158625000Y-90830682D01*
X158625001Y-90830682D01*
X158689739Y-90822159D01*
X158781762Y-90810044D01*
X158927841Y-90749536D01*
X159053282Y-90653282D01*
X159149536Y-90527841D01*
X159202490Y-90399998D01*
X194169318Y-90399998D01*
X194169318Y-90400001D01*
X194189955Y-90556760D01*
X194189956Y-90556762D01*
X194236637Y-90669461D01*
X194250464Y-90702841D01*
X194346718Y-90828282D01*
X194472159Y-90924536D01*
X194618238Y-90985044D01*
X194696619Y-90995363D01*
X194774999Y-91005682D01*
X194775000Y-91005682D01*
X194775001Y-91005682D01*
X194827254Y-90998802D01*
X194931762Y-90985044D01*
X195077841Y-90924536D01*
X195203282Y-90828282D01*
X195299536Y-90702841D01*
X195360044Y-90556762D01*
X195380682Y-90400000D01*
X195360044Y-90243238D01*
X195299536Y-90097159D01*
X195203282Y-89971718D01*
X195077841Y-89875464D01*
X194987368Y-89837989D01*
X194931762Y-89814956D01*
X194931760Y-89814955D01*
X194775001Y-89794318D01*
X194774999Y-89794318D01*
X194618239Y-89814955D01*
X194618237Y-89814956D01*
X194472160Y-89875463D01*
X194346718Y-89971718D01*
X194250463Y-90097160D01*
X194189956Y-90243237D01*
X194189955Y-90243239D01*
X194169318Y-90399998D01*
X159202490Y-90399998D01*
X159210044Y-90381762D01*
X159230682Y-90225000D01*
X159210044Y-90068238D01*
X159149536Y-89922159D01*
X159053282Y-89796718D01*
X158927841Y-89700464D01*
X158890611Y-89685043D01*
X158781762Y-89639956D01*
X158781760Y-89639955D01*
X158625001Y-89619318D01*
X158624999Y-89619318D01*
X158468239Y-89639955D01*
X158468237Y-89639956D01*
X158322160Y-89700463D01*
X158196718Y-89796718D01*
X158100463Y-89922160D01*
X158039956Y-90068237D01*
X158039955Y-90068239D01*
X158019318Y-90224998D01*
X133124985Y-90224998D01*
X133199536Y-90127841D01*
X133260044Y-89981762D01*
X133280682Y-89825000D01*
X133260044Y-89668238D01*
X133239781Y-89619318D01*
X133196426Y-89514649D01*
X133198312Y-89513867D01*
X133184413Y-89456623D01*
X133197829Y-89410932D01*
X133196426Y-89410351D01*
X133228054Y-89333992D01*
X133260044Y-89256762D01*
X133280682Y-89100000D01*
X133280682Y-89099998D01*
X195044318Y-89099998D01*
X195044318Y-89100001D01*
X195064955Y-89256760D01*
X195064956Y-89256762D01*
X195125464Y-89402841D01*
X195221718Y-89528282D01*
X195347159Y-89624536D01*
X195493238Y-89685044D01*
X195571619Y-89695363D01*
X195649999Y-89705682D01*
X195650000Y-89705682D01*
X195650001Y-89705682D01*
X195702254Y-89698802D01*
X195806762Y-89685044D01*
X195952841Y-89624536D01*
X196078282Y-89528282D01*
X196174536Y-89402841D01*
X196235044Y-89256762D01*
X196255682Y-89100000D01*
X196235044Y-88943238D01*
X196174536Y-88797159D01*
X196078282Y-88671718D01*
X195952841Y-88575464D01*
X195907690Y-88556762D01*
X195806762Y-88514956D01*
X195806760Y-88514955D01*
X195650001Y-88494318D01*
X195649999Y-88494318D01*
X195493239Y-88514955D01*
X195493237Y-88514956D01*
X195347160Y-88575463D01*
X195221718Y-88671718D01*
X195125463Y-88797160D01*
X195064956Y-88943237D01*
X195064955Y-88943239D01*
X195044318Y-89099998D01*
X133280682Y-89099998D01*
X133260044Y-88943238D01*
X133238863Y-88892104D01*
X133199658Y-88797452D01*
X133192189Y-88727983D01*
X133199658Y-88702548D01*
X133252297Y-88575464D01*
X133260044Y-88556762D01*
X133280682Y-88400000D01*
X133277390Y-88374998D01*
X183469318Y-88374998D01*
X183469318Y-88375001D01*
X183489955Y-88531760D01*
X183489956Y-88531762D01*
X183500310Y-88556760D01*
X183550464Y-88677841D01*
X183646718Y-88803282D01*
X183772159Y-88899536D01*
X183918238Y-88960044D01*
X183996619Y-88970363D01*
X184074999Y-88980682D01*
X184075000Y-88980682D01*
X184075001Y-88980682D01*
X184127254Y-88973802D01*
X184231762Y-88960044D01*
X184377841Y-88899536D01*
X184503282Y-88803282D01*
X184599536Y-88677841D01*
X184660044Y-88531762D01*
X184680682Y-88375000D01*
X184660044Y-88218238D01*
X184599536Y-88072159D01*
X184503282Y-87946718D01*
X184377841Y-87850464D01*
X184231762Y-87789956D01*
X184231760Y-87789955D01*
X184075001Y-87769318D01*
X184074999Y-87769318D01*
X183918239Y-87789955D01*
X183918237Y-87789956D01*
X183772160Y-87850463D01*
X183646718Y-87946718D01*
X183550463Y-88072160D01*
X183489956Y-88218237D01*
X183489955Y-88218239D01*
X183469318Y-88374998D01*
X133277390Y-88374998D01*
X133260044Y-88243239D01*
X133260044Y-88243238D01*
X133199536Y-88097159D01*
X133103282Y-87971718D01*
X132977841Y-87875464D01*
X132920619Y-87851762D01*
X132831762Y-87814956D01*
X132831760Y-87814955D01*
X132675001Y-87794318D01*
X132674999Y-87794318D01*
X132518239Y-87814955D01*
X132518237Y-87814956D01*
X132372160Y-87875463D01*
X132246718Y-87971718D01*
X132150463Y-88097160D01*
X132089956Y-88243237D01*
X132089955Y-88243239D01*
X132069318Y-88399998D01*
X128780682Y-88399998D01*
X128777390Y-88374998D01*
X128760044Y-88243239D01*
X128760044Y-88243238D01*
X128699536Y-88097159D01*
X128603282Y-87971718D01*
X128477841Y-87875464D01*
X128420619Y-87851762D01*
X128331762Y-87814956D01*
X128331760Y-87814955D01*
X128175001Y-87794318D01*
X128174999Y-87794318D01*
X128018239Y-87814955D01*
X128018237Y-87814956D01*
X127872160Y-87875463D01*
X127746718Y-87971718D01*
X127650463Y-88097160D01*
X127589956Y-88243237D01*
X127589955Y-88243239D01*
X127569318Y-88399998D01*
X116125500Y-88399998D01*
X116125500Y-87694998D01*
X170144318Y-87694998D01*
X170144318Y-87695001D01*
X170164955Y-87851760D01*
X170164956Y-87851762D01*
X170225464Y-87997841D01*
X170321718Y-88123282D01*
X170447159Y-88219536D01*
X170593238Y-88280044D01*
X170671619Y-88290363D01*
X170749999Y-88300682D01*
X170750000Y-88300682D01*
X170750001Y-88300682D01*
X170802254Y-88293802D01*
X170906762Y-88280044D01*
X171052841Y-88219536D01*
X171178282Y-88123282D01*
X171274536Y-87997841D01*
X171335044Y-87851762D01*
X171348960Y-87746061D01*
X189126778Y-87746061D01*
X189229365Y-87788554D01*
X189229369Y-87788555D01*
X189386000Y-87809176D01*
X189542630Y-87788555D01*
X189542631Y-87788555D01*
X189645220Y-87746061D01*
X190226778Y-87746061D01*
X190329365Y-87788554D01*
X190329369Y-87788555D01*
X190486000Y-87809176D01*
X190642630Y-87788555D01*
X190642631Y-87788555D01*
X190745220Y-87746061D01*
X190486001Y-87486842D01*
X190486000Y-87486842D01*
X190226778Y-87746061D01*
X189645220Y-87746061D01*
X189386001Y-87486842D01*
X189386000Y-87486842D01*
X189126778Y-87746061D01*
X171348960Y-87746061D01*
X171355682Y-87695000D01*
X171353936Y-87681740D01*
X171335044Y-87538239D01*
X171335044Y-87538238D01*
X171274536Y-87392159D01*
X171178282Y-87266718D01*
X171052841Y-87170464D01*
X171002316Y-87149536D01*
X170906762Y-87109956D01*
X170906760Y-87109955D01*
X170750001Y-87089318D01*
X170749999Y-87089318D01*
X170593239Y-87109955D01*
X170593237Y-87109956D01*
X170447160Y-87170463D01*
X170321718Y-87266718D01*
X170225463Y-87392160D01*
X170164956Y-87538237D01*
X170164955Y-87538239D01*
X170144318Y-87694998D01*
X116125500Y-87694998D01*
X116125500Y-87681740D01*
X116115573Y-87613607D01*
X116064198Y-87508517D01*
X116064196Y-87508515D01*
X116064196Y-87508514D01*
X115981485Y-87425803D01*
X115876391Y-87374426D01*
X115808261Y-87364500D01*
X115808260Y-87364500D01*
X114041740Y-87364500D01*
X114041739Y-87364500D01*
X113973608Y-87374426D01*
X113868514Y-87425803D01*
X113785803Y-87508514D01*
X113734426Y-87613608D01*
X113724500Y-87681739D01*
X113724500Y-89448260D01*
X113734426Y-89516391D01*
X113785803Y-89621485D01*
X113868514Y-89704196D01*
X113868515Y-89704196D01*
X113868517Y-89704198D01*
X113973607Y-89755573D01*
X114007673Y-89760536D01*
X114041739Y-89765500D01*
X114396047Y-89765500D01*
X114463086Y-89785185D01*
X114508841Y-89837989D01*
X114518785Y-89907147D01*
X114489760Y-89970703D01*
X114440841Y-90005127D01*
X114387601Y-90025751D01*
X114387595Y-90025754D01*
X114198439Y-90142874D01*
X114198437Y-90142876D01*
X114034020Y-90292761D01*
X113899943Y-90470308D01*
X113899938Y-90470316D01*
X113800775Y-90669461D01*
X113800769Y-90669476D01*
X113739885Y-90883462D01*
X113739884Y-90883464D01*
X113719357Y-91104999D01*
X113719357Y-91105000D01*
X113739884Y-91326535D01*
X113739885Y-91326537D01*
X113800769Y-91540523D01*
X113800775Y-91540538D01*
X113899938Y-91739683D01*
X113899943Y-91739691D01*
X114034020Y-91917238D01*
X114198437Y-92067123D01*
X114198439Y-92067125D01*
X114387595Y-92184245D01*
X114387596Y-92184245D01*
X114387599Y-92184247D01*
X114581524Y-92259374D01*
X114636924Y-92301946D01*
X114660515Y-92367713D01*
X114644804Y-92435793D01*
X114594780Y-92484572D01*
X114581533Y-92490622D01*
X114433488Y-92547975D01*
X114387601Y-92565752D01*
X114387595Y-92565754D01*
X114198439Y-92682874D01*
X114198437Y-92682876D01*
X114034020Y-92832761D01*
X113899943Y-93010308D01*
X113899938Y-93010316D01*
X113800775Y-93209461D01*
X113800769Y-93209476D01*
X113739885Y-93423462D01*
X113739884Y-93423464D01*
X113719357Y-93644999D01*
X113719357Y-93645000D01*
X113739884Y-93866535D01*
X113739885Y-93866537D01*
X113800769Y-94080523D01*
X113800775Y-94080538D01*
X113899938Y-94279683D01*
X113899943Y-94279691D01*
X114034020Y-94457238D01*
X114198437Y-94607123D01*
X114198439Y-94607125D01*
X114387595Y-94724245D01*
X114387596Y-94724245D01*
X114387599Y-94724247D01*
X114581524Y-94799374D01*
X114636924Y-94841946D01*
X114660515Y-94907713D01*
X114644804Y-94975793D01*
X114594780Y-95024572D01*
X114581533Y-95030622D01*
X114433488Y-95087975D01*
X114387601Y-95105752D01*
X114387595Y-95105754D01*
X114198439Y-95222874D01*
X114198437Y-95222876D01*
X114034020Y-95372761D01*
X113899943Y-95550308D01*
X113899938Y-95550316D01*
X113800775Y-95749461D01*
X113800769Y-95749476D01*
X113739885Y-95963462D01*
X113739884Y-95963464D01*
X113719357Y-96184999D01*
X113719357Y-96185000D01*
X113739884Y-96406535D01*
X113739885Y-96406537D01*
X113800769Y-96620523D01*
X113800775Y-96620538D01*
X113899938Y-96819683D01*
X113899943Y-96819691D01*
X114034020Y-96997238D01*
X114198437Y-97147123D01*
X114198439Y-97147125D01*
X114387595Y-97264245D01*
X114387597Y-97264246D01*
X114387599Y-97264247D01*
X114507617Y-97310742D01*
X114563019Y-97353315D01*
X114586610Y-97419081D01*
X114570899Y-97487162D01*
X114520875Y-97535941D01*
X114500851Y-97543812D01*
X114500936Y-97544043D01*
X114495840Y-97545898D01*
X114297612Y-97638333D01*
X114297608Y-97638335D01*
X114118450Y-97763783D01*
X114118444Y-97763788D01*
X113963788Y-97918444D01*
X113963783Y-97918450D01*
X113838335Y-98097608D01*
X113838333Y-98097612D01*
X113745898Y-98295840D01*
X113745894Y-98295849D01*
X113689288Y-98507108D01*
X113689288Y-98507112D01*
X113687723Y-98525000D01*
X110700500Y-98525000D01*
X110700500Y-84856228D01*
X116524500Y-84856228D01*
X116524500Y-85023771D01*
X116557182Y-85188074D01*
X116557184Y-85188082D01*
X116621295Y-85342860D01*
X116714373Y-85482162D01*
X116832837Y-85600626D01*
X116908555Y-85651219D01*
X116972137Y-85693703D01*
X117126918Y-85757816D01*
X117291228Y-85790499D01*
X117291232Y-85790500D01*
X117291233Y-85790500D01*
X117458768Y-85790500D01*
X117458769Y-85790499D01*
X117623082Y-85757816D01*
X117777863Y-85693703D01*
X117917162Y-85600626D01*
X118035626Y-85482162D01*
X118073822Y-85424998D01*
X162819318Y-85424998D01*
X162819318Y-85425001D01*
X162839955Y-85581760D01*
X162839956Y-85581762D01*
X162896933Y-85719318D01*
X162900464Y-85727841D01*
X162996718Y-85853282D01*
X163122159Y-85949536D01*
X163268238Y-86010044D01*
X163336509Y-86019032D01*
X163424999Y-86030682D01*
X163425000Y-86030682D01*
X163425001Y-86030682D01*
X163489739Y-86022159D01*
X163581762Y-86010044D01*
X163727841Y-85949536D01*
X163853282Y-85853282D01*
X163949536Y-85727841D01*
X164010044Y-85581762D01*
X164030682Y-85425000D01*
X164027917Y-85404000D01*
X164010044Y-85268239D01*
X164010044Y-85268238D01*
X163949536Y-85122159D01*
X163853282Y-84996718D01*
X163727841Y-84900464D01*
X163599646Y-84847364D01*
X163581762Y-84839956D01*
X163581760Y-84839955D01*
X163425001Y-84819318D01*
X163424999Y-84819318D01*
X163268239Y-84839955D01*
X163268237Y-84839956D01*
X163122160Y-84900463D01*
X162996718Y-84996718D01*
X162900463Y-85122160D01*
X162839956Y-85268237D01*
X162839955Y-85268239D01*
X162819318Y-85424998D01*
X118073822Y-85424998D01*
X118128703Y-85342863D01*
X118192816Y-85188082D01*
X118225500Y-85023767D01*
X118225500Y-84856233D01*
X118192816Y-84691918D01*
X118128703Y-84537137D01*
X118078455Y-84461936D01*
X118070478Y-84449998D01*
X148169318Y-84449998D01*
X148169318Y-84450001D01*
X148189955Y-84606760D01*
X148189956Y-84606762D01*
X148247124Y-84744779D01*
X148250464Y-84752841D01*
X148346718Y-84878282D01*
X148472159Y-84974536D01*
X148618238Y-85035044D01*
X148696619Y-85045363D01*
X148774999Y-85055682D01*
X148775000Y-85055682D01*
X148775001Y-85055682D01*
X148827254Y-85048802D01*
X148931762Y-85035044D01*
X149077841Y-84974536D01*
X149203282Y-84878282D01*
X149299536Y-84752841D01*
X149360044Y-84606762D01*
X149379036Y-84462500D01*
X149380682Y-84450001D01*
X149380682Y-84449998D01*
X149360044Y-84293239D01*
X149360044Y-84293238D01*
X149299536Y-84147159D01*
X149203282Y-84021718D01*
X149109814Y-83949998D01*
X171969318Y-83949998D01*
X171969318Y-83950001D01*
X171989955Y-84106760D01*
X171989956Y-84106762D01*
X172022900Y-84186297D01*
X172050464Y-84252841D01*
X172146718Y-84378282D01*
X172146720Y-84378283D01*
X172151666Y-84384729D01*
X172149552Y-84386351D01*
X172176740Y-84436142D01*
X172171756Y-84505834D01*
X172150298Y-84539221D01*
X172151666Y-84540271D01*
X172146720Y-84546716D01*
X172146718Y-84546718D01*
X172100645Y-84606762D01*
X172050463Y-84672160D01*
X171989956Y-84818237D01*
X171989955Y-84818239D01*
X171969318Y-84974998D01*
X171969318Y-84975001D01*
X171989955Y-85131760D01*
X171989956Y-85131762D01*
X172013284Y-85188082D01*
X172050464Y-85277841D01*
X172146718Y-85403282D01*
X172173588Y-85423900D01*
X172226009Y-85464125D01*
X172267211Y-85520553D01*
X172271366Y-85590299D01*
X172237153Y-85651219D01*
X172226009Y-85660875D01*
X172146720Y-85721716D01*
X172146719Y-85721717D01*
X172146718Y-85721718D01*
X172093941Y-85790499D01*
X172050463Y-85847160D01*
X171989956Y-85993237D01*
X171989955Y-85993239D01*
X171969318Y-86149998D01*
X171969318Y-86150001D01*
X171989955Y-86306760D01*
X171989956Y-86306762D01*
X172050464Y-86452841D01*
X172146718Y-86578282D01*
X172272159Y-86674536D01*
X172418238Y-86735044D01*
X172496619Y-86745363D01*
X172574999Y-86755682D01*
X172575000Y-86755682D01*
X172575001Y-86755682D01*
X172636883Y-86747535D01*
X172731762Y-86735044D01*
X172877841Y-86674536D01*
X172942400Y-86624998D01*
X183169318Y-86624998D01*
X183169318Y-86625001D01*
X183189955Y-86781760D01*
X183189956Y-86781762D01*
X183250464Y-86927841D01*
X183346718Y-87053282D01*
X183472159Y-87149536D01*
X183618238Y-87210044D01*
X183696619Y-87220363D01*
X183774999Y-87230682D01*
X183775000Y-87230682D01*
X183775001Y-87230682D01*
X183827254Y-87223802D01*
X183931762Y-87210044D01*
X183965520Y-87196061D01*
X188576778Y-87196061D01*
X188679368Y-87238555D01*
X188679366Y-87238555D01*
X188692907Y-87240338D01*
X188756804Y-87268604D01*
X188795275Y-87326929D01*
X188799661Y-87347088D01*
X188801444Y-87360629D01*
X188843936Y-87463219D01*
X189103158Y-87204000D01*
X189103158Y-87203999D01*
X189073322Y-87174163D01*
X189236000Y-87174163D01*
X189236000Y-87233837D01*
X189258836Y-87288968D01*
X189301032Y-87331164D01*
X189356163Y-87354000D01*
X189415837Y-87354000D01*
X189470968Y-87331164D01*
X189513164Y-87288968D01*
X189536000Y-87233837D01*
X189536000Y-87204000D01*
X189668842Y-87204000D01*
X189931295Y-87466453D01*
X189940705Y-87466453D01*
X190203158Y-87204000D01*
X190173321Y-87174163D01*
X190336000Y-87174163D01*
X190336000Y-87233837D01*
X190358836Y-87288968D01*
X190401032Y-87331164D01*
X190456163Y-87354000D01*
X190515837Y-87354000D01*
X190570968Y-87331164D01*
X190613164Y-87288968D01*
X190636000Y-87233837D01*
X190636000Y-87204000D01*
X190768842Y-87204000D01*
X191028061Y-87463220D01*
X191070555Y-87360630D01*
X191072338Y-87347093D01*
X191100604Y-87283196D01*
X191158928Y-87244724D01*
X191179093Y-87240338D01*
X191192630Y-87238555D01*
X191295220Y-87196061D01*
X191036000Y-86936842D01*
X190768842Y-87204000D01*
X190636000Y-87204000D01*
X190636000Y-87174163D01*
X190613164Y-87119032D01*
X190570968Y-87076836D01*
X190515837Y-87054000D01*
X190456163Y-87054000D01*
X190401032Y-87076836D01*
X190358836Y-87119032D01*
X190336000Y-87174163D01*
X190173321Y-87174163D01*
X189936000Y-86936842D01*
X189668842Y-87204000D01*
X189536000Y-87204000D01*
X189536000Y-87174163D01*
X189513164Y-87119032D01*
X189470968Y-87076836D01*
X189415837Y-87054000D01*
X189356163Y-87054000D01*
X189301032Y-87076836D01*
X189258836Y-87119032D01*
X189236000Y-87174163D01*
X189073322Y-87174163D01*
X188836001Y-86936842D01*
X188836000Y-86936842D01*
X188576778Y-87196061D01*
X183965520Y-87196061D01*
X184077841Y-87149536D01*
X184203282Y-87053282D01*
X184299536Y-86927841D01*
X184359721Y-86782540D01*
X184403562Y-86728137D01*
X184469856Y-86706072D01*
X184537555Y-86723351D01*
X184565422Y-86748083D01*
X184565971Y-86747535D01*
X184571713Y-86753277D01*
X184571715Y-86753279D01*
X184571718Y-86753282D01*
X184697159Y-86849536D01*
X184843238Y-86910044D01*
X184921619Y-86920363D01*
X184999999Y-86930682D01*
X185000000Y-86930682D01*
X185000001Y-86930682D01*
X185072342Y-86921158D01*
X185156762Y-86910044D01*
X185302841Y-86849536D01*
X185428282Y-86753282D01*
X185504464Y-86654000D01*
X188230823Y-86654000D01*
X188251443Y-86810629D01*
X188293936Y-86913219D01*
X188553158Y-86654000D01*
X188523321Y-86624163D01*
X188686000Y-86624163D01*
X188686000Y-86683837D01*
X188708836Y-86738968D01*
X188751032Y-86781164D01*
X188806163Y-86804000D01*
X188865837Y-86804000D01*
X188920968Y-86781164D01*
X188963164Y-86738968D01*
X188986000Y-86683837D01*
X188986000Y-86654000D01*
X189118842Y-86654000D01*
X189386000Y-86921158D01*
X189653158Y-86654000D01*
X189623321Y-86624163D01*
X189786000Y-86624163D01*
X189786000Y-86683837D01*
X189808836Y-86738968D01*
X189851032Y-86781164D01*
X189906163Y-86804000D01*
X189965837Y-86804000D01*
X190020968Y-86781164D01*
X190063164Y-86738968D01*
X190086000Y-86683837D01*
X190086000Y-86654000D01*
X190218842Y-86654000D01*
X190486000Y-86921158D01*
X190753158Y-86654000D01*
X190723321Y-86624163D01*
X190886000Y-86624163D01*
X190886000Y-86683837D01*
X190908836Y-86738968D01*
X190951032Y-86781164D01*
X191006163Y-86804000D01*
X191065837Y-86804000D01*
X191120968Y-86781164D01*
X191163164Y-86738968D01*
X191186000Y-86683837D01*
X191186000Y-86653999D01*
X191318842Y-86653999D01*
X191318842Y-86654001D01*
X191578061Y-86913220D01*
X191620555Y-86810631D01*
X191620555Y-86810630D01*
X191641176Y-86654000D01*
X191620555Y-86497369D01*
X191620554Y-86497365D01*
X191578061Y-86394778D01*
X191318842Y-86653999D01*
X191186000Y-86653999D01*
X191186000Y-86624163D01*
X191163164Y-86569032D01*
X191120968Y-86526836D01*
X191065837Y-86504000D01*
X191006163Y-86504000D01*
X190951032Y-86526836D01*
X190908836Y-86569032D01*
X190886000Y-86624163D01*
X190723321Y-86624163D01*
X190486000Y-86386842D01*
X190218842Y-86654000D01*
X190086000Y-86654000D01*
X190086000Y-86624163D01*
X190063164Y-86569032D01*
X190020968Y-86526836D01*
X189965837Y-86504000D01*
X189906163Y-86504000D01*
X189851032Y-86526836D01*
X189808836Y-86569032D01*
X189786000Y-86624163D01*
X189623321Y-86624163D01*
X189386000Y-86386842D01*
X189118842Y-86654000D01*
X188986000Y-86654000D01*
X188986000Y-86624163D01*
X188963164Y-86569032D01*
X188920968Y-86526836D01*
X188865837Y-86504000D01*
X188806163Y-86504000D01*
X188751032Y-86526836D01*
X188708836Y-86569032D01*
X188686000Y-86624163D01*
X188523321Y-86624163D01*
X188293937Y-86394779D01*
X188293936Y-86394779D01*
X188251444Y-86497365D01*
X188230823Y-86654000D01*
X185504464Y-86654000D01*
X185524536Y-86627841D01*
X185585044Y-86481762D01*
X185605682Y-86325000D01*
X185585044Y-86168238D01*
X185556487Y-86099295D01*
X188573545Y-86099295D01*
X188573545Y-86108704D01*
X188835999Y-86371158D01*
X189103158Y-86104000D01*
X189103158Y-86103999D01*
X189073322Y-86074163D01*
X189236000Y-86074163D01*
X189236000Y-86133837D01*
X189258836Y-86188968D01*
X189301032Y-86231164D01*
X189356163Y-86254000D01*
X189415837Y-86254000D01*
X189470968Y-86231164D01*
X189513164Y-86188968D01*
X189536000Y-86133837D01*
X189536000Y-86104000D01*
X189668842Y-86104000D01*
X189936000Y-86371158D01*
X190203158Y-86104000D01*
X190173321Y-86074163D01*
X190336000Y-86074163D01*
X190336000Y-86133837D01*
X190358836Y-86188968D01*
X190401032Y-86231164D01*
X190456163Y-86254000D01*
X190515837Y-86254000D01*
X190570968Y-86231164D01*
X190613164Y-86188968D01*
X190636000Y-86133837D01*
X190636000Y-86104000D01*
X190768842Y-86104000D01*
X191036000Y-86371158D01*
X191036001Y-86371158D01*
X191298453Y-86108705D01*
X191298453Y-86099295D01*
X191109156Y-85909998D01*
X194254318Y-85909998D01*
X194254318Y-85910001D01*
X194274955Y-86066760D01*
X194274956Y-86066762D01*
X194328785Y-86196718D01*
X194335464Y-86212841D01*
X194431718Y-86338282D01*
X194557159Y-86434536D01*
X194703238Y-86495044D01*
X194771266Y-86504000D01*
X194859999Y-86515682D01*
X194860000Y-86515682D01*
X194860001Y-86515682D01*
X194912254Y-86508802D01*
X195016762Y-86495044D01*
X195162841Y-86434536D01*
X195288282Y-86338282D01*
X195384536Y-86212841D01*
X195445044Y-86066762D01*
X195465682Y-85910000D01*
X195463933Y-85896718D01*
X195445647Y-85757816D01*
X195445044Y-85753238D01*
X195384536Y-85607159D01*
X195288282Y-85481718D01*
X195162841Y-85385464D01*
X195016762Y-85324956D01*
X195016760Y-85324955D01*
X194860001Y-85304318D01*
X194859999Y-85304318D01*
X194703239Y-85324955D01*
X194703237Y-85324956D01*
X194557160Y-85385463D01*
X194431718Y-85481718D01*
X194335463Y-85607160D01*
X194274956Y-85753237D01*
X194274955Y-85753239D01*
X194254318Y-85909998D01*
X191109156Y-85909998D01*
X191036000Y-85836842D01*
X190768842Y-86104000D01*
X190636000Y-86104000D01*
X190636000Y-86074163D01*
X190613164Y-86019032D01*
X190570968Y-85976836D01*
X190515837Y-85954000D01*
X190456163Y-85954000D01*
X190401032Y-85976836D01*
X190358836Y-86019032D01*
X190336000Y-86074163D01*
X190173321Y-86074163D01*
X189936000Y-85836842D01*
X189668842Y-86104000D01*
X189536000Y-86104000D01*
X189536000Y-86074163D01*
X189513164Y-86019032D01*
X189470968Y-85976836D01*
X189415837Y-85954000D01*
X189356163Y-85954000D01*
X189301032Y-85976836D01*
X189258836Y-86019032D01*
X189236000Y-86074163D01*
X189073322Y-86074163D01*
X188836001Y-85836842D01*
X188573545Y-86099295D01*
X185556487Y-86099295D01*
X185524536Y-86022159D01*
X185428282Y-85896718D01*
X185302841Y-85800464D01*
X185278783Y-85790499D01*
X185156762Y-85739956D01*
X185156760Y-85739955D01*
X185000001Y-85719318D01*
X184999999Y-85719318D01*
X184843239Y-85739955D01*
X184843237Y-85739956D01*
X184697160Y-85800463D01*
X184571718Y-85896718D01*
X184475463Y-86022160D01*
X184415278Y-86167459D01*
X184371437Y-86221863D01*
X184305142Y-86243927D01*
X184237443Y-86226647D01*
X184209577Y-86201916D01*
X184209029Y-86202465D01*
X184203286Y-86196722D01*
X184203283Y-86196720D01*
X184203282Y-86196718D01*
X184077841Y-86100464D01*
X183996472Y-86066760D01*
X183931762Y-86039956D01*
X183931760Y-86039955D01*
X183775001Y-86019318D01*
X183774999Y-86019318D01*
X183618239Y-86039955D01*
X183618237Y-86039956D01*
X183472160Y-86100463D01*
X183346718Y-86196718D01*
X183250463Y-86322160D01*
X183189956Y-86468237D01*
X183189955Y-86468239D01*
X183169318Y-86624998D01*
X172942400Y-86624998D01*
X173003282Y-86578282D01*
X173099536Y-86452841D01*
X173160044Y-86306762D01*
X173174531Y-86196722D01*
X173180682Y-86150001D01*
X173180682Y-86149998D01*
X173166923Y-86045492D01*
X173160044Y-85993238D01*
X173099536Y-85847159D01*
X173003282Y-85721718D01*
X172923988Y-85660874D01*
X172882788Y-85604448D01*
X172878633Y-85534702D01*
X172912845Y-85473781D01*
X172923982Y-85464130D01*
X173003282Y-85403282D01*
X173099536Y-85277841D01*
X173111069Y-85249998D01*
X182219318Y-85249998D01*
X182219318Y-85250001D01*
X182239955Y-85406760D01*
X182239956Y-85406762D01*
X182292950Y-85534702D01*
X182300464Y-85552841D01*
X182396718Y-85678282D01*
X182522159Y-85774536D01*
X182668238Y-85835044D01*
X182746619Y-85845363D01*
X182824999Y-85855682D01*
X182825000Y-85855682D01*
X182825001Y-85855682D01*
X182889739Y-85847159D01*
X182981762Y-85835044D01*
X183127841Y-85774536D01*
X183253282Y-85678282D01*
X183348647Y-85554000D01*
X188230823Y-85554000D01*
X188251443Y-85710629D01*
X188293936Y-85813219D01*
X188553158Y-85554000D01*
X188523321Y-85524163D01*
X188686000Y-85524163D01*
X188686000Y-85583837D01*
X188708836Y-85638968D01*
X188751032Y-85681164D01*
X188806163Y-85704000D01*
X188865837Y-85704000D01*
X188920968Y-85681164D01*
X188963164Y-85638968D01*
X188986000Y-85583837D01*
X188986000Y-85554000D01*
X189118842Y-85554000D01*
X189386000Y-85821158D01*
X189653158Y-85554000D01*
X189623321Y-85524163D01*
X189786000Y-85524163D01*
X189786000Y-85583837D01*
X189808836Y-85638968D01*
X189851032Y-85681164D01*
X189906163Y-85704000D01*
X189965837Y-85704000D01*
X190020968Y-85681164D01*
X190063164Y-85638968D01*
X190086000Y-85583837D01*
X190086000Y-85554000D01*
X190218842Y-85554000D01*
X190486000Y-85821158D01*
X190753158Y-85554000D01*
X190723321Y-85524163D01*
X190886000Y-85524163D01*
X190886000Y-85583837D01*
X190908836Y-85638968D01*
X190951032Y-85681164D01*
X191006163Y-85704000D01*
X191065837Y-85704000D01*
X191120968Y-85681164D01*
X191163164Y-85638968D01*
X191186000Y-85583837D01*
X191186000Y-85553999D01*
X191318842Y-85553999D01*
X191318842Y-85554001D01*
X191578061Y-85813220D01*
X191620555Y-85710631D01*
X191620555Y-85710630D01*
X191641176Y-85554000D01*
X191620555Y-85397369D01*
X191620554Y-85397365D01*
X191578061Y-85294778D01*
X191318842Y-85553999D01*
X191186000Y-85553999D01*
X191186000Y-85524163D01*
X191163164Y-85469032D01*
X191120968Y-85426836D01*
X191065837Y-85404000D01*
X191006163Y-85404000D01*
X190951032Y-85426836D01*
X190908836Y-85469032D01*
X190886000Y-85524163D01*
X190723321Y-85524163D01*
X190486000Y-85286842D01*
X190218842Y-85554000D01*
X190086000Y-85554000D01*
X190086000Y-85524163D01*
X190063164Y-85469032D01*
X190020968Y-85426836D01*
X189965837Y-85404000D01*
X189906163Y-85404000D01*
X189851032Y-85426836D01*
X189808836Y-85469032D01*
X189786000Y-85524163D01*
X189623321Y-85524163D01*
X189386000Y-85286842D01*
X189118842Y-85554000D01*
X188986000Y-85554000D01*
X188986000Y-85524163D01*
X188963164Y-85469032D01*
X188920968Y-85426836D01*
X188865837Y-85404000D01*
X188806163Y-85404000D01*
X188751032Y-85426836D01*
X188708836Y-85469032D01*
X188686000Y-85524163D01*
X188523321Y-85524163D01*
X188293937Y-85294779D01*
X188293936Y-85294779D01*
X188251444Y-85397365D01*
X188230823Y-85554000D01*
X183348647Y-85554000D01*
X183349536Y-85552841D01*
X183410044Y-85406762D01*
X183430682Y-85250000D01*
X183410044Y-85093238D01*
X183376368Y-85011936D01*
X188576779Y-85011936D01*
X188576779Y-85011937D01*
X188836000Y-85271158D01*
X189103158Y-85004000D01*
X189073321Y-84974163D01*
X189236000Y-84974163D01*
X189236000Y-85033837D01*
X189258836Y-85088968D01*
X189301032Y-85131164D01*
X189356163Y-85154000D01*
X189415837Y-85154000D01*
X189470968Y-85131164D01*
X189513164Y-85088968D01*
X189536000Y-85033837D01*
X189536000Y-85004000D01*
X189668842Y-85004000D01*
X189935999Y-85271158D01*
X190203158Y-85004000D01*
X190203158Y-85003999D01*
X190173322Y-84974163D01*
X190336000Y-84974163D01*
X190336000Y-85033837D01*
X190358836Y-85088968D01*
X190401032Y-85131164D01*
X190456163Y-85154000D01*
X190515837Y-85154000D01*
X190570968Y-85131164D01*
X190613164Y-85088968D01*
X190636000Y-85033837D01*
X190636000Y-85003999D01*
X190768842Y-85003999D01*
X190768842Y-85004000D01*
X191036000Y-85271158D01*
X191036001Y-85271158D01*
X191295220Y-85011937D01*
X191192629Y-84969444D01*
X191179088Y-84967661D01*
X191115192Y-84939392D01*
X191076723Y-84881066D01*
X191072338Y-84860907D01*
X191070555Y-84847367D01*
X191028061Y-84744778D01*
X190768842Y-85003999D01*
X190636000Y-85003999D01*
X190636000Y-84974163D01*
X190613164Y-84919032D01*
X190570968Y-84876836D01*
X190515837Y-84854000D01*
X190456163Y-84854000D01*
X190401032Y-84876836D01*
X190358836Y-84919032D01*
X190336000Y-84974163D01*
X190173322Y-84974163D01*
X189940704Y-84741545D01*
X189931295Y-84741545D01*
X189668842Y-85004000D01*
X189536000Y-85004000D01*
X189536000Y-84974163D01*
X189513164Y-84919032D01*
X189470968Y-84876836D01*
X189415837Y-84854000D01*
X189356163Y-84854000D01*
X189301032Y-84876836D01*
X189258836Y-84919032D01*
X189236000Y-84974163D01*
X189073321Y-84974163D01*
X188843937Y-84744779D01*
X188843936Y-84744779D01*
X188801445Y-84847364D01*
X188799661Y-84860912D01*
X188771392Y-84924807D01*
X188713066Y-84963276D01*
X188692912Y-84967661D01*
X188679364Y-84969445D01*
X188576779Y-85011936D01*
X183376368Y-85011936D01*
X183349536Y-84947159D01*
X183253282Y-84821718D01*
X183127841Y-84725464D01*
X183117445Y-84721158D01*
X182981762Y-84664956D01*
X182981760Y-84664955D01*
X182825001Y-84644318D01*
X182824999Y-84644318D01*
X182668239Y-84664955D01*
X182668237Y-84664956D01*
X182522160Y-84725463D01*
X182396718Y-84821718D01*
X182300463Y-84947160D01*
X182239956Y-85093237D01*
X182239955Y-85093239D01*
X182219318Y-85249998D01*
X173111069Y-85249998D01*
X173160044Y-85131762D01*
X173180682Y-84975000D01*
X173160044Y-84818238D01*
X173099536Y-84672159D01*
X173003282Y-84546718D01*
X173003279Y-84546716D01*
X172998334Y-84540271D01*
X173000447Y-84538648D01*
X172973260Y-84488858D01*
X172975185Y-84461936D01*
X189126779Y-84461936D01*
X189126779Y-84461937D01*
X189386000Y-84721158D01*
X189386001Y-84721158D01*
X189645220Y-84461937D01*
X189645218Y-84461936D01*
X190226779Y-84461936D01*
X190226779Y-84461937D01*
X190486000Y-84721158D01*
X190486001Y-84721158D01*
X190745220Y-84461937D01*
X190642629Y-84419443D01*
X190486000Y-84398823D01*
X190329365Y-84419444D01*
X190226779Y-84461936D01*
X189645218Y-84461936D01*
X189542629Y-84419443D01*
X189386000Y-84398823D01*
X189229365Y-84419444D01*
X189126779Y-84461936D01*
X172975185Y-84461936D01*
X172978244Y-84419166D01*
X172999701Y-84385778D01*
X172998334Y-84384729D01*
X173003279Y-84378284D01*
X173003282Y-84378282D01*
X173099536Y-84252841D01*
X173160044Y-84106762D01*
X173180682Y-83950000D01*
X173174989Y-83906760D01*
X173160044Y-83793239D01*
X173160044Y-83793238D01*
X173142133Y-83749998D01*
X181644318Y-83749998D01*
X181644318Y-83750001D01*
X181664955Y-83906760D01*
X181664956Y-83906762D01*
X181725464Y-84052841D01*
X181821718Y-84178282D01*
X181947159Y-84274536D01*
X182093238Y-84335044D01*
X182171619Y-84345363D01*
X182249999Y-84355682D01*
X182250000Y-84355682D01*
X182250001Y-84355682D01*
X182302254Y-84348802D01*
X182406762Y-84335044D01*
X182552841Y-84274536D01*
X182678282Y-84178282D01*
X182774536Y-84052841D01*
X182835044Y-83906762D01*
X182855682Y-83750000D01*
X182835044Y-83593238D01*
X182774536Y-83447159D01*
X182678282Y-83321718D01*
X182552841Y-83225464D01*
X182406762Y-83164956D01*
X182406760Y-83164955D01*
X182250001Y-83144318D01*
X182249999Y-83144318D01*
X182093239Y-83164955D01*
X182093237Y-83164956D01*
X181947160Y-83225463D01*
X181821718Y-83321718D01*
X181725463Y-83447160D01*
X181664956Y-83593237D01*
X181664955Y-83593239D01*
X181644318Y-83749998D01*
X173142133Y-83749998D01*
X173099536Y-83647159D01*
X173003282Y-83521718D01*
X172877841Y-83425464D01*
X172731762Y-83364956D01*
X172731760Y-83364955D01*
X172575001Y-83344318D01*
X172574999Y-83344318D01*
X172418239Y-83364955D01*
X172418237Y-83364956D01*
X172272160Y-83425463D01*
X172146718Y-83521718D01*
X172050463Y-83647160D01*
X171989956Y-83793237D01*
X171989955Y-83793239D01*
X171969318Y-83949998D01*
X149109814Y-83949998D01*
X149077841Y-83925464D01*
X149032690Y-83906762D01*
X148931762Y-83864956D01*
X148931760Y-83864955D01*
X148775001Y-83844318D01*
X148774999Y-83844318D01*
X148618239Y-83864955D01*
X148618237Y-83864956D01*
X148472160Y-83925463D01*
X148346718Y-84021718D01*
X148250463Y-84147160D01*
X148189956Y-84293237D01*
X148189955Y-84293239D01*
X148169318Y-84449998D01*
X118070478Y-84449998D01*
X118035626Y-84397837D01*
X117917162Y-84279373D01*
X117777860Y-84186295D01*
X117623082Y-84122184D01*
X117623074Y-84122182D01*
X117458771Y-84089500D01*
X117458767Y-84089500D01*
X117291233Y-84089500D01*
X117291228Y-84089500D01*
X117126925Y-84122182D01*
X117126917Y-84122184D01*
X116972139Y-84186295D01*
X116832837Y-84279373D01*
X116714373Y-84397837D01*
X116621295Y-84537139D01*
X116557184Y-84691917D01*
X116557182Y-84691925D01*
X116524500Y-84856228D01*
X110700500Y-84856228D01*
X110700500Y-82552739D01*
X114270500Y-82552739D01*
X114270500Y-84127260D01*
X114280426Y-84195391D01*
X114331803Y-84300485D01*
X114414514Y-84383196D01*
X114414515Y-84383196D01*
X114414517Y-84383198D01*
X114519607Y-84434573D01*
X114530376Y-84436142D01*
X114587739Y-84444500D01*
X114587740Y-84444500D01*
X116162261Y-84444500D01*
X116184971Y-84441191D01*
X116230393Y-84434573D01*
X116335483Y-84383198D01*
X116418198Y-84300483D01*
X116469573Y-84195393D01*
X116479500Y-84127260D01*
X116479500Y-83749998D01*
X127544318Y-83749998D01*
X127544318Y-83750001D01*
X127564955Y-83906760D01*
X127564956Y-83906762D01*
X127625464Y-84052841D01*
X127721718Y-84178282D01*
X127847159Y-84274536D01*
X127993238Y-84335044D01*
X128071619Y-84345363D01*
X128149999Y-84355682D01*
X128150000Y-84355682D01*
X128150001Y-84355682D01*
X128202254Y-84348802D01*
X128306762Y-84335044D01*
X128452841Y-84274536D01*
X128578282Y-84178282D01*
X128674536Y-84052841D01*
X128735044Y-83906762D01*
X128755682Y-83750000D01*
X128735044Y-83593238D01*
X128674536Y-83447159D01*
X128578282Y-83321718D01*
X128452841Y-83225464D01*
X128306762Y-83164956D01*
X128306760Y-83164955D01*
X128150001Y-83144318D01*
X128149999Y-83144318D01*
X127993239Y-83164955D01*
X127993237Y-83164956D01*
X127847160Y-83225463D01*
X127721718Y-83321718D01*
X127625463Y-83447160D01*
X127564956Y-83593237D01*
X127564955Y-83593239D01*
X127544318Y-83749998D01*
X116479500Y-83749998D01*
X116479500Y-82552740D01*
X116476443Y-82531762D01*
X116469573Y-82484608D01*
X116469573Y-82484607D01*
X116418198Y-82379517D01*
X116418196Y-82379515D01*
X116418196Y-82379514D01*
X116335485Y-82296803D01*
X116230391Y-82245426D01*
X116162261Y-82235500D01*
X116162260Y-82235500D01*
X114587740Y-82235500D01*
X114587739Y-82235500D01*
X114519608Y-82245426D01*
X114414514Y-82296803D01*
X114331803Y-82379514D01*
X114280426Y-82484608D01*
X114270500Y-82552739D01*
X110700500Y-82552739D01*
X110700500Y-81949998D01*
X162819318Y-81949998D01*
X162819318Y-81950001D01*
X162839955Y-82106760D01*
X162839956Y-82106762D01*
X162897392Y-82245426D01*
X162900464Y-82252841D01*
X162996718Y-82378282D01*
X163122159Y-82474536D01*
X163268238Y-82535044D01*
X163346619Y-82545363D01*
X163424999Y-82555682D01*
X163425000Y-82555682D01*
X163425001Y-82555682D01*
X163477254Y-82548802D01*
X163581762Y-82535044D01*
X163727841Y-82474536D01*
X163853282Y-82378282D01*
X163949536Y-82252841D01*
X164010044Y-82106762D01*
X164030682Y-81950000D01*
X164024454Y-81902697D01*
X164010044Y-81793239D01*
X164010044Y-81793238D01*
X163949536Y-81647159D01*
X163853282Y-81521718D01*
X163727841Y-81425464D01*
X163726723Y-81425001D01*
X163581762Y-81364956D01*
X163581760Y-81364955D01*
X163425001Y-81344318D01*
X163424999Y-81344318D01*
X163268239Y-81364955D01*
X163268237Y-81364956D01*
X163122160Y-81425463D01*
X162996718Y-81521718D01*
X162900463Y-81647160D01*
X162839956Y-81793237D01*
X162839955Y-81793239D01*
X162819318Y-81949998D01*
X110700500Y-81949998D01*
X110700500Y-80839999D01*
X114265768Y-80839999D01*
X114265768Y-80840000D01*
X114284654Y-81043816D01*
X114284654Y-81043818D01*
X114284655Y-81043821D01*
X114340672Y-81240701D01*
X114340673Y-81240704D01*
X114431912Y-81423935D01*
X114555269Y-81587287D01*
X114706537Y-81725185D01*
X114706539Y-81725187D01*
X114880569Y-81832942D01*
X114880575Y-81832945D01*
X114910395Y-81844497D01*
X115071444Y-81906888D01*
X115272653Y-81944500D01*
X115272656Y-81944500D01*
X115477344Y-81944500D01*
X115477347Y-81944500D01*
X115678556Y-81906888D01*
X115869427Y-81832944D01*
X116043462Y-81725186D01*
X116194732Y-81587285D01*
X116318088Y-81423935D01*
X116409328Y-81240701D01*
X116465345Y-81043821D01*
X116484232Y-80840000D01*
X116465345Y-80636179D01*
X116409328Y-80439299D01*
X116318088Y-80256065D01*
X116216967Y-80122159D01*
X116194730Y-80092712D01*
X116043462Y-79954814D01*
X116043460Y-79954812D01*
X115869430Y-79847057D01*
X115869424Y-79847054D01*
X115684627Y-79775464D01*
X115678556Y-79773112D01*
X115477347Y-79735500D01*
X115272653Y-79735500D01*
X115071444Y-79773112D01*
X115071441Y-79773112D01*
X115071441Y-79773113D01*
X114880575Y-79847054D01*
X114880569Y-79847057D01*
X114706539Y-79954812D01*
X114706537Y-79954814D01*
X114555269Y-80092712D01*
X114431912Y-80256064D01*
X114340673Y-80439295D01*
X114340672Y-80439299D01*
X114289678Y-80618527D01*
X114284654Y-80636183D01*
X114265768Y-80839999D01*
X110700500Y-80839999D01*
X110700500Y-75839999D01*
X114216056Y-75839999D01*
X114216056Y-75840000D01*
X114235788Y-76052954D01*
X114235789Y-76052956D01*
X114294315Y-76258654D01*
X114294321Y-76258669D01*
X114389642Y-76450099D01*
X114389647Y-76450107D01*
X114429404Y-76502753D01*
X114906980Y-76025177D01*
X114909075Y-76032993D01*
X114974901Y-76147007D01*
X115067993Y-76240099D01*
X115182007Y-76305925D01*
X115189822Y-76308019D01*
X114711414Y-76786425D01*
X114858415Y-76877444D01*
X114858416Y-76877445D01*
X115057837Y-76954700D01*
X115264268Y-76993289D01*
X115326549Y-77024957D01*
X115361822Y-77085269D01*
X115358888Y-77155077D01*
X115318680Y-77212218D01*
X115264268Y-77237067D01*
X115171392Y-77254428D01*
X115071444Y-77273112D01*
X115071441Y-77273112D01*
X115071441Y-77273113D01*
X114880575Y-77347054D01*
X114880569Y-77347057D01*
X114706539Y-77454812D01*
X114706537Y-77454814D01*
X114555269Y-77592712D01*
X114431912Y-77756064D01*
X114340673Y-77939295D01*
X114339551Y-77943238D01*
X114285605Y-78132842D01*
X114284654Y-78136183D01*
X114265768Y-78339999D01*
X114265768Y-78340000D01*
X114284654Y-78543816D01*
X114284654Y-78543818D01*
X114284655Y-78543821D01*
X114328186Y-78696818D01*
X114340673Y-78740704D01*
X114431912Y-78923935D01*
X114555269Y-79087287D01*
X114706537Y-79225185D01*
X114706539Y-79225187D01*
X114880569Y-79332942D01*
X114880575Y-79332945D01*
X114916128Y-79346718D01*
X115071444Y-79406888D01*
X115272653Y-79444500D01*
X115272656Y-79444500D01*
X115477344Y-79444500D01*
X115477347Y-79444500D01*
X115678556Y-79406888D01*
X115869427Y-79332944D01*
X116043462Y-79225186D01*
X116194732Y-79087285D01*
X116318088Y-78923935D01*
X116409328Y-78740701D01*
X116465345Y-78543821D01*
X116484232Y-78340000D01*
X116465345Y-78136179D01*
X116455051Y-78099998D01*
X130944318Y-78099998D01*
X130944318Y-78100001D01*
X130964955Y-78256760D01*
X130964956Y-78256762D01*
X131025464Y-78402841D01*
X131121718Y-78528282D01*
X131247159Y-78624536D01*
X131393238Y-78685044D01*
X131393240Y-78685044D01*
X131394669Y-78685636D01*
X131449073Y-78729476D01*
X131471138Y-78795770D01*
X131453859Y-78863470D01*
X131445593Y-78875683D01*
X131350464Y-78999657D01*
X131289956Y-79145737D01*
X131289955Y-79145739D01*
X131269318Y-79302498D01*
X131269318Y-79302501D01*
X131289955Y-79459260D01*
X131289956Y-79459262D01*
X131350464Y-79605341D01*
X131446718Y-79730782D01*
X131572159Y-79827036D01*
X131718238Y-79887544D01*
X131796619Y-79897863D01*
X131874999Y-79908182D01*
X131875000Y-79908182D01*
X131875001Y-79908182D01*
X131933632Y-79900463D01*
X132031762Y-79887544D01*
X132177841Y-79827036D01*
X132303282Y-79730782D01*
X132399536Y-79605341D01*
X132460044Y-79459262D01*
X132480682Y-79302500D01*
X132480131Y-79298318D01*
X132460044Y-79145739D01*
X132460044Y-79145738D01*
X132399536Y-78999659D01*
X132303282Y-78874218D01*
X132177841Y-78777964D01*
X132031762Y-78717456D01*
X132031760Y-78717455D01*
X132030329Y-78716863D01*
X131975926Y-78673022D01*
X131953861Y-78606728D01*
X131971140Y-78539029D01*
X131979402Y-78526822D01*
X132074536Y-78402841D01*
X132135044Y-78256762D01*
X132155682Y-78100000D01*
X132153018Y-78079767D01*
X132139802Y-77979382D01*
X132135044Y-77943238D01*
X132096423Y-77850000D01*
X146953642Y-77850000D01*
X146973026Y-78046814D01*
X147030439Y-78236078D01*
X147122097Y-78407558D01*
X147122098Y-78407558D01*
X147616954Y-77912703D01*
X147636352Y-77985095D01*
X147682430Y-78064905D01*
X147747595Y-78130070D01*
X147827405Y-78176148D01*
X147899796Y-78195545D01*
X147404939Y-78690401D01*
X147457893Y-78718705D01*
X147507737Y-78767667D01*
X147523198Y-78835805D01*
X147499366Y-78901484D01*
X147457896Y-78937420D01*
X147429645Y-78952521D01*
X147429642Y-78952523D01*
X147284300Y-79071800D01*
X147165023Y-79217142D01*
X147165018Y-79217148D01*
X147076391Y-79382959D01*
X147021811Y-79562882D01*
X147021810Y-79562884D01*
X147003382Y-79750000D01*
X147021810Y-79937115D01*
X147021811Y-79937117D01*
X147076391Y-80117040D01*
X147165018Y-80282851D01*
X147165023Y-80282857D01*
X147284300Y-80428199D01*
X147429642Y-80547476D01*
X147429648Y-80547481D01*
X147595459Y-80636108D01*
X147595461Y-80636109D01*
X147772969Y-80689956D01*
X147775382Y-80690688D01*
X147775384Y-80690689D01*
X147792160Y-80692341D01*
X147962500Y-80709118D01*
X148149615Y-80690689D01*
X148329539Y-80636109D01*
X148391779Y-80602841D01*
X148495351Y-80547481D01*
X148495353Y-80547478D01*
X148495357Y-80547477D01*
X148640699Y-80428199D01*
X148745910Y-80299998D01*
X152444318Y-80299998D01*
X152444318Y-80300001D01*
X152464955Y-80456760D01*
X152464956Y-80456762D01*
X152525464Y-80602841D01*
X152621718Y-80728282D01*
X152747159Y-80824536D01*
X152893238Y-80885044D01*
X152965398Y-80894544D01*
X153049999Y-80905682D01*
X153050000Y-80905682D01*
X153050001Y-80905682D01*
X153134594Y-80894545D01*
X153206762Y-80885044D01*
X153352841Y-80824536D01*
X153478282Y-80728282D01*
X153574536Y-80602841D01*
X153635044Y-80456762D01*
X153655682Y-80300000D01*
X153653424Y-80282851D01*
X153635044Y-80143239D01*
X153635044Y-80143238D01*
X153574536Y-79997159D01*
X153478282Y-79871718D01*
X153352841Y-79775464D01*
X153351723Y-79775001D01*
X153351716Y-79774998D01*
X158344318Y-79774998D01*
X158344318Y-79775001D01*
X158364955Y-79931760D01*
X158364956Y-79931762D01*
X158418389Y-80060762D01*
X158425464Y-80077841D01*
X158521718Y-80203282D01*
X158647159Y-80299536D01*
X158793238Y-80360044D01*
X158871619Y-80370363D01*
X158949999Y-80380682D01*
X158950000Y-80380682D01*
X158950001Y-80380682D01*
X159002254Y-80373802D01*
X159106762Y-80360044D01*
X159252841Y-80299536D01*
X159378282Y-80203282D01*
X159474536Y-80077841D01*
X159535044Y-79931762D01*
X159555682Y-79775000D01*
X159555433Y-79773112D01*
X159552390Y-79749998D01*
X160919318Y-79749998D01*
X160919318Y-79750001D01*
X160939955Y-79906760D01*
X160939956Y-79906762D01*
X160996933Y-80044318D01*
X161000464Y-80052841D01*
X161096718Y-80178282D01*
X161222159Y-80274536D01*
X161368238Y-80335044D01*
X161446619Y-80345363D01*
X161524999Y-80355682D01*
X161525000Y-80355682D01*
X161525001Y-80355682D01*
X161589739Y-80347159D01*
X161681762Y-80335044D01*
X161827841Y-80274536D01*
X161953282Y-80178282D01*
X162049536Y-80052841D01*
X162110044Y-79906762D01*
X162130682Y-79750000D01*
X162130318Y-79747238D01*
X162110044Y-79593239D01*
X162110044Y-79593238D01*
X162049536Y-79447159D01*
X161953282Y-79321718D01*
X161827841Y-79225464D01*
X161827172Y-79225187D01*
X161681762Y-79164956D01*
X161681760Y-79164955D01*
X161525001Y-79144318D01*
X161524999Y-79144318D01*
X161368239Y-79164955D01*
X161368237Y-79164956D01*
X161222160Y-79225463D01*
X161096718Y-79321718D01*
X161000463Y-79447160D01*
X160939956Y-79593237D01*
X160939955Y-79593239D01*
X160919318Y-79749998D01*
X159552390Y-79749998D01*
X159535044Y-79618239D01*
X159535044Y-79618238D01*
X159474536Y-79472159D01*
X159378282Y-79346718D01*
X159252841Y-79250464D01*
X159243797Y-79246718D01*
X159106762Y-79189956D01*
X159106760Y-79189955D01*
X158950001Y-79169318D01*
X158949999Y-79169318D01*
X158793239Y-79189955D01*
X158793237Y-79189956D01*
X158647160Y-79250463D01*
X158521718Y-79346718D01*
X158425463Y-79472160D01*
X158364956Y-79618237D01*
X158364955Y-79618239D01*
X158344318Y-79774998D01*
X153351716Y-79774998D01*
X153206762Y-79714956D01*
X153206760Y-79714955D01*
X153050001Y-79694318D01*
X153049999Y-79694318D01*
X152893239Y-79714955D01*
X152893237Y-79714956D01*
X152747160Y-79775463D01*
X152621718Y-79871718D01*
X152525463Y-79997160D01*
X152464956Y-80143237D01*
X152464955Y-80143239D01*
X152444318Y-80299998D01*
X148745910Y-80299998D01*
X148759977Y-80282857D01*
X148759978Y-80282853D01*
X148759981Y-80282851D01*
X148815874Y-80178281D01*
X148848609Y-80117039D01*
X148903189Y-79937115D01*
X148921618Y-79750000D01*
X148903189Y-79562885D01*
X148848609Y-79382961D01*
X148829237Y-79346718D01*
X148759981Y-79217148D01*
X148759976Y-79217142D01*
X148746872Y-79201175D01*
X148737665Y-79189955D01*
X148640699Y-79071800D01*
X148495357Y-78952523D01*
X148495351Y-78952518D01*
X148467104Y-78937420D01*
X148417261Y-78888457D01*
X148401801Y-78820319D01*
X148425634Y-78754640D01*
X148467106Y-78718705D01*
X148520059Y-78690401D01*
X148025203Y-78195545D01*
X148097595Y-78176148D01*
X148177405Y-78130070D01*
X148242570Y-78064905D01*
X148288648Y-77985095D01*
X148308045Y-77912703D01*
X148802900Y-78407558D01*
X148894561Y-78236076D01*
X148951973Y-78046814D01*
X148971357Y-77850000D01*
X148951973Y-77653185D01*
X148894560Y-77463921D01*
X148802901Y-77292439D01*
X148308045Y-77787295D01*
X148288648Y-77714905D01*
X148242570Y-77635095D01*
X148177405Y-77569930D01*
X148097595Y-77523852D01*
X148025203Y-77504454D01*
X148520058Y-77009598D01*
X148520058Y-77009597D01*
X148348578Y-76917939D01*
X148159314Y-76860526D01*
X147962500Y-76841142D01*
X147765685Y-76860526D01*
X147576420Y-76917939D01*
X147404940Y-77009597D01*
X147404940Y-77009598D01*
X147899796Y-77504454D01*
X147827405Y-77523852D01*
X147747595Y-77569930D01*
X147682430Y-77635095D01*
X147636352Y-77714905D01*
X147616954Y-77787296D01*
X147122098Y-77292440D01*
X147122097Y-77292440D01*
X147030439Y-77463920D01*
X146973026Y-77653185D01*
X146953642Y-77850000D01*
X132096423Y-77850000D01*
X132074536Y-77797159D01*
X131978282Y-77671718D01*
X131852841Y-77575464D01*
X131706762Y-77514956D01*
X131706760Y-77514955D01*
X131550001Y-77494318D01*
X131549999Y-77494318D01*
X131393239Y-77514955D01*
X131393237Y-77514956D01*
X131247160Y-77575463D01*
X131121718Y-77671718D01*
X131025463Y-77797160D01*
X130964956Y-77943237D01*
X130964955Y-77943239D01*
X130944318Y-78099998D01*
X116455051Y-78099998D01*
X116409328Y-77939299D01*
X116318088Y-77756065D01*
X116194732Y-77592715D01*
X116194730Y-77592712D01*
X116043462Y-77454814D01*
X116043460Y-77454812D01*
X115869430Y-77347057D01*
X115869424Y-77347054D01*
X115718993Y-77288777D01*
X115678556Y-77273112D01*
X115536066Y-77246476D01*
X115485731Y-77237067D01*
X115423450Y-77205399D01*
X115388177Y-77145086D01*
X115391111Y-77075278D01*
X115431320Y-77018138D01*
X115485731Y-76993289D01*
X115692163Y-76954700D01*
X115891585Y-76877444D01*
X115891586Y-76877443D01*
X116038584Y-76786425D01*
X115560178Y-76308019D01*
X115567993Y-76305925D01*
X115682007Y-76240099D01*
X115775099Y-76147007D01*
X115840925Y-76032993D01*
X115843019Y-76025177D01*
X116320594Y-76502752D01*
X116360352Y-76450107D01*
X116360357Y-76450098D01*
X116360407Y-76449998D01*
X132687618Y-76449998D01*
X132687618Y-76450001D01*
X132708255Y-76606760D01*
X132708256Y-76606762D01*
X132768764Y-76752841D01*
X132865018Y-76878282D01*
X132990459Y-76974536D01*
X133136538Y-77035044D01*
X133214919Y-77045363D01*
X133293299Y-77055682D01*
X133293300Y-77055682D01*
X133293301Y-77055682D01*
X133345554Y-77048802D01*
X133450062Y-77035044D01*
X133596141Y-76974536D01*
X133721582Y-76878282D01*
X133817836Y-76752841D01*
X133829369Y-76724998D01*
X156444318Y-76724998D01*
X156444318Y-76725001D01*
X156464955Y-76881760D01*
X156464956Y-76881762D01*
X156525464Y-77027841D01*
X156621718Y-77153282D01*
X156747159Y-77249536D01*
X156893238Y-77310044D01*
X156971619Y-77320363D01*
X157049999Y-77330682D01*
X157050000Y-77330682D01*
X157050001Y-77330682D01*
X157102254Y-77323802D01*
X157206762Y-77310044D01*
X157352841Y-77249536D01*
X157478282Y-77153282D01*
X157574536Y-77027841D01*
X157635044Y-76881762D01*
X157655682Y-76725000D01*
X157635044Y-76568238D01*
X157574536Y-76422159D01*
X157478282Y-76296718D01*
X157352841Y-76200464D01*
X157206762Y-76139956D01*
X157206760Y-76139955D01*
X157050001Y-76119318D01*
X157049999Y-76119318D01*
X156893239Y-76139955D01*
X156893237Y-76139956D01*
X156747160Y-76200463D01*
X156621718Y-76296718D01*
X156525463Y-76422160D01*
X156464956Y-76568237D01*
X156464955Y-76568239D01*
X156444318Y-76724998D01*
X133829369Y-76724998D01*
X133878344Y-76606762D01*
X133898982Y-76450000D01*
X133878344Y-76293238D01*
X133817836Y-76147159D01*
X133721582Y-76021718D01*
X133596141Y-75925464D01*
X133450062Y-75864956D01*
X133450060Y-75864955D01*
X133293301Y-75844318D01*
X133293299Y-75844318D01*
X133136539Y-75864955D01*
X133136537Y-75864956D01*
X132990460Y-75925463D01*
X132865018Y-76021718D01*
X132768763Y-76147160D01*
X132708256Y-76293237D01*
X132708255Y-76293239D01*
X132687618Y-76449998D01*
X116360407Y-76449998D01*
X116455678Y-76258669D01*
X116455684Y-76258654D01*
X116514210Y-76052956D01*
X116514211Y-76052954D01*
X116533944Y-75840000D01*
X116533944Y-75839999D01*
X116514211Y-75627045D01*
X116514210Y-75627043D01*
X116455684Y-75421345D01*
X116455678Y-75421330D01*
X116360357Y-75229900D01*
X116360352Y-75229892D01*
X116320594Y-75177245D01*
X115843018Y-75654821D01*
X115840925Y-75647007D01*
X115775099Y-75532993D01*
X115682007Y-75439901D01*
X115567993Y-75374075D01*
X115560177Y-75371980D01*
X115919659Y-75012498D01*
X133719318Y-75012498D01*
X133719318Y-75012501D01*
X133739955Y-75169260D01*
X133739956Y-75169262D01*
X133765073Y-75229901D01*
X133800464Y-75315341D01*
X133896718Y-75440782D01*
X134022159Y-75537036D01*
X134168238Y-75597544D01*
X134246619Y-75607863D01*
X134324999Y-75618182D01*
X134325000Y-75618182D01*
X134325001Y-75618182D01*
X134377254Y-75611302D01*
X134481762Y-75597544D01*
X134627841Y-75537036D01*
X134753282Y-75440782D01*
X134784577Y-75399998D01*
X160894318Y-75399998D01*
X160894318Y-75400001D01*
X160914955Y-75556760D01*
X160914956Y-75556762D01*
X160975464Y-75702841D01*
X161071718Y-75828282D01*
X161197159Y-75924536D01*
X161343238Y-75985044D01*
X161421619Y-75995363D01*
X161499999Y-76005682D01*
X161500000Y-76005682D01*
X161500001Y-76005682D01*
X161552254Y-75998802D01*
X161656762Y-75985044D01*
X161802841Y-75924536D01*
X161928282Y-75828282D01*
X162024536Y-75702841D01*
X162085044Y-75556762D01*
X162105682Y-75400000D01*
X162094536Y-75315341D01*
X162089974Y-75280682D01*
X162085044Y-75243238D01*
X162024536Y-75097159D01*
X161928282Y-74971718D01*
X161802841Y-74875464D01*
X161755218Y-74855738D01*
X161656762Y-74814956D01*
X161656760Y-74814955D01*
X161500001Y-74794318D01*
X161499999Y-74794318D01*
X161343239Y-74814955D01*
X161343237Y-74814956D01*
X161197160Y-74875463D01*
X161071718Y-74971718D01*
X160975463Y-75097160D01*
X160914956Y-75243237D01*
X160914955Y-75243239D01*
X160894318Y-75399998D01*
X134784577Y-75399998D01*
X134849536Y-75315341D01*
X134910044Y-75169262D01*
X134930682Y-75012500D01*
X134926118Y-74977836D01*
X134910044Y-74855739D01*
X134910044Y-74855738D01*
X134849536Y-74709659D01*
X134765390Y-74599998D01*
X153569318Y-74599998D01*
X153569318Y-74600001D01*
X153589955Y-74756760D01*
X153589956Y-74756762D01*
X153646624Y-74893572D01*
X153650464Y-74902841D01*
X153746718Y-75028282D01*
X153872159Y-75124536D01*
X154018238Y-75185044D01*
X154096619Y-75195363D01*
X154174999Y-75205682D01*
X154175000Y-75205682D01*
X154175001Y-75205682D01*
X154227254Y-75198802D01*
X154331762Y-75185044D01*
X154477841Y-75124536D01*
X154603282Y-75028282D01*
X154662868Y-74950626D01*
X154719294Y-74909425D01*
X154789040Y-74905270D01*
X154849961Y-74939482D01*
X154870836Y-74971130D01*
X154871401Y-74970804D01*
X154875460Y-74977836D01*
X154875464Y-74977841D01*
X154971718Y-75103282D01*
X155097159Y-75199536D01*
X155243238Y-75260044D01*
X155321619Y-75270363D01*
X155399999Y-75280682D01*
X155400000Y-75280682D01*
X155400001Y-75280682D01*
X155452254Y-75273802D01*
X155556762Y-75260044D01*
X155702841Y-75199536D01*
X155828282Y-75103282D01*
X155924536Y-74977841D01*
X155985044Y-74831762D01*
X156005682Y-74675000D01*
X155985044Y-74518238D01*
X155924536Y-74372159D01*
X155828282Y-74246718D01*
X155702841Y-74150464D01*
X155556762Y-74089956D01*
X155556760Y-74089955D01*
X155400001Y-74069318D01*
X155399999Y-74069318D01*
X155243239Y-74089955D01*
X155243237Y-74089956D01*
X155097160Y-74150463D01*
X154971715Y-74246720D01*
X154912131Y-74324372D01*
X154855703Y-74365575D01*
X154785957Y-74369729D01*
X154725037Y-74335516D01*
X154704165Y-74303869D01*
X154703599Y-74304196D01*
X154699539Y-74297163D01*
X154699536Y-74297159D01*
X154603282Y-74171718D01*
X154477841Y-74075464D01*
X154463003Y-74069318D01*
X154331762Y-74014956D01*
X154331760Y-74014955D01*
X154175001Y-73994318D01*
X154174999Y-73994318D01*
X154018239Y-74014955D01*
X154018237Y-74014956D01*
X153872160Y-74075463D01*
X153746718Y-74171718D01*
X153650463Y-74297160D01*
X153589956Y-74443237D01*
X153589955Y-74443239D01*
X153569318Y-74599998D01*
X134765390Y-74599998D01*
X134753282Y-74584218D01*
X134627841Y-74487964D01*
X134519865Y-74443239D01*
X134481762Y-74427456D01*
X134481760Y-74427455D01*
X134325001Y-74406818D01*
X134324999Y-74406818D01*
X134168239Y-74427455D01*
X134168237Y-74427456D01*
X134022160Y-74487963D01*
X133896718Y-74584218D01*
X133800463Y-74709660D01*
X133739956Y-74855737D01*
X133739955Y-74855739D01*
X133719318Y-75012498D01*
X115919659Y-75012498D01*
X116038584Y-74893573D01*
X116038583Y-74893572D01*
X115891589Y-74802557D01*
X115891583Y-74802554D01*
X115692162Y-74725299D01*
X115481932Y-74686000D01*
X115268068Y-74686000D01*
X115057837Y-74725299D01*
X114858416Y-74802554D01*
X114858410Y-74802558D01*
X114711415Y-74893572D01*
X114711414Y-74893573D01*
X115189822Y-75371980D01*
X115182007Y-75374075D01*
X115067993Y-75439901D01*
X114974901Y-75532993D01*
X114909075Y-75647007D01*
X114906980Y-75654821D01*
X114429404Y-75177245D01*
X114389647Y-75229894D01*
X114389642Y-75229901D01*
X114294321Y-75421330D01*
X114294315Y-75421345D01*
X114235789Y-75627043D01*
X114235788Y-75627045D01*
X114216056Y-75839999D01*
X110700500Y-75839999D01*
X110700500Y-73256092D01*
X110701097Y-73243939D01*
X110709805Y-73155519D01*
X110714665Y-73106173D01*
X110719403Y-73082349D01*
X110757816Y-72955719D01*
X110767113Y-72933278D01*
X110829485Y-72816587D01*
X110842982Y-72796387D01*
X110926924Y-72694103D01*
X110944103Y-72676924D01*
X111046387Y-72592982D01*
X111066587Y-72579485D01*
X111183278Y-72517113D01*
X111205719Y-72507816D01*
X111332349Y-72469403D01*
X111356173Y-72464665D01*
X111485170Y-72451960D01*
X111493939Y-72451097D01*
X111506092Y-72450500D01*
X111539882Y-72450500D01*
X154959884Y-72450500D01*
X155026923Y-72470185D01*
G37*
%TD.AperFunction*%
%TD*%
M02*
