M48
; DRILL file {KiCad 8.0.7} date 2024-12-27T12:04:43+1100
; FORMAT={-:-/ absolute / inch / decimal}
; #@! TF.CreationDate,2024-12-27T12:04:43+11:00
; #@! TF.GenerationSoftware,Kicad,Pcbnew,8.0.7
; #@! TF.FileFunction,Plated,1,4,PTH
FMAT,2
INCH
; #@! TA.AperFunction,Plated,PTH,ViaDrill
T1C0.0118
; #@! TA.AperFunction,Plated,PTH,ComponentDrill
T2C0.0118
; #@! TA.AperFunction,Plated,PTH,ViaDrill
T3C0.0157
; #@! TA.AperFunction,Plated,PTH,ComponentDrill
T4C0.0177
; #@! TA.AperFunction,Plated,PTH,ComponentDrill
T5C0.0256
; #@! TA.AperFunction,Plated,PTH,ComponentDrill
T6C0.0276
; #@! TA.AperFunction,Plated,PTH,ComponentDrill
T7C0.0394
%
G90
G05
T1
X4.4646Y-4.2106
X4.5866Y-4.2087
X4.708Y-4.2093
X4.7441Y-3.7682
X4.7874Y-4.0443
X4.8071Y-4.81
X4.8071Y-4.8415
X4.8071Y-4.876
X4.8484Y-4.4958
X4.9006Y-4.2849
X4.9213Y-4.4931
X4.9409Y-3.7598
X4.9409Y-3.8386
X4.9409Y-3.9173
X4.9409Y-3.9961
X4.9616Y-4.497
X4.9921Y-3.6732
X5.0Y-3.8386
X5.0Y-3.9173
X5.0Y-3.9961
X5.0Y-4.2849
X5.002Y-4.4961
X5.0305Y-4.5354
X5.0453Y-3.2972
X5.0463Y-3.4803
X5.0463Y-3.5079
X5.0463Y-3.5364
X5.0492Y-4.3996
X5.0669Y-3.0276
X5.0797Y-4.7972
X5.0984Y-4.2849
X5.127Y-4.7717
X5.1457Y-4.3996
X5.1545Y-4.7717
X5.1732Y-4.5069
X5.1791Y-3.0748
X5.1811Y-4.7717
X5.1919Y-3.1221
X5.2175Y-4.5423
X5.2234Y-3.4803
X5.2234Y-3.5079
X5.2234Y-3.5364
X5.2303Y-4.5039
X5.2478Y-3.0098
X5.2726Y-4.6644
X5.2736Y-4.625
X5.278Y-3.2736
X5.2884Y-2.9532
X5.2982Y-3.0418
X5.313Y-4.187
X5.313Y-4.2205
X5.313Y-4.2579
X5.3543Y-3.5876
X5.3829Y-3.3115
X5.4528Y-3.5866
X5.5Y-4.4508
X5.5315Y-4.187
X5.5315Y-4.2224
X5.5315Y-4.2579
X5.5689Y-4.3228
X5.5807Y-4.4094
X5.5965Y-4.0561
X5.6378Y-4.1875
X5.6378Y-4.3642
X5.6476Y-3.8445
X5.6842Y-4.728
X5.687Y-4.4134
X5.6873Y-4.6504
X5.7106Y-4.3228
X5.7441Y-4.2087
X5.7638Y-3.7402
X5.7657Y-3.8642
X5.7746Y-4.4508
X5.7913Y-4.2441
X5.8573Y-3.3248
X5.8799Y-3.8327
X5.9242Y-3.9921
X5.9291Y-4.3691
X5.9921Y-3.8642
X5.9931Y-4.3435
X5.997Y-4.4213
X6.0256Y-3.1614
X6.0384Y-2.9823
X6.063Y-4.0098
X6.0699Y-2.937
X6.0728Y-4.6063
X6.1004Y-3.874
X6.1181Y-2.8799
X6.1181Y-2.94
X6.1319Y-3.4449
X6.1358Y-3.874
X6.1358Y-4.2008
X6.1436Y-3.094
X6.1732Y-4.2933
X6.1831Y-3.0207
X6.1978Y-4.4213
X6.2008Y-4.7539
X6.2451Y-3.5522
X6.2579Y-3.1407
X6.2953Y-3.6663
X6.3091Y-4.5374
X6.3386Y-4.7441
X6.3583Y-2.8799
X6.3583Y-2.9685
X6.3593Y-3.1398
X6.4341Y-3.2264
X6.4341Y-3.3632
X6.5522Y-4.4301
X6.5551Y-4.2008
X6.5551Y-4.3578
X6.5551Y-4.8031
X6.5878Y-4.284
X6.6575Y-3.9646
X6.7224Y-3.4526
X6.7608Y-3.1998
X6.7726Y-3.1368
X6.7943Y-3.3051
X6.7943Y-3.3455
X6.7943Y-3.3917
X6.7953Y-3.1663
X6.7953Y-3.2431
X6.8012Y-4.7835
X6.8632Y-3.9488
X6.9311Y-3.2933
X7.0059Y-3.2677
X7.0256Y-3.8445
X7.1467Y-3.2057
X7.1752Y-3.2972
X7.1939Y-3.7972
X7.1978Y-3.3563
X7.2047Y-3.1368
X7.2323Y-3.2067
X7.2352Y-3.4104
X7.247Y-3.4793
X7.2835Y-3.3986
X7.3504Y-3.8051
X7.435Y-4.438
X7.4467Y-4.0396
X7.6161Y-3.9409
X7.6506Y-3.7087
X7.6683Y-3.5591
X7.6717Y-3.3823
X7.6799Y-4.1358
X7.6969Y-4.7835
X7.6978Y-3.1752
X7.7028Y-3.5079
X7.7039Y-4.1594
X7.7274Y-3.2047
X7.7835Y-3.6969
X7.8464Y-3.1458
T2
X7.4345Y-3.3683
X7.4345Y-3.4116
X7.4561Y-3.3466
X7.4561Y-3.3899
X7.4561Y-3.4332
X7.4778Y-3.3683
X7.4778Y-3.4116
X7.4994Y-3.3466
X7.4994Y-3.3899
X7.4994Y-3.4332
X7.5211Y-3.3683
X7.5211Y-3.4116
T3
X4.7667Y-4.6467
X5.0846Y-4.5404
X6.8238Y-3.2116
X7.0965Y-3.6585
T4
X5.5272Y-4.5032
X5.5429Y-4.5312
X5.5587Y-4.5032
X5.5744Y-4.5312
X5.5902Y-4.5032
X5.6059Y-4.5312
X5.6217Y-4.5032
X5.6532Y-4.5032
X5.6689Y-4.5312
X5.6847Y-4.5032
X5.7004Y-4.5312
X5.7162Y-4.5032
X5.7319Y-4.5312
X5.7477Y-4.5032
T6
X5.8253Y-3.065
X5.8253Y-3.1398
T7
X4.5246Y-3.4868
X4.5246Y-3.5868
X4.5246Y-3.6868
X4.5246Y-3.7868
X4.5246Y-3.8868
X4.5423Y-2.9858
X4.5423Y-3.0843
X4.5423Y-3.1827
X4.5423Y-3.2811
T5
G00X5.4693Y-4.5367
M15
G01X5.4693Y-4.5603
M16
G05
G00X5.4693Y-4.7229
M15
G01X5.4693Y-4.7466
M16
G05
G00X5.8055Y-4.5367
M15
G01X5.8055Y-4.5603
M16
G05
G00X5.8055Y-4.7229
M15
G01X5.8055Y-4.7466
M16
G05
M30
