%TF.GenerationSoftware,KiCad,Pcbnew,8.0.7*%
%TF.CreationDate,2024-12-27T12:04:35+11:00*%
%TF.ProjectId,ESP32 sensor board,45535033-3220-4736-956e-736f7220626f,rev?*%
%TF.SameCoordinates,Original*%
%TF.FileFunction,Soldermask,Top*%
%TF.FilePolarity,Negative*%
%FSLAX46Y46*%
G04 Gerber Fmt 4.6, Leading zero omitted, Abs format (unit mm)*
G04 Created by KiCad (PCBNEW 8.0.7) date 2024-12-27 12:04:35*
%MOMM*%
%LPD*%
G01*
G04 APERTURE LIST*
G04 Aperture macros list*
%AMRoundRect*
0 Rectangle with rounded corners*
0 $1 Rounding radius*
0 $2 $3 $4 $5 $6 $7 $8 $9 X,Y pos of 4 corners*
0 Add a 4 corners polygon primitive as box body*
4,1,4,$2,$3,$4,$5,$6,$7,$8,$9,$2,$3,0*
0 Add four circle primitives for the rounded corners*
1,1,$1+$1,$2,$3*
1,1,$1+$1,$4,$5*
1,1,$1+$1,$6,$7*
1,1,$1+$1,$8,$9*
0 Add four rect primitives between the rounded corners*
20,1,$1+$1,$2,$3,$4,$5,0*
20,1,$1+$1,$4,$5,$6,$7,0*
20,1,$1+$1,$6,$7,$8,$9,0*
20,1,$1+$1,$8,$9,$2,$3,0*%
G04 Aperture macros list end*
%ADD10R,1.230000X1.800000*%
%ADD11RoundRect,0.250000X0.450000X-0.262500X0.450000X0.262500X-0.450000X0.262500X-0.450000X-0.262500X0*%
%ADD12RoundRect,0.250000X-0.475000X0.250000X-0.475000X-0.250000X0.475000X-0.250000X0.475000X0.250000X0*%
%ADD13C,1.000000*%
%ADD14RoundRect,0.150000X0.150000X-0.587500X0.150000X0.587500X-0.150000X0.587500X-0.150000X-0.587500X0*%
%ADD15R,1.400000X1.000000*%
%ADD16R,1.800000X1.230000*%
%ADD17RoundRect,0.250000X0.475000X-0.250000X0.475000X0.250000X-0.475000X0.250000X-0.475000X-0.250000X0*%
%ADD18RoundRect,0.250000X-0.262500X-0.450000X0.262500X-0.450000X0.262500X0.450000X-0.262500X0.450000X0*%
%ADD19RoundRect,0.250000X-0.450000X0.262500X-0.450000X-0.262500X0.450000X-0.262500X0.450000X0.262500X0*%
%ADD20RoundRect,0.102000X-0.150000X-0.600000X0.150000X-0.600000X0.150000X0.600000X-0.150000X0.600000X0*%
%ADD21C,0.854000*%
%ADD22RoundRect,0.102000X-0.100000X-0.500000X0.100000X-0.500000X0.100000X0.500000X-0.100000X0.500000X0*%
%ADD23O,1.254000X2.304000*%
%ADD24RoundRect,0.250000X0.262500X0.450000X-0.262500X0.450000X-0.262500X-0.450000X0.262500X-0.450000X0*%
%ADD25RoundRect,0.102000X0.475000X-1.075000X0.475000X1.075000X-0.475000X1.075000X-0.475000X-1.075000X0*%
%ADD26RoundRect,0.102000X1.625000X-1.075000X1.625000X1.075000X-1.625000X1.075000X-1.625000X-1.075000X0*%
%ADD27R,0.910000X2.810000*%
%ADD28RoundRect,0.250000X0.250000X0.475000X-0.250000X0.475000X-0.250000X-0.475000X0.250000X-0.475000X0*%
%ADD29RoundRect,0.150000X-0.150000X0.512500X-0.150000X-0.512500X0.150000X-0.512500X0.150000X0.512500X0*%
%ADD30RoundRect,0.151000X-0.151000X0.546000X-0.151000X-0.546000X0.151000X-0.546000X0.151000X0.546000X0*%
%ADD31RoundRect,0.102000X-0.750000X-0.450000X0.750000X-0.450000X0.750000X0.450000X-0.750000X0.450000X0*%
%ADD32RoundRect,0.102000X-0.350000X-0.350000X0.350000X-0.350000X0.350000X0.350000X-0.350000X0.350000X0*%
%ADD33C,1.300000*%
%ADD34RoundRect,0.102000X-0.754000X0.754000X-0.754000X-0.754000X0.754000X-0.754000X0.754000X0.754000X0*%
%ADD35C,1.712000*%
%ADD36RoundRect,0.102000X-0.500000X-2.750000X0.500000X-2.750000X0.500000X2.750000X-0.500000X2.750000X0*%
%ADD37RoundRect,0.102000X-0.800000X-1.500000X0.800000X-1.500000X0.800000X1.500000X-0.800000X1.500000X0*%
%ADD38RoundRect,0.081750X0.245250X-0.265250X0.245250X0.265250X-0.245250X0.265250X-0.245250X-0.265250X0*%
%ADD39RoundRect,0.102000X0.275000X0.285000X-0.275000X0.285000X-0.275000X-0.285000X0.275000X-0.285000X0*%
%ADD40C,1.412000*%
%ADD41RoundRect,0.102000X0.550000X0.400000X-0.550000X0.400000X-0.550000X-0.400000X0.550000X-0.400000X0*%
%ADD42RoundRect,0.102000X0.550000X0.500000X-0.550000X0.500000X-0.550000X-0.500000X0.550000X-0.500000X0*%
%ADD43RoundRect,0.250000X-0.250000X-0.475000X0.250000X-0.475000X0.250000X0.475000X-0.250000X0.475000X0*%
%ADD44RoundRect,0.062500X0.350000X0.062500X-0.350000X0.062500X-0.350000X-0.062500X0.350000X-0.062500X0*%
%ADD45RoundRect,0.062500X0.062500X0.350000X-0.062500X0.350000X-0.062500X-0.350000X0.062500X-0.350000X0*%
%ADD46R,2.500000X2.500000*%
%ADD47R,0.300000X0.300000*%
%ADD48R,0.300000X0.900000*%
%ADD49R,0.900000X0.300000*%
%ADD50R,1.800000X1.800000*%
%ADD51R,1.700000X1.700000*%
%ADD52O,1.700000X1.700000*%
%ADD53O,1.804000X0.804000*%
%ADD54C,1.150000*%
%ADD55C,1.650000*%
%ADD56RoundRect,0.102000X-0.500000X-0.750000X0.500000X-0.750000X0.500000X0.750000X-0.500000X0.750000X0*%
%ADD57RoundRect,0.102000X-0.350000X-0.750000X0.350000X-0.750000X0.350000X0.750000X-0.350000X0.750000X0*%
%ADD58RoundRect,0.102000X-0.750000X-1.400000X0.750000X-1.400000X0.750000X1.400000X-0.750000X1.400000X0*%
G04 APERTURE END LIST*
D10*
%TO.C,C4*%
X125180000Y-90670000D03*
X125180000Y-93290000D03*
%TD*%
D11*
%TO.C,R5*%
X128250000Y-110662500D03*
X128250000Y-108837500D03*
%TD*%
D12*
%TO.C,C5*%
X122400000Y-91070000D03*
X122400000Y-92970000D03*
%TD*%
D13*
%TO.C,TP1*%
X167550000Y-99875000D03*
%TD*%
D11*
%TO.C,R10*%
X121600000Y-101712500D03*
X121600000Y-99887500D03*
%TD*%
D10*
%TO.C,C9*%
X149300000Y-101360000D03*
X149300000Y-98740000D03*
%TD*%
D14*
%TO.C,Q2*%
X163150000Y-110687500D03*
X165050000Y-110687500D03*
X164100000Y-108812500D03*
%TD*%
D15*
%TO.C,D3*%
X119583300Y-109712500D03*
X119583300Y-107912500D03*
%TD*%
D16*
%TO.C,C12*%
X181195000Y-96000000D03*
X178575000Y-96000000D03*
%TD*%
D15*
%TO.C,D4*%
X121600000Y-97512500D03*
X121600000Y-95712500D03*
%TD*%
D17*
%TO.C,C1*%
X147100000Y-110750000D03*
X147100000Y-108850000D03*
%TD*%
D18*
%TO.C,R12*%
X148437500Y-104100000D03*
X150262500Y-104100000D03*
%TD*%
D19*
%TO.C,R11*%
X145200000Y-94987500D03*
X145200000Y-96812500D03*
%TD*%
D20*
%TO.C,J1*%
X140440800Y-113132500D03*
X140940800Y-113132500D03*
X141440800Y-113132500D03*
X141940800Y-113132500D03*
X142440800Y-113132500D03*
X142940800Y-113132500D03*
X143440800Y-113132500D03*
X143940800Y-113132500D03*
X144440800Y-113132500D03*
X144940800Y-113132500D03*
X145440800Y-113132500D03*
X145940800Y-113132500D03*
D21*
X145990800Y-114382500D03*
X145590800Y-115092500D03*
X144790800Y-115092500D03*
X144390800Y-114382500D03*
X143990800Y-115092500D03*
X143590800Y-114382500D03*
X142790800Y-114382500D03*
X142390800Y-115092500D03*
X141990800Y-114382500D03*
X141590800Y-115092500D03*
X140790800Y-115092500D03*
X140390800Y-114382500D03*
X145190800Y-114382500D03*
X141190800Y-114382500D03*
D22*
X143190800Y-117712500D03*
X143190800Y-120812500D03*
D23*
X138920800Y-115532500D03*
X147460800Y-115532500D03*
X138920800Y-120262500D03*
X147460800Y-120262500D03*
%TD*%
D24*
%TO.C,R33*%
X155412500Y-112750000D03*
X153587500Y-112750000D03*
%TD*%
D19*
%TO.C,R31*%
X126825000Y-79400000D03*
X126825000Y-81225000D03*
%TD*%
D25*
%TO.C,U2*%
X128150000Y-94900000D03*
X130450000Y-94900000D03*
X132750000Y-94900000D03*
D26*
X130450000Y-89100000D03*
%TD*%
D11*
%TO.C,R18*%
X138500000Y-98962500D03*
X138500000Y-97137500D03*
%TD*%
D24*
%TO.C,R30*%
X135875000Y-79650000D03*
X134050000Y-79650000D03*
%TD*%
D18*
%TO.C,R28*%
X137750000Y-81962500D03*
X139575000Y-81962500D03*
%TD*%
D27*
%TO.C,F1*%
X139370000Y-107275000D03*
X136130000Y-107275000D03*
%TD*%
D12*
%TO.C,C14*%
X159900000Y-90200000D03*
X159900000Y-92100000D03*
%TD*%
D14*
%TO.C,Q3*%
X153587500Y-110237500D03*
X155487500Y-110237500D03*
X154537500Y-108362500D03*
%TD*%
D18*
%TO.C,R22*%
X164087500Y-94475000D03*
X165912500Y-94475000D03*
%TD*%
D28*
%TO.C,C18*%
X131525000Y-76912500D03*
X129625000Y-76912500D03*
%TD*%
D29*
%TO.C,U5*%
X144150000Y-107525000D03*
X143200000Y-107525000D03*
X142250000Y-107525000D03*
X142250000Y-109800000D03*
X143200000Y-109800000D03*
X144150000Y-109800000D03*
%TD*%
D28*
%TO.C,C2*%
X131200000Y-101800000D03*
X129300000Y-101800000D03*
%TD*%
D11*
%TO.C,R1*%
X123250000Y-110662500D03*
X123250000Y-108837500D03*
%TD*%
D12*
%TO.C,C20*%
X123075000Y-79362500D03*
X123075000Y-81262500D03*
%TD*%
D30*
%TO.C,U8*%
X130725000Y-79302500D03*
X130075000Y-79302500D03*
X129425000Y-79302500D03*
X129425000Y-81222500D03*
X130725000Y-81222500D03*
%TD*%
D15*
%TO.C,D6*%
X138500000Y-93900000D03*
X138500000Y-92100000D03*
%TD*%
D31*
%TO.C,U3*%
X180226000Y-79904000D03*
X180226000Y-81404000D03*
X180226000Y-82904000D03*
X180226000Y-84404000D03*
X180226000Y-85904000D03*
X180226000Y-87404000D03*
X180226000Y-88904000D03*
X180226000Y-90404000D03*
X180226000Y-91904000D03*
X197726000Y-91904000D03*
X197726000Y-90404000D03*
X197726000Y-88904000D03*
X197726000Y-87404000D03*
X197726000Y-85904000D03*
X197726000Y-84404000D03*
X197726000Y-82904000D03*
X197726000Y-81404000D03*
X197726000Y-79904000D03*
D32*
X188836000Y-85004000D03*
X189936000Y-85004000D03*
X191036000Y-85004000D03*
X188836000Y-86104000D03*
X189936000Y-86104000D03*
X191036000Y-86104000D03*
X188836000Y-87204000D03*
X189936000Y-87204000D03*
X191036000Y-87204000D03*
%TD*%
D13*
%TO.C,TP5*%
X159750000Y-87000000D03*
%TD*%
D33*
%TO.C,J4*%
X117375000Y-84940000D03*
D34*
X115375000Y-83340000D03*
D35*
X115375000Y-80840000D03*
X115375000Y-78340000D03*
X115375000Y-75840000D03*
%TD*%
D11*
%TO.C,R8*%
X113500000Y-113912500D03*
X113500000Y-112087500D03*
%TD*%
D18*
%TO.C,R29*%
X136050000Y-77612500D03*
X137875000Y-77612500D03*
%TD*%
D13*
%TO.C,TP2*%
X164100000Y-99875000D03*
%TD*%
D18*
%TO.C,R13*%
X152187500Y-103050000D03*
X154012500Y-103050000D03*
%TD*%
D36*
%TO.C,J2*%
X119075000Y-121475000D03*
X121075000Y-121475000D03*
D37*
X116675000Y-119225000D03*
X123475000Y-119225000D03*
%TD*%
D28*
%TO.C,C13*%
X185650000Y-96650000D03*
X183750000Y-96650000D03*
%TD*%
D13*
%TO.C,TP3*%
X174025000Y-89225000D03*
%TD*%
D11*
%TO.C,R6*%
X130700000Y-110662500D03*
X130700000Y-108837500D03*
%TD*%
D38*
%TO.C,U7*%
X154097500Y-75727500D03*
X154747500Y-75727500D03*
X155397500Y-75727500D03*
X156047500Y-75727500D03*
X156047500Y-77667500D03*
X155397500Y-77667500D03*
X154747500Y-77667500D03*
X154097500Y-77667500D03*
%TD*%
D39*
%TO.C,SW1*%
X165025000Y-121330000D03*
X162475000Y-121330000D03*
X165025000Y-120170000D03*
X162475000Y-120170000D03*
%TD*%
D19*
%TO.C,R3*%
X136725000Y-118462500D03*
X136725000Y-120287500D03*
%TD*%
D28*
%TO.C,C6*%
X130925000Y-123025000D03*
X129025000Y-123025000D03*
%TD*%
D18*
%TO.C,R34*%
X163187500Y-112850000D03*
X165012500Y-112850000D03*
%TD*%
D40*
%TO.C,MK1*%
X147962500Y-77850000D03*
X147962500Y-79750000D03*
%TD*%
D16*
%TO.C,C3*%
X131660000Y-98625000D03*
X129040000Y-98625000D03*
%TD*%
D41*
%TO.C,Q1*%
X153255000Y-87800000D03*
X153255000Y-86700000D03*
D42*
X149745000Y-87250000D03*
%TD*%
D28*
%TO.C,C17*%
X139562500Y-79700000D03*
X137662500Y-79700000D03*
%TD*%
D18*
%TO.C,R23*%
X149687500Y-84450000D03*
X151512500Y-84450000D03*
%TD*%
D11*
%TO.C,R32*%
X150900000Y-114562500D03*
X150900000Y-112737500D03*
%TD*%
D43*
%TO.C,C19*%
X134062500Y-81962500D03*
X135962500Y-81962500D03*
%TD*%
D44*
%TO.C,U1*%
X132847500Y-119360000D03*
X132847500Y-118860000D03*
X132847500Y-118360000D03*
X132847500Y-117860000D03*
X132847500Y-117360000D03*
D45*
X131910000Y-116422500D03*
X131410000Y-116422500D03*
X130910000Y-116422500D03*
X130410000Y-116422500D03*
X129910000Y-116422500D03*
D44*
X128972500Y-117360000D03*
X128972500Y-117860000D03*
X128972500Y-118360000D03*
X128972500Y-118860000D03*
X128972500Y-119360000D03*
D45*
X129910000Y-120297500D03*
X130410000Y-120297500D03*
X130910000Y-120297500D03*
X131410000Y-120297500D03*
X131910000Y-120297500D03*
D46*
X130910000Y-118360000D03*
%TD*%
D11*
%TO.C,R7*%
X116500000Y-113850000D03*
X116500000Y-112025000D03*
%TD*%
%TO.C,R25*%
X161500000Y-78712500D03*
X161500000Y-76887500D03*
%TD*%
D18*
%TO.C,R19*%
X193187500Y-95800000D03*
X195012500Y-95800000D03*
%TD*%
D47*
%TO.C,U4*%
X141450000Y-101450000D03*
D48*
X141950000Y-101750000D03*
X142450000Y-101750000D03*
X142950000Y-101750000D03*
X143450000Y-101750000D03*
D47*
X143950000Y-101450000D03*
D49*
X144250000Y-100950000D03*
X144250000Y-100450000D03*
X144250000Y-99950000D03*
X144250000Y-99450000D03*
D47*
X143950000Y-98950000D03*
D48*
X143450000Y-98650000D03*
X142950000Y-98650000D03*
X142450000Y-98650000D03*
X141950000Y-98650000D03*
D47*
X141450000Y-98950000D03*
D49*
X141150000Y-99450000D03*
X141150000Y-99950000D03*
X141150000Y-100450000D03*
X141150000Y-100950000D03*
D50*
X142700000Y-100200000D03*
%TD*%
D28*
%TO.C,C21*%
X165050000Y-115050000D03*
X163150000Y-115050000D03*
%TD*%
D15*
%TO.C,D5*%
X136000000Y-93900000D03*
X136000000Y-92100000D03*
%TD*%
D18*
%TO.C,R20*%
X174062500Y-86450000D03*
X175887500Y-86450000D03*
%TD*%
D17*
%TO.C,C11*%
X152200000Y-101050000D03*
X152200000Y-99150000D03*
%TD*%
D51*
%TO.C,J6*%
X114925000Y-88565000D03*
D52*
X114925000Y-91105000D03*
X114925000Y-93645000D03*
X114925000Y-96185000D03*
X114925000Y-98725000D03*
%TD*%
D28*
%TO.C,C15*%
X155922500Y-80300000D03*
X154022500Y-80300000D03*
%TD*%
%TO.C,C22*%
X155450000Y-114950000D03*
X153550000Y-114950000D03*
%TD*%
D15*
%TO.C,D2*%
X113416700Y-109712500D03*
X113416700Y-107912500D03*
%TD*%
D28*
%TO.C,C16*%
X139662500Y-84112500D03*
X137762500Y-84112500D03*
%TD*%
D24*
%TO.C,R16*%
X168487500Y-96625000D03*
X166662500Y-96625000D03*
%TD*%
D10*
%TO.C,C7*%
X174950000Y-81030000D03*
X174950000Y-83650000D03*
%TD*%
D13*
%TO.C,TP4*%
X197225000Y-95875000D03*
%TD*%
D15*
%TO.C,D1*%
X116500000Y-109650000D03*
X116500000Y-107850000D03*
%TD*%
D39*
%TO.C,SW2*%
X155737500Y-121330000D03*
X153187500Y-121330000D03*
X155737500Y-120170000D03*
X153187500Y-120170000D03*
%TD*%
D24*
%TO.C,R27*%
X137875000Y-75350000D03*
X136050000Y-75350000D03*
%TD*%
%TO.C,R26*%
X130987500Y-83762500D03*
X129162500Y-83762500D03*
%TD*%
D53*
%TO.C,U6*%
X162400000Y-87695000D03*
X162400000Y-88965000D03*
X162400000Y-90235000D03*
X162400000Y-91505000D03*
X169600000Y-91505000D03*
X169600000Y-90235000D03*
X169600000Y-88965000D03*
X169600000Y-87695000D03*
%TD*%
D11*
%TO.C,R9*%
X119500000Y-113912500D03*
X119500000Y-112087500D03*
%TD*%
D54*
%TO.C,J3*%
X172576000Y-101700000D03*
D55*
X193576000Y-101700000D03*
D56*
X190951000Y-98900000D03*
X188451000Y-98900000D03*
X185951000Y-98900000D03*
X183451000Y-98900000D03*
X180951000Y-98900000D03*
X178451000Y-98900000D03*
X176026000Y-98900000D03*
X174326000Y-98900000D03*
X193451000Y-98900000D03*
D57*
X173026000Y-98900000D03*
D58*
X170426000Y-100700000D03*
X195526000Y-100700000D03*
X197726000Y-122200000D03*
X170426000Y-122200000D03*
D57*
X171826000Y-98900000D03*
%TD*%
D12*
%TO.C,C8*%
X177950000Y-80050000D03*
X177950000Y-81950000D03*
%TD*%
D11*
%TO.C,R24*%
X158965000Y-78712500D03*
X158965000Y-76887500D03*
%TD*%
D17*
%TO.C,C10*%
X146450000Y-101050000D03*
X146450000Y-99150000D03*
%TD*%
D11*
%TO.C,R14*%
X136000000Y-98962500D03*
X136000000Y-97137500D03*
%TD*%
%TO.C,R2*%
X125750000Y-110662500D03*
X125750000Y-108837500D03*
%TD*%
D19*
%TO.C,R4*%
X136725000Y-113362500D03*
X136725000Y-115187500D03*
%TD*%
D11*
%TO.C,R15*%
X176350000Y-90437500D03*
X176350000Y-88612500D03*
%TD*%
M02*
